SplineFontDB: 3.0
FontName: SimplySans-Bold
FullName: Simply Sans Bold
FamilyName: Simply Sans
Weight: Bold
Copyright: Copyright (c) 2020-2024 by Wojciech Kalinowski "wmk69" with Reserved Font Name "SimplySans-Bold".\nThis Font Software is licensed under the SIL Open Font License, Version 1.1.
Version: 1.0.1; 2021-05-15
ItalicAngle: 0
UnderlinePosition: -80
UnderlineWidth: 320
Ascent: 1638
Descent: 410
InvalidEm: 0
LayerCount: 2
Layer: 0 1 "Warstwa t+AUIA-a" 1
Layer: 1 1 "Plan pierwszy" 0
XUID: [1021 783 23647091 2952791]
StyleMap: 0x0020
FSType: 0
OS2Version: 3
OS2_WeightWidthSlopeOnly: 0
OS2_UseTypoMetrics: 1
CreationTime: 1260698820
ModificationTime: 1621101447
PfmFamily: 33
TTFWeight: 700
TTFWidth: 5
LineGap: 200
VLineGap: 0
Panose: 2 11 8 5 2 2 3 6 2 4
OS2TypoAscent: 2000
OS2TypoAOffset: 0
OS2TypoDescent: -500
OS2TypoDOffset: 0
OS2TypoLinegap: 200
OS2WinAscent: 2000
OS2WinAOffset: 0
OS2WinDescent: 500
OS2WinDOffset: 0
HheadAscent: 2000
HheadAOffset: 0
HheadDescent: -500
HheadDOffset: 0
OS2SubXSize: 1434
OS2SubYSize: 1331
OS2SubXOff: 0
OS2SubYOff: 287
OS2SupXSize: 1434
OS2SupYSize: 1331
OS2SupXOff: 0
OS2SupYOff: 977
OS2StrikeYSize: 102
OS2StrikeYPos: 512
OS2CapHeight: 1510
OS2XHeight: 1100
OS2Vendor: '    '
OS2CodePages: 20000093.00000000
OS2UnicodeRanges: 8000002f.4000204b.00000000.00000000
Lookup: 258 0 0 "'kern' Horizontal Kerning lookup 0" { "'kern' Horizontal Kerning lookup 0-1 subtable" [307,0,4] } ['kern' ('DFLT' <'dflt' > 'grek' <'dflt' > 'latn' <'dflt' > ) ]
MarkAttachClasses: 1
DEI: 91125
KernClass2: 70 55 "'kern' Horizontal Kerning lookup 0-1 subtable"
 84 A Agrave Aacute Acircumflex Atilde Adieresis Aring Amacron Abreve Aogonek Aringacute
 28 B germandbls uni1E02 uni1E9E
 47 C Ccedilla Cacute Ccircumflex Cdotaccent Ccaron
 122 D O Q Eth Ograve Oacute Ocircumflex Otilde Odieresis Oslash Dcaron Dcroat Omacron Obreve Ohungarumlaut Oslashacute uni1E0A
 92 E AE Egrave Eacute Ecircumflex Edieresis Emacron Ebreve Edotaccent Eogonek Ecaron OE AEacute

StartChar: .notdef
Encoding: 65536 -1 0
Width: 1114
Flags: W
HStem: 0 118<338 776> 1392 118<338 776>
VStem: 150 188<118 1392> 776 188<118 1392>
LayerCount: 2
Fore
SplineSet
150 0 m 1,0,-1
 150 1510 l 1,1,-1
 964 1510 l 1,2,-1
 964 0 l 1,3,-1
 150 0 l 1,0,-1
338 118 m 1,4,-1
 776 118 l 1,5,-1
 776 1392 l 1,6,-1
 338 1392 l 1,7,-1
 338 118 l 1,4,-1
EndSplineSet
Validated: 1
EndChar

StartChar: exclam
Encoding: 33 33 4
Width: 692
GlyphClass: 2
Flags: W
HStem: -20 365<228.131 462.878> 1490 20G<216.5 475.5>
VStem: 166 360<42.5657 282.578 1152.47 1500.67> 215 262<405.574 838.155>
LayerCount: 2
Fore
SplineSet
346 -20 m 0,0,1
 270 -20 270 -20 218 34 c 128,-1,2
 166 88 166 88 166 162 c 0,3,4
 166 238 166 238 218 291 c 0,5,6
 271 345 271 345 346 345 c 128,-1,7
 421 345 421 345 473.5 291.5 c 128,-1,8
 526 238 526 238 526 163 c 128,-1,9
 526 88 526 88 473 34 c 128,-1,10
 420 -20 420 -20 346 -20 c 0,0,1
256 1510 m 2,11,-1
 436 1510 l 2,12,13
 515 1510 515 1510 515 1431 c 1,14,-1
 477 479 l 2,15,16
 474 400 474 400 396 400 c 2,17,-1
 296 400 l 2,18,19
 218 400 218 400 215 479 c 2,20,-1
 177 1431 l 1,21,22
 177 1510 177 1510 256 1510 c 2,11,-1
EndSplineSet
Validated: 1
EndChar

StartChar: quotedbl
Encoding: 34 34 5
Width: 736
GlyphClass: 2
Flags: W
HStem: 1150 420<179.906 273.344 499.906 593.344>
VStem: 56 627
LayerCount: 2
Fore
SplineSet
237 1570 m 0,0,1
 260 1570 260 1570 269 1540 c 2,2,-1
 363 1240 l 2,3,4
 366 1230 366 1230 366 1224 c 0,5,6
 366 1201 366 1201 337 1190 c 2,7,-1
 240 1154 l 2,8,9
 229 1150 229 1150 222 1150 c 0,10,11
 199 1150 199 1150 186 1178 c 2,12,-1
 56 1459 l 2,13,14
 50 1472 50 1472 50 1483 c 0,15,16
 50 1506 50 1506 79 1516 c 2,17,-1
 219 1566 l 2,18,19
 230 1570 230 1570 237 1570 c 0,0,1
557 1570 m 0,20,21
 580 1570 580 1570 589 1540 c 2,22,-1
 683 1240 l 2,23,24
 686 1230 686 1230 686 1224 c 0,25,26
 686 1201 686 1201 657 1190 c 2,27,-1
 560 1154 l 2,28,29
 549 1150 549 1150 542 1150 c 0,30,31
 519 1150 519 1150 506 1178 c 2,32,-1
 376 1459 l 2,33,34
 370 1472 370 1472 370 1483 c 0,35,36
 370 1506 370 1506 399 1516 c 2,37,-1
 539 1566 l 2,38,39
 550 1570 550 1570 557 1570 c 0,20,21
EndSplineSet
Validated: 1
EndChar

StartChar: numbersign
Encoding: 35 35 6
Width: 1254
GlyphClass: 2
Flags: W
HStem: 488 190<90 361 551 703 893 1164> 829 190<90 361 551 703 893 1164>
VStem: 361 190<216 488 678 829 1019 1289.99> 703 190<216.011 488 678 829 1019 1289.99>
LayerCount: 2
Fore
SplineSet
407 1290 m 2,0,-1
 507 1290 l 2,1,2
 551 1290 551 1290 551 1246 c 2,3,-1
 551 1019 l 1,4,-1
 703 1019 l 1,5,-1
 703 1246 l 2,6,7
 703 1290 703 1290 747 1290 c 2,8,-1
 847 1290 l 2,9,10
 893 1290 893 1290 893 1246 c 2,11,-1
 893 1019 l 1,12,-1
 1119 1019 l 2,13,14
 1164 1019 1164 1019 1164 974 c 2,15,-1
 1164 874 l 2,16,17
 1164 829 1164 829 1119 829 c 2,18,-1
 893 829 l 1,19,-1
 893 678 l 1,20,-1
 1119 678 l 2,21,22
 1164 678 1164 678 1164 633 c 2,23,-1
 1164 533 l 2,24,25
 1164 488 1164 488 1119 488 c 2,26,-1
 893 488 l 1,27,-1
 893 262 l 2,28,29
 893 216 893 216 847 216 c 2,30,-1
 747 216 l 2,31,32
 703 216 703 216 703 262 c 2,33,-1
 703 488 l 1,34,-1
 551 488 l 1,35,-1
 551 262 l 2,36,37
 551 216 551 216 507 216 c 2,38,-1
 405 216 l 2,39,40
 361 216 361 216 361 262 c 2,41,-1
 361 488 l 1,42,-1
 135 488 l 2,43,44
 90 488 90 488 90 533 c 2,45,-1
 90 634 l 2,46,47
 90 678 90 678 135 678 c 2,48,-1
 361 678 l 1,49,-1
 361 829 l 1,50,-1
 135 829 l 2,51,52
 90 829 90 829 90 874 c 2,53,-1
 90 975 l 2,54,55
 90 1019 90 1019 135 1019 c 2,56,-1
 361 1019 l 1,57,-1
 361 1246 l 2,58,59
 361 1290 361 1290 407 1290 c 2,0,-1
551 678 m 1,60,-1
 703 678 l 1,61,-1
 703 829 l 1,62,-1
 551 829 l 1,63,-1
 551 678 l 1,60,-1
EndSplineSet
Validated: 1
EndChar

StartChar: dollar
Encoding: 36 36 7
Width: 1251
GlyphClass: 2
Flags: W
HStem: -20 300<408.621 572>
VStem: 190 319<1074.83 1231.8> 572 130<-180 -20 300 650 1059 1238 1521.43 1690> 846 325<366.797 588.692>
LayerCount: 2
Fore
SplineSet
702 300 m 1,0,1
 746 316 746 316 780 344 c 0,2,3
 846 399 846 399 846 482 c 0,4,5
 846 590 846 590 716 644 c 2,6,-1
 702 650 l 1,7,-1
 702 300 l 1,0,1
702 1527 m 1,8,9
 896 1508 896 1508 1012 1371 c 0,10,11
 1033 1346 1033 1346 1033 1319 c 0,12,13
 1033 1287 1033 1287 997 1260 c 2,14,-1
 872 1166 l 2,15,16
 845 1146 845 1146 819 1146 c 0,17,18
 783 1146 783 1146 762 1181 c 0,19,20
 738 1220 738 1220 702 1238 c 1,21,-1
 702 995 l 1,22,-1
 874 924 l 2,23,24
 1171 802 1171 802 1171 498 c 0,25,26
 1171 311 1171 311 1032 158 c 0,27,28
 907 21 907 21 702 -11 c 1,29,-1
 702 -145 l 2,30,31
 702 -180 702 -180 667 -180 c 2,32,-1
 607 -180 l 2,33,34
 572 -180 572 -180 572 -145 c 2,35,-1
 572 -20 l 1,36,37
 278 -20 278 -20 91 203 c 0,38,39
 70 228 70 228 70 255 c 0,40,41
 70 287 70 287 106 314 c 2,42,-1
 231 408 l 2,43,44
 258 428 258 428 284 428 c 0,45,46
 320 428 320 428 341 393 c 0,47,48
 409 282 409 282 572 280 c 1,49,-1
 572 704 l 1,50,-1
 484 740 l 2,51,52
 190 862 190 862 190 1124 c 0,53,54
 190 1324 190 1324 351 1447 c 0,55,56
 439 1514 439 1514 572 1527 c 1,57,-1
 572 1655 l 2,58,59
 572 1690 572 1690 607 1690 c 2,60,-1
 667 1690 l 2,61,62
 702 1690 702 1690 702 1655 c 2,63,-1
 702 1527 l 1,8,9
572 1242 m 1,64,65
 551 1234 551 1234 536 1220 c 0,66,67
 509 1194 509 1194 509 1158 c 0,68,69
 509 1105 509 1105 572 1059 c 1,70,-1
 572 1242 l 1,64,65
EndSplineSet
Validated: 1
EndChar

StartChar: percent
Encoding: 37 37 8
Width: 1786
GlyphClass: 2
Flags: W
HStem: -20 205<1239.83 1433.27> 516 206<1240.49 1433.93> 788 206<352.069 545.512> 1325 205<352.73 546.173>
VStem: 80 228<1041.02 1278.79> 589 228<1039.71 1279.83> 969 228<230.173 470.291> 1478 228<231.209 468.981>
DStem2: 369 129 593 0 0.512391 0.858752<-42.1899 1653.77>
LayerCount: 2
Fore
SplineSet
1336 185 m 128,-1,1
 1396 185 1396 185 1437 232.5 c 128,-1,2
 1478 280 1478 280 1478 350.5 c 128,-1,3
 1478 421 1478 421 1437 468.5 c 128,-1,4
 1396 516 1396 516 1336 516 c 128,-1,5
 1276 516 1276 516 1236.5 468.5 c 128,-1,6
 1197 421 1197 421 1197 350.5 c 128,-1,7
 1197 280 1197 280 1236.5 232.5 c 128,-1,0
 1276 185 1276 185 1336 185 c 128,-1,1
1337 -20 m 0,8,9
 1182 -20 1182 -20 1077 89 c 0,10,11
 969 199 969 199 969 352 c 0,12,13
 969 506 969 506 1077 613 c 0,14,15
 1185 722 1185 722 1337 722 c 0,16,17
 1492 722 1492 722 1598 613 c 0,18,19
 1706 502 1706 502 1706 350 c 0,20,21
 1706 196 1706 196 1598 89 c 0,22,23
 1489 -20 1489 -20 1337 -20 c 0,8,9
450 1325 m 128,-1,25
 390 1325 390 1325 349 1277.5 c 128,-1,26
 308 1230 308 1230 308 1159.5 c 128,-1,27
 308 1089 308 1089 349 1041.5 c 128,-1,28
 390 994 390 994 450 994 c 128,-1,29
 510 994 510 994 549.5 1041.5 c 128,-1,30
 589 1089 589 1089 589 1159.5 c 128,-1,31
 589 1230 589 1230 549.5 1277.5 c 128,-1,24
 510 1325 510 1325 450 1325 c 128,-1,25
449 1530 m 0,32,33
 604 1530 604 1530 709 1421 c 0,34,35
 817 1311 817 1311 817 1158 c 0,36,37
 817 1004 817 1004 709 897 c 0,38,39
 601 788 601 788 449 788 c 0,40,41
 294 788 294 788 188 897 c 0,42,43
 80 1008 80 1008 80 1160 c 0,44,45
 80 1314 80 1314 188 1421 c 0,46,47
 297 1530 297 1530 449 1530 c 0,32,33
1250 1550 m 0,48,49
 1269 1550 1269 1550 1292 1537 c 2,50,-1
 1390 1481 l 2,51,52
 1429 1459 1429 1459 1429 1423 c 0,53,54
 1429 1401 1429 1401 1417 1381 c 2,55,-1
 593 0 l 2,56,57
 569 -40 569 -40 538 -40 c 0,58,59
 516 -40 516 -40 493 -27 c 2,60,-1
 395 29 l 2,61,62
 356 51 356 51 356 87 c 0,63,64
 356 107 356 107 369 129 c 2,65,-1
 1193 1510 l 2,66,67
 1217 1550 1217 1550 1250 1550 c 0,48,49
EndSplineSet
Validated: 1
EndChar

StartChar: quotesingle
Encoding: 39 39 9
Width: 416
GlyphClass: 2
Flags: W
HStem: 1150 420<179.906 273.344>
VStem: 50 316
LayerCount: 2
Fore
SplineSet
237 1570 m 0,0,1
 260 1570 260 1570 269 1540 c 2,2,-1
 363 1240 l 2,3,4
 366 1230 366 1230 366 1224 c 0,5,6
 366 1201 366 1201 337 1190 c 2,7,-1
 240 1154 l 2,8,9
 229 1150 229 1150 222 1150 c 0,10,11
 199 1150 199 1150 186 1178 c 2,12,-1
 56 1459 l 2,13,14
 50 1472 50 1472 50 1483 c 0,15,16
 50 1506 50 1506 79 1516 c 2,17,-1
 219 1566 l 2,18,19
 230 1570 230 1570 237 1570 c 0,0,1
EndSplineSet
Validated: 1
EndChar

StartChar: parenleft
Encoding: 40 40 10
Width: 749
GlyphClass: 2
Flags: W
VStem: 140 300<397.626 1112.37>
LayerCount: 2
Fore
SplineSet
535 -250 m 2,0,1
 467 -250 467 -250 427 -186 c 0,2,3
 140 273 140 273 140 755 c 128,-1,4
 140 1237 140 1237 427 1696 c 0,5,6
 467 1760 467 1760 535 1760 c 2,7,-1
 674 1760 l 2,8,9
 729 1760 729 1760 729 1716 c 0,10,11
 729 1698 729 1698 719 1681 c 0,12,13
 440 1207 440 1207 440 755 c 128,-1,14
 440 303 440 303 719 -171 c 16,15,16
 729 -188 729 -188 729 -206 c 0,17,18
 729 -250 729 -250 674 -250 c 2,19,-1
 535 -250 l 2,0,1
EndSplineSet
Validated: 1
EndChar

StartChar: parenright
Encoding: 41 41 11
Width: 749
GlyphClass: 2
Flags: W
VStem: 309 300<397.626 1112.37>
LayerCount: 2
Fore
SplineSet
214 -250 m 2,0,1
 75 -250 l 2,2,3
 20 -250 20 -250 20 -206 c 0,4,5
 20 -188 20 -188 30 -171 c 8,6,7
 309 303 309 303 309 755 c 128,-1,8
 309 1207 309 1207 30 1681 c 0,9,10
 20 1698 20 1698 20 1716 c 0,11,12
 20 1760 20 1760 75 1760 c 2,13,-1
 214 1760 l 2,14,15
 282 1760 282 1760 322 1696 c 0,16,17
 609 1237 609 1237 609 755 c 128,-1,18
 609 273 609 273 322 -186 c 0,19,20
 282 -250 282 -250 214 -250 c 2,0,1
EndSplineSet
Validated: 1
EndChar

StartChar: asterisk
Encoding: 42 42 12
Width: 862
GlyphClass: 2
Flags: W
HStem: 1490 20G<358 503>
VStem: 336 190<707.011 944 1273 1509.99>
DStem2: 169 1370 74 1205 0.865554 -0.500815<-24.8189 193.127 522.444 741.16> 241 1108 336 944 0.865554 0.500815<-217.851 0 329.317 548.629>
LayerCount: 2
Fore
SplineSet
380 1510 m 2,0,-1
 480 1510 l 2,1,2
 526 1510 526 1510 526 1466 c 2,3,-1
 526 1273 l 1,4,-1
 693 1370 l 2,5,6
 707 1378 707 1378 719 1378 c 0,7,8
 739 1378 739 1378 753 1353 c 2,9,-1
 803 1267 l 2,10,11
 812 1252 812 1252 812 1239 c 0,12,13
 812 1218 812 1218 788 1205 c 2,14,-1
 621 1108 l 1,15,-1
 786 1013 l 2,16,17
 812 998 812 998 812 977 c 0,18,19
 812 965 812 965 803 950 c 2,20,-1
 753 864 l 2,21,22
 739 840 739 840 719 840 c 0,23,24
 707 840 707 840 691 848 c 2,25,-1
 526 944 l 1,26,-1
 526 753 l 2,27,28
 526 707 526 707 480 707 c 2,29,-1
 380 707 l 2,30,31
 336 707 336 707 336 753 c 2,32,-1
 336 944 l 1,33,-1
 171 848 l 2,34,35
 156 840 156 840 144 840 c 0,36,37
 123 840 123 840 108 865 c 2,38,-1
 58 952 l 2,39,40
 50 966 50 966 50 977 c 0,41,42
 50 998 50 998 76 1013 c 2,43,-1
 241 1108 l 1,44,-1
 74 1205 l 2,45,46
 50 1219 50 1219 50 1239 c 0,47,48
 50 1251 50 1251 58 1265 c 2,49,-1
 108 1352 l 2,50,51
 122 1377 122 1377 144 1377 c 0,52,53
 156 1377 156 1377 169 1370 c 2,54,-1
 336 1273 l 1,55,-1
 336 1466 l 2,56,57
 336 1510 336 1510 380 1510 c 2,0,-1
EndSplineSet
Validated: 1
EndChar

StartChar: plus
Encoding: 43 43 13
Width: 1133
GlyphClass: 2
Flags: W
HStem: 630 250<91.9202 442 692 1041.08>
VStem: 442 250<280.32 630 880 1229.68>
LayerCount: 2
Fore
SplineSet
506 1232 m 2,0,-1
 626 1232 l 2,1,2
 692 1232 692 1232 692 1166 c 2,3,-1
 692 880 l 1,4,-1
 978 880 l 2,5,6
 1043 880 1043 880 1043 815 c 2,7,-1
 1043 695 l 2,8,9
 1043 630 1043 630 978 630 c 2,10,-1
 692 630 l 1,11,-1
 692 344 l 2,12,13
 692 278 692 278 626 278 c 2,14,-1
 506 278 l 2,15,16
 442 278 442 278 442 344 c 2,17,-1
 442 630 l 1,18,-1
 155 630 l 2,19,20
 90 630 90 630 90 695 c 2,21,-1
 90 815 l 2,22,23
 90 880 90 880 155 880 c 2,24,-1
 442 880 l 1,25,-1
 442 1166 l 2,26,27
 442 1232 442 1232 506 1232 c 2,0,-1
EndSplineSet
Validated: 1
EndChar

StartChar: comma
Encoding: 44 44 14
Width: 415
GlyphClass: 2
Flags: W
HStem: -317 637<130.438 235.822>
VStem: 130 235<-156.105 136.144>
LayerCount: 2
Fore
SplineSet
216 320 m 128,-1,1
 238 320 238 320 263 297 c 0,2,3
 365 203 365 203 365 32 c 0,4,5
 365 -157 365 -157 213 -296 c 0,6,7
 190 -317 190 -317 167 -317 c 0,8,9
 149 -317 149 -317 129 -302 c 2,10,-1
 72 -259 l 2,11,12
 52 -244 52 -244 52 -226 c 0,13,14
 52 -210 52 -210 67 -195 c 0,15,16
 130 -132 130 -132 130 -12 c 0,17,18
 130 94 130 94 75 149 c 0,19,20
 50 174 50 174 50 195 c 0,21,22
 50 221 50 221 83 244 c 2,23,-1
 175 307 l 2,24,0
 194 320 194 320 216 320 c 128,-1,1
EndSplineSet
Validated: 1
EndChar

StartChar: hyphen
Encoding: 45 45 15
Width: 1133
GlyphClass: 2
Flags: W
HStem: 630 250<91.9202 1041.08>
LayerCount: 2
Fore
SplineSet
155 880 m 2,0,-1
 978 880 l 2,1,2
 1043 880 1043 880 1043 815 c 2,3,-1
 1043 695 l 2,4,5
 1043 630 1043 630 978 630 c 2,6,-1
 155 630 l 2,7,8
 90 630 90 630 90 695 c 2,9,-1
 90 815 l 2,10,11
 90 880 90 880 155 880 c 2,0,-1
EndSplineSet
Validated: 1
EndChar

StartChar: period
Encoding: 46 46 16
Width: 460
GlyphClass: 2
Flags: W
HStem: -20 365<112.131 346.878>
VStem: 50 360<42.5657 282.578>
LayerCount: 2
Fore
SplineSet
230 -20 m 0,0,1
 154 -20 154 -20 102 34 c 128,-1,2
 50 88 50 88 50 162 c 0,3,4
 50 238 50 238 102 291 c 0,5,6
 155 345 155 345 230 345 c 128,-1,7
 305 345 305 345 357.5 291.5 c 128,-1,8
 410 238 410 238 410 163 c 128,-1,9
 410 88 410 88 357 34 c 128,-1,10
 304 -20 304 -20 230 -20 c 0,0,1
EndSplineSet
Validated: 1
EndChar

StartChar: slash
Encoding: 47 47 17
Width: 1194
GlyphClass: 2
Flags: W
DStem2: 23 19 247 -110 0.4998 0.866141<-42.3586 1892.77>
LayerCount: 2
Fore
SplineSet
1005 1662 m 0,0,1
 1024 1662 1024 1662 1047 1649 c 2,2,-1
 1145 1593 l 2,3,4
 1184 1571 1184 1571 1184 1535 c 0,5,6
 1184 1514 1184 1514 1172 1493 c 2,7,-1
 247 -110 l 2,8,9
 224 -150 224 -150 192 -150 c 0,10,11
 170 -150 170 -150 147 -137 c 2,12,-1
 49 -81 l 2,13,14
 10 -59 10 -59 10 -23 c 0,15,16
 10 -4 10 -4 23 19 c 2,17,-1
 948 1622 l 2,18,19
 971 1662 971 1662 1005 1662 c 0,0,1
EndSplineSet
Validated: 1
EndChar

StartChar: zero
Encoding: 48 48 18
Width: 1574
GlyphClass: 2
Flags: W
HStem: -20 300<610.318 969.35> 1230 300<604.859 963.884>
VStem: 70 329<517.207 992.097> 1175 329<518.379 993.027>
LayerCount: 2
Fore
SplineSet
788 280 m 0,0,1
 961 280 961 280 1063 404 c 0,2,3
 1175 540 1175 540 1175 755 c 0,4,5
 1175 976 1175 976 1063 1106 c 0,6,7
 957 1230 957 1230 786 1230 c 0,8,9
 613 1230 613 1230 511 1106 c 24,10,11
 399 970 399 970 399 755 c 0,12,13
 399 535 399 535 511 404 c 0,14,15
 617 280 617 280 788 280 c 0,0,1
787 -20 m 128,-1,17
 459 -20 459 -20 261 211 c 0,18,19
 70 435 70 435 70 755 c 0,20,21
 70 1077 70 1077 261 1299 c 0,22,23
 460 1530 460 1530 787 1530 c 0,24,25
 1116 1530 1116 1530 1313 1299 c 0,26,27
 1504 1075 1504 1075 1504 755 c 128,-1,28
 1504 435 1504 435 1313 211 c 0,29,16
 1115 -20 1115 -20 787 -20 c 128,-1,17
EndSplineSet
Validated: 1
EndChar

StartChar: one
Encoding: 49 49 19
Width: 760
GlyphClass: 2
Flags: W
HStem: 0 21G<290 530> 1210 300<25 250>
VStem: 250 320<4.9375 1210>
LayerCount: 2
Fore
SplineSet
490 0 m 2,0,-1
 330 0 l 2,1,2
 250 0 250 0 250 79 c 2,3,-1
 250 1210 l 1,4,-1
 100 1210 l 2,5,6
 20 1210 20 1210 20 1289 c 2,7,-1
 20 1431 l 2,8,9
 20 1510 20 1510 100 1510 c 2,10,-1
 490 1510 l 2,11,12
 570 1510 570 1510 570 1431 c 2,13,-1
 570 79 l 2,14,15
 570 0 570 0 490 0 c 2,0,-1
EndSplineSet
Validated: 1
EndChar

StartChar: two
Encoding: 50 50 20
Width: 1193
GlyphClass: 2
Flags: W
HStem: 0 300<556 1118> 1230 300<397.144 713.28>
VStem: 794 325<860.165 1151.06>
DStem2: 608 699 556 300 0.775933 0.630816<-292.044 232.358>
LayerCount: 2
Fore
SplineSet
1043 0 m 2,0,-1
 130 0 l 2,1,2
 50 0 50 0 50 79 c 2,3,-1
 50 204 l 2,4,5
 50 245 50 245 84 273 c 2,6,-1
 608 699 l 2,7,8
 794 850 794 850 794 1018 c 0,9,10
 794 1108 794 1108 743 1160 c 0,11,12
 675 1230 675 1230 555 1230 c 0,13,14
 453 1230 453 1230 379 1175 c 0,15,16
 350 1153 350 1153 333 1126 c 0,17,18
 305 1081 305 1081 274 1081 c 0,19,20
 250 1081 250 1081 228 1092 c 2,21,-1
 88 1163 l 2,22,23
 40 1187 40 1187 40 1224 c 0,24,25
 40 1243 40 1243 55 1269 c 0,26,27
 84 1319 84 1319 153 1382 c 0,28,29
 314 1530 314 1530 555 1530 c 0,30,31
 813 1530 813 1530 969 1377 c 0,32,33
 1119 1230 1119 1230 1119 1015 c 0,34,35
 1119 714 1119 714 825 498 c 2,36,-1
 556 300 l 1,37,-1
 1043 300 l 2,38,39
 1123 300 1123 300 1123 221 c 2,40,-1
 1123 79 l 2,41,42
 1123 0 1123 0 1043 0 c 2,0,-1
EndSplineSet
Validated: 1
EndChar

StartChar: three
Encoding: 51 51 21
Width: 1159
GlyphClass: 2
Flags: W
HStem: -20 300<377.144 688.95> 1210 300<124 573>
VStem: 779 320<364.645 621.175>
LayerCount: 2
Fore
SplineSet
535 -20 m 0,0,1
 294 -20 294 -20 133 128 c 0,2,3
 64 191 64 191 35 241 c 0,4,5
 20 267 20 267 20 286 c 0,6,7
 20 323 20 323 68 347 c 2,8,-1
 208 418 l 2,9,10
 230 429 230 429 254 429 c 0,11,12
 285 429 285 429 313 384 c 0,13,14
 330 357 330 357 359 335 c 0,15,16
 433 280 433 280 535 280 c 0,17,18
 650 280 650 280 723 350 c 0,19,20
 779 403 779 403 779 492 c 0,21,22
 779 582 779 582 725 633 c 0,23,24
 657 697 657 697 535 697 c 2,25,-1
 293 697 l 2,26,27
 238 697 238 697 238 741 c 0,28,29
 238 763 238 763 253 783 c 2,30,-1
 573 1210 l 1,31,-1
 199 1210 l 2,32,33
 119 1210 119 1210 119 1289 c 2,34,-1
 119 1431 l 2,35,36
 119 1510 119 1510 199 1510 c 2,37,-1
 877 1510 l 2,38,39
 957 1510 957 1510 957 1431 c 2,40,-1
 957 1289 l 2,41,42
 957 1255 957 1255 934 1225 c 2,43,-1
 737 970 l 1,44,45
 851 935 851 935 938 858 c 0,46,47
 1099 716 1099 716 1099 495 c 0,48,49
 1099 280 1099 280 949 133 c 0,50,51
 793 -20 793 -20 535 -20 c 0,0,1
EndSplineSet
Validated: 1
EndChar

StartChar: four
Encoding: 52 52 22
Width: 1188
GlyphClass: 2
Flags: W
HStem: 0 21G<768 1008> 255 300<389 728> 1080 20G<768 1008> 1490 20G<498 744>
VStem: 728 320<4.9375 255 555 1095.06>
DStem2: 36 523 389 555 0.392596 0.919711<168.017 1088.09>
LayerCount: 2
Fore
SplineSet
808 0 m 2,0,1
 728 0 728 0 728 79 c 2,2,-1
 728 255 l 1,3,-1
 100 255 l 2,4,5
 20 255 20 255 20 334 c 2,6,-1
 20 449 l 2,7,8
 20 486 20 486 36 523 c 2,9,-1
 430 1446 l 2,10,11
 457 1510 457 1510 539 1510 c 2,12,-1
 717 1510 l 2,13,14
 771 1510 771 1510 771 1466 c 0,15,16
 771 1455 771 1455 761 1431 c 2,17,-1
 389 555 l 1,18,-1
 728 555 l 1,19,-1
 728 1021 l 2,20,21
 728 1100 728 1100 808 1100 c 2,22,-1
 968 1100 l 2,23,24
 1048 1100 1048 1100 1048 1021 c 2,25,-1
 1048 79 l 2,26,27
 1048 0 1048 0 968 0 c 2,28,-1
 808 0 l 2,0,1
EndSplineSet
Validated: 1
EndChar

StartChar: five
Encoding: 53 53 23
Width: 1199
GlyphClass: 2
Flags: W
HStem: -20 300<417.144 728.95> 697 301<500 740.03> 1210 300<500 1006>
VStem: 183 317<998 1210> 819 320<364.645 620.758>
LayerCount: 2
Fore
SplineSet
575 -20 m 0,0,1
 334 -20 334 -20 173 128 c 0,2,3
 104 191 104 191 75 241 c 0,4,5
 60 267 60 267 60 286 c 0,6,7
 60 323 60 323 108 347 c 2,8,-1
 248 418 l 2,9,10
 270 429 270 429 294 429 c 0,11,12
 325 429 325 429 353 384 c 0,13,14
 370 357 370 357 399 335 c 0,15,16
 473 280 473 280 575 280 c 0,17,18
 690 280 690 280 763 350 c 0,19,20
 819 403 819 403 819 492 c 0,21,22
 819 582 819 582 765 633 c 0,23,24
 697 697 697 697 575 697 c 2,25,-1
 263 697 l 2,26,27
 183 697 183 697 183 776 c 2,28,-1
 183 1431 l 2,29,30
 183 1510 183 1510 263 1510 c 2,31,-1
 931 1510 l 2,32,33
 1011 1510 1011 1510 1011 1431 c 2,34,-1
 1011 1289 l 2,35,36
 1011 1210 1011 1210 931 1210 c 2,37,-1
 500 1210 l 1,38,-1
 500 998 l 1,39,-1
 575 998 l 2,40,41
 821 998 821 998 978 858 c 0,42,43
 1139 714 1139 714 1139 495 c 0,44,45
 1139 280 1139 280 989 133 c 0,46,47
 833 -20 833 -20 575 -20 c 0,0,1
EndSplineSet
Validated: 1
EndChar

StartChar: six
Encoding: 54 54 24
Width: 1271
GlyphClass: 2
Flags: W
HStem: -20 300<488.149 781.525> 729 297<612.984 780.318> 1490 20G<609.5 870.5>
VStem: 70 323<371.688 637.74> 879 322<371.795 636.773>
DStem2: 536 1446 611 1014 0.517494 0.855687<-330.845 99.8347>
LayerCount: 2
Fore
SplineSet
635 -20 m 0,0,1
 402 -20 402 -20 237 127 c 0,2,3
 70 276 70 276 70 495 c 0,4,5
 70 675 70 675 181 859 c 2,6,-1
 536 1446 l 2,7,8
 575 1510 575 1510 644 1510 c 2,9,-1
 843 1510 l 2,10,11
 898 1510 898 1510 898 1466 c 0,12,13
 898 1446 898 1446 888 1431 c 2,14,-1
 611 1014 l 1,15,16
 653 1026 653 1026 694 1026 c 0,17,18
 895 1026 895 1026 1045 880 c 0,19,20
 1201 728 1201 728 1201 505 c 0,21,22
 1201 278 1201 278 1035 129 c 128,-1,23
 869 -20 869 -20 635 -20 c 0,0,1
634.5 280 m 128,-1,25
 734 280 734 280 808 344 c 0,26,27
 879 406 879 406 879 504 c 0,28,29
 879 603 879 603 807 665 c 0,30,31
 734 729 734 729 635 729 c 128,-1,32
 536 729 536 729 463 666 c 0,33,34
 393 604 393 604 393 504 c 0,35,36
 393 406 393 406 464 343 c 128,-1,24
 535 280 535 280 634.5 280 c 128,-1,25
EndSplineSet
Validated: 1
EndChar

StartChar: seven
Encoding: 55 55 25
Width: 1029
GlyphClass: 2
Flags: W
HStem: 0 21G<176 422> 1210 300<25 640>
DStem2: 159 79 490 64 0.392694 0.919669<31.6652 1229.03>
LayerCount: 2
Fore
SplineSet
381 0 m 2,0,-1
 203 0 l 2,1,2
 149 0 149 0 149 44 c 0,3,4
 149 55 149 55 159 79 c 2,5,-1
 640 1210 l 1,6,-1
 100 1210 l 2,7,8
 20 1210 20 1210 20 1289 c 2,9,-1
 20 1431 l 2,10,11
 20 1510 20 1510 100 1510 c 2,12,-1
 929 1510 l 2,13,14
 1009 1510 1009 1510 1009 1431 c 2,15,-1
 1009 1316 l 2,16,17
 1009 1279 1009 1279 993 1242 c 2,18,-1
 490 64 l 2,19,20
 463 0 463 0 381 0 c 2,0,-1
EndSplineSet
Validated: 1
EndChar

StartChar: eight
Encoding: 56 56 26
Width: 1210
GlyphClass: 2
Flags: W
HStem: -20 293<452.62 759.073> 686 271<474.693 733.368> 1264 266<475.378 735.705>
VStem: 40 322<358.747 602.165> 131 289<1008.95 1212.26> 789 290<1008.34 1212.73> 848 322<356.422 601.526>
LayerCount: 2
Fore
SplineSet
604 1264 m 0,0,1
 525 1264 525 1264 473 1220 c 0,2,3
 420 1175 420 1175 420 1110 c 0,4,5
 420 1043 420 1043 473 1000 c 0,6,7
 527 957 527 957 604 957 c 0,8,9
 683 957 683 957 735 999 c 0,10,11
 789 1045 789 1045 789 1111 c 0,12,13
 789 1178 789 1178 736 1220 c 0,14,15
 682 1264 682 1264 604 1264 c 0,0,1
605.5 686 m 128,-1,17
 504 686 504 686 432 627 c 0,18,19
 362 568 362 568 362 480 c 0,20,21
 362 391 362 391 432 332 c 0,22,23
 504 273 504 273 606 273 c 0,24,25
 712 273 712 273 778 331 c 0,26,27
 848 391 848 391 848 480 c 0,28,29
 848 572 848 572 778 628 c 0,30,16
 707 686 707 686 605.5 686 c 128,-1,17
605 -20 m 0,31,32
 371 -20 371 -20 207 120 c 0,33,34
 40 262 40 262 40 474 c 0,35,36
 40 706 40 706 209 833 c 0,37,38
 224 844 224 844 239 853 c 1,39,40
 131 957 131 957 131 1111 c 0,41,42
 131 1289 131 1289 270 1410 c 0,43,44
 409 1530 409 1530 603 1530 c 0,45,46
 800 1530 800 1530 939 1411 c 0,47,48
 1079 1290 1079 1290 1079 1111 c 0,49,50
 1079 961 1079 961 971 855 c 1,51,52
 988 843 988 843 1003 831 c 0,53,54
 1170 694 1170 694 1170 478 c 128,-1,55
 1170 262 1170 262 1004 120 c 0,56,57
 838 -20 838 -20 605 -20 c 0,31,32
EndSplineSet
Validated: 1
EndChar

StartChar: nine
Encoding: 57 57 27
Width: 1271
GlyphClass: 2
Flags: W
HStem: 0 21G<400.5 661.5> 484 297<490.682 661.031> 1230 300<489.475 782.851>
VStem: 70 322<873.227 1138.21> 878 323<872.26 1138.31>
DStem2: 383 79 735 64 0.517494 0.855687<69.4878 501.72>
LayerCount: 2
Fore
SplineSet
627 0 m 2,0,-1
 428 0 l 2,1,2
 373 0 373 0 373 44 c 0,3,4
 373 64 373 64 383 79 c 2,5,-1
 663 496 l 1,6,7
 622 484 622 484 577 484 c 0,8,9
 376 484 376 484 226 630 c 0,10,11
 70 782 70 782 70 1005 c 0,12,13
 70 1232 70 1232 236 1381 c 128,-1,14
 402 1530 402 1530 636 1530 c 0,15,16
 869 1530 869 1530 1034 1383 c 0,17,18
 1201 1234 1201 1234 1201 1015 c 0,19,20
 1201 835 1201 835 1090 651 c 2,21,-1
 735 64 l 2,22,23
 696 0 696 0 627 0 c 2,0,-1
636.5 1230 m 128,-1,25
 537 1230 537 1230 463 1166 c 0,26,27
 392 1104 392 1104 392 1006 c 0,28,29
 392 907 392 907 464 845 c 0,30,31
 537 781 537 781 636 781 c 128,-1,32
 735 781 735 781 808 844 c 0,33,34
 878 906 878 906 878 1006 c 0,35,36
 878 1104 878 1104 807 1167 c 128,-1,24
 736 1230 736 1230 636.5 1230 c 128,-1,25
EndSplineSet
Validated: 1
EndChar

StartChar: colon
Encoding: 58 58 28
Width: 460
GlyphClass: 2
Flags: W
HStem: -20 365<112.131 346.878> 573 365<112.131 346.878>
VStem: 50 360<42.5657 282.578 635.566 875.578>
LayerCount: 2
Fore
SplineSet
230 938 m 128,-1,1
 305 938 305 938 357.5 884.5 c 128,-1,2
 410 831 410 831 410 756 c 128,-1,3
 410 681 410 681 357 627 c 128,-1,4
 304 573 304 573 230 573 c 0,5,6
 154 573 154 573 102 627 c 128,-1,7
 50 681 50 681 50 755 c 0,8,9
 50 831 50 831 102 884 c 0,10,0
 155 938 155 938 230 938 c 128,-1,1
230 -20 m 0,11,12
 154 -20 154 -20 102 34 c 128,-1,13
 50 88 50 88 50 162 c 0,14,15
 50 238 50 238 102 291 c 0,16,17
 155 345 155 345 230 345 c 128,-1,18
 305 345 305 345 357.5 291.5 c 128,-1,19
 410 238 410 238 410 163 c 128,-1,20
 410 88 410 88 357 34 c 128,-1,21
 304 -20 304 -20 230 -20 c 0,11,12
EndSplineSet
Validated: 1
EndChar

StartChar: semicolon
Encoding: 59 59 29
Width: 487
GlyphClass: 2
Flags: W
HStem: 573 365<132.131 366.878>
VStem: 70 360<635.566 875.578> 202 235<-156.105 136.144>
LayerCount: 2
Fore
SplineSet
288 320 m 128,-1,1
 310 320 310 320 335 297 c 0,2,3
 437 203 437 203 437 32 c 0,4,5
 437 -157 437 -157 285 -296 c 0,6,7
 262 -317 262 -317 239 -317 c 0,8,9
 221 -317 221 -317 201 -302 c 2,10,-1
 144 -259 l 2,11,12
 124 -244 124 -244 124 -226 c 0,13,14
 124 -210 124 -210 139 -195 c 0,15,16
 202 -132 202 -132 202 -12 c 0,17,18
 202 94 202 94 147 149 c 0,19,20
 122 174 122 174 122 195 c 0,21,22
 122 221 122 221 155 244 c 2,23,-1
 247 307 l 2,24,0
 266 320 266 320 288 320 c 128,-1,1
250 938 m 128,-1,26
 325 938 325 938 377.5 884.5 c 128,-1,27
 430 831 430 831 430 756 c 128,-1,28
 430 681 430 681 377 627 c 128,-1,29
 324 573 324 573 250 573 c 0,30,31
 174 573 174 573 122 627 c 128,-1,32
 70 681 70 681 70 755 c 0,33,34
 70 831 70 831 122 884 c 0,35,25
 175 938 175 938 250 938 c 128,-1,26
EndSplineSet
Validated: 1
EndChar

StartChar: less
Encoding: 60 60 30
Width: 1150
GlyphClass: 2
Flags: W
DStem2: 140 880 372 764 0.878218 0.478261<148.268 859.532> 372 764 140 639 0.878218 -0.478261<0 715.568>
LayerCount: 2
Fore
SplineSet
90 810 m 2,0,1
 90 853 90 853 140 880 c 2,2,-1
 869 1277 l 2,3,4
 886 1286 886 1286 898 1286 c 0,5,6
 922 1286 922 1286 937 1259 c 2,7,-1
 998 1152 l 2,8,9
 1008 1134 1008 1134 1008 1122 c 0,10,11
 1008 1099 1008 1099 980 1084 c 2,12,-1
 372 764 l 1,13,-1
 982 440 l 2,14,15
 1010 425 1010 425 1010 402 c 0,16,17
 1010 390 1010 390 1000 372 c 2,18,-1
 937 260 l 2,19,20
 922 233 922 233 898 233 c 0,21,22
 886 233 886 233 869 242 c 2,23,-1
 140 639 l 2,24,25
 90 666 90 666 90 709 c 2,26,-1
 90 810 l 2,0,1
EndSplineSet
Validated: 1
EndChar

StartChar: equal
Encoding: 61 61 31
Width: 1133
GlyphClass: 2
Flags: W
HStem: 430 250<91.9202 1041.08> 830 250<91.9202 1041.08>
LayerCount: 2
Fore
SplineSet
155 1080 m 2,0,-1
 978 1080 l 2,1,2
 1043 1080 1043 1080 1043 1015 c 2,3,-1
 1043 895 l 2,4,5
 1043 830 1043 830 978 830 c 2,6,-1
 155 830 l 2,7,8
 90 830 90 830 90 895 c 2,9,-1
 90 1015 l 2,10,11
 90 1080 90 1080 155 1080 c 2,0,-1
155 680 m 2,12,-1
 978 680 l 2,13,14
 1043 680 1043 680 1043 615 c 2,15,-1
 1043 495 l 2,16,17
 1043 430 1043 430 978 430 c 2,18,-1
 155 430 l 2,19,20
 90 430 90 430 90 495 c 2,21,-1
 90 615 l 2,22,23
 90 680 90 680 155 680 c 2,12,-1
EndSplineSet
Validated: 1
EndChar

StartChar: greater
Encoding: 62 62 32
Width: 1150
GlyphClass: 2
Flags: W
DStem2: 170 435 281 242 0.878218 0.478261<-24.2635 687> 1010 880 778 755 0.878218 -0.478261<-859.532 -143.964>
LayerCount: 2
Fore
SplineSet
1060 810 m 2,0,1
 1060 709 l 2,2,3
 1060 666 1060 666 1010 639 c 2,4,-1
 281 242 l 2,5,6
 264 233 264 233 252 233 c 0,7,8
 228 233 228 233 213 260 c 2,9,-1
 152 367 l 2,10,11
 142 385 142 385 142 397 c 0,12,13
 142 420 142 420 170 435 c 2,14,15
 778 755 l 1,16,-1
 168 1079 l 2,17,18
 140 1094 140 1094 140 1117 c 0,19,20
 140 1129 140 1129 150 1147 c 2,21,-1
 213 1259 l 2,22,23
 228 1286 228 1286 252 1286 c 0,24,25
 264 1286 264 1286 281 1277 c 2,26,-1
 1010 880 l 2,27,28
 1060 853 1060 853 1060 810 c 2,0,1
EndSplineSet
Validated: 1
EndChar

StartChar: question
Encoding: 63 63 33
Width: 1200
GlyphClass: 2
Flags: W
HStem: -20 365<407.131 641.878> 1121 21G<286 313> 1230 300<401.312 707.981>
VStem: 345 360<42.5657 282.578> 371 320<404.938 539.857> 789 321<918.567 1156.31>
LayerCount: 2
Fore
SplineSet
525 -20 m 0,0,1
 449 -20 449 -20 397 34 c 128,-1,2
 345 88 345 88 345 162 c 0,3,4
 345 238 345 238 397 291 c 0,5,6
 450 345 450 345 525 345 c 128,-1,7
 600 345 600 345 652.5 291.5 c 128,-1,8
 705 238 705 238 705 163 c 128,-1,9
 705 88 705 88 652 34 c 128,-1,10
 599 -20 599 -20 525 -20 c 0,0,1
555 1530 m 0,11,12
 812 1530 812 1530 969 1366 c 0,13,14
 1110 1219 1110 1219 1110 1034 c 0,15,16
 1110 765 1110 765 833 609 c 0,17,18
 691 529 691 529 691 479 c 0,19,20
 691 400 691 400 611 400 c 2,21,-1
 451 400 l 2,22,23
 371 400 371 400 371 479 c 0,24,25
 371 663 371 663 556 766 c 0,26,27
 789 896 789 896 789 1036 c 0,28,29
 789 1110 789 1110 742 1159 c 0,30,31
 675 1230 675 1230 554 1230 c 0,32,33
 436 1230 436 1230 356 1150 c 24,34,35
 327 1121 327 1121 299 1121 c 0,36,37
 273 1121 273 1121 246 1141 c 2,38,-1
 126 1231 l 2,39,40
 90 1258 90 1258 90 1290 c 0,41,42
 90 1317 90 1317 111 1342 c 0,43,44
 269 1530 269 1530 555 1530 c 0,11,12
EndSplineSet
Validated: 1
EndChar

StartChar: A
Encoding: 65 65 34
Width: 1474
GlyphClass: 2
Flags: W
HStem: 0 21G<38.5 275 1189 1435.5> 515 300<589 875> 1271 239<574 900>
DStem2: 14 77 486 515 0.324925 0.94574<9.87769 567.599 884.788 1362.51> 990 1445 732 1271 0.324925 -0.94574<80.728 558.45 875.639 1439.36>
LayerCount: 2
Fore
SplineSet
241 0 m 2,0,-1
 67 0 l 2,1,2
 10 0 10 0 10 51 c 0,3,4
 10 65 10 65 14 77 c 2,5,-1
 484 1445 l 2,6,7
 506 1510 506 1510 574 1510 c 2,8,-1
 900 1510 l 2,9,10
 968 1510 968 1510 990 1445 c 2,11,-1
 1460 77 l 2,12,13
 1464 65 1464 65 1464 52 c 0,14,15
 1464 0 1464 0 1407 0 c 2,16,-1
 1223 0 l 2,17,18
 1155 0 1155 0 1133 64 c 2,19,-1
 978 515 l 1,20,-1
 486 515 l 1,21,-1
 331 64 l 2,22,23
 309 0 309 0 241 0 c 2,0,-1
589 815 m 1,24,-1
 875 815 l 1,25,-1
 732 1271 l 1,26,-1
 589 815 l 1,24,-1
EndSplineSet
Validated: 1
EndChar

StartChar: D
Encoding: 68 68 35
Width: 1474
GlyphClass: 2
Flags: W
HStem: 0 300<460 868.242> 1210 300<460 862.025>
VStem: 140 320<300 1210> 1075 329<531.805 978.192>
LayerCount: 2
Fore
SplineSet
220 0 m 2,0,1
 140 0 140 0 140 79 c 2,2,-1
 140 1431 l 2,3,4
 140 1510 140 1510 220 1510 c 2,5,-1
 687 1510 l 2,6,7
 1017 1510 1017 1510 1213 1280 c 0,8,9
 1404 1057 1404 1057 1404 755 c 0,10,11
 1404 452 1404 452 1213 230 c 0,12,13
 1015 0 1015 0 687 0 c 2,14,-1
 220 0 l 2,0,1
460 300 m 1,15,-1
 687 300 l 2,16,17
 861 300 861 300 963 423 c 24,18,19
 1075 558 1075 558 1075 755 c 0,20,21
 1075 953 1075 953 963 1087 c 0,22,23
 860 1210 860 1210 687 1210 c 2,24,-1
 460 1210 l 1,25,-1
 460 300 l 1,15,-1
EndSplineSet
Validated: 1
EndChar

StartChar: E
Encoding: 69 69 36
Width: 1158
GlyphClass: 2
Flags: W
HStem: 0 300<460 1083> 605 300<460 887> 1210 300<460 1053>
VStem: 140 320<300 605 905 1210>
CounterMasks: 1 e0
LayerCount: 2
Fore
SplineSet
1008 0 m 2,0,-1
 220 0 l 2,1,2
 140 0 140 0 140 79 c 2,3,-1
 140 1431 l 2,4,5
 140 1510 140 1510 220 1510 c 2,6,-1
 978 1510 l 2,7,8
 1058 1510 1058 1510 1058 1431 c 2,9,-1
 1058 1289 l 2,10,11
 1058 1210 1058 1210 978 1210 c 2,12,-1
 460 1210 l 1,13,-1
 460 905 l 1,14,-1
 812 905 l 2,15,16
 892 905 892 905 892 826 c 2,17,-1
 892 684 l 2,18,19
 892 605 892 605 812 605 c 2,20,-1
 460 605 l 1,21,-1
 460 300 l 1,22,-1
 1008 300 l 2,23,24
 1088 300 1088 300 1088 221 c 2,25,-1
 1088 79 l 2,26,27
 1088 0 1088 0 1008 0 c 2,0,-1
EndSplineSet
Validated: 1
EndChar

StartChar: F
Encoding: 70 70 37
Width: 1078
GlyphClass: 2
Flags: W
HStem: 0 21G<180 420> 605 300<460 887> 1210 300<460 1053>
VStem: 140 320<4.9375 605 905 1210>
LayerCount: 2
Fore
SplineSet
380 0 m 2,0,-1
 220 0 l 2,1,2
 140 0 140 0 140 79 c 2,3,-1
 140 1431 l 2,4,5
 140 1510 140 1510 220 1510 c 2,6,-1
 978 1510 l 2,7,8
 1058 1510 1058 1510 1058 1431 c 2,9,-1
 1058 1289 l 2,10,11
 1058 1210 1058 1210 978 1210 c 2,12,-1
 460 1210 l 1,13,-1
 460 905 l 1,14,-1
 812 905 l 2,15,16
 892 905 892 905 892 826 c 2,17,-1
 892 684 l 2,18,19
 892 605 892 605 812 605 c 2,20,-1
 460 605 l 1,21,-1
 460 79 l 2,22,23
 460 0 460 0 380 0 c 2,0,-1
EndSplineSet
Validated: 1
EndChar

StartChar: H
Encoding: 72 72 38
Width: 1450
GlyphClass: 2
Flags: W
HStem: 0 21G<180 420 1030 1270> 605 300<460 990> 1490 20G<180 420 1030 1270>
VStem: 140 320<4.9375 605 905 1505.06> 990 320<4.9375 605 905 1505.06>
LayerCount: 2
Fore
SplineSet
220 0 m 2,0,1
 140 0 140 0 140 79 c 2,2,-1
 140 1431 l 2,3,4
 140 1510 140 1510 220 1510 c 2,5,-1
 380 1510 l 2,6,7
 460 1510 460 1510 460 1431 c 2,8,-1
 460 905 l 1,9,-1
 990 905 l 1,10,-1
 990 1431 l 2,11,12
 990 1510 990 1510 1070 1510 c 2,13,-1
 1230 1510 l 2,14,15
 1310 1510 1310 1510 1310 1431 c 2,16,-1
 1310 79 l 2,17,18
 1310 0 1310 0 1230 0 c 2,19,-1
 1070 0 l 2,20,21
 990 0 990 0 990 79 c 2,22,-1
 990 605 l 1,23,-1
 460 605 l 1,24,-1
 460 79 l 2,25,26
 460 0 460 0 380 0 c 2,27,-1
 220 0 l 2,0,1
EndSplineSet
Validated: 1
EndChar

StartChar: I
Encoding: 73 73 39
Width: 600
GlyphClass: 2
Flags: W
HStem: 0 21G<180 420> 1490 20G<180 420>
VStem: 140 320<4.9375 1505.06>
LayerCount: 2
Fore
SplineSet
220 0 m 2,0,1
 140 0 140 0 140 79 c 2,2,-1
 140 1431 l 2,3,4
 140 1510 140 1510 220 1510 c 2,5,-1
 380 1510 l 2,6,7
 460 1510 460 1510 460 1431 c 2,8,-1
 460 79 l 2,9,10
 460 0 460 0 380 0 c 2,11,-1
 220 0 l 2,0,1
EndSplineSet
Validated: 1
EndChar

StartChar: L
Encoding: 76 76 40
Width: 1108
GlyphClass: 2
Flags: W
HStem: 0 300<460 1083> 1490 20G<170 420>
VStem: 140 320<300 1505.06>
LayerCount: 2
Fore
SplineSet
1008 0 m 2,0,1
 200 0 l 2,2,3
 140 0 140 0 140 79 c 2,4,-1
 140 1431 l 2,5,6
 140 1510 140 1510 200 1510 c 2,7,-1
 380 1510 l 2,8,9
 460 1510 460 1510 460 1431 c 2,10,-1
 460 300 l 1,11,-1
 1008 300 l 2,12,13
 1088 300 1088 300 1088 221 c 2,14,-1
 1088 79 l 2,15,16
 1088 0 1088 0 1008 0 c 2,0,1
EndSplineSet
Validated: 1
EndChar

StartChar: N
Encoding: 78 78 41
Width: 1530
GlyphClass: 2
Flags: W
HStem: 0 21G<180 410 935.5 1350> 1490 20G<180 585.5 1120 1350>
VStem: 140 310<4.9375 1168> 1080 310<318 1505.06>
DStem2: 644 1445 450 1168 0.360808 -0.93264<188.344 1208.4>
LayerCount: 2
Fore
SplineSet
370 0 m 2,0,1
 220 0 l 2,2,3
 140 0 140 0 140 79 c 2,4,-1
 140 1431 l 2,5,6
 140 1510 140 1510 220 1510 c 2,7,-1
 552 1510 l 2,8,9
 619 1510 619 1510 644 1445 c 2,10,-1
 1080 318 l 1,11,-1
 1080 1431 l 2,12,13
 1080 1510 1080 1510 1160 1510 c 2,14,-1
 1310 1510 l 2,15,16
 1390 1510 1390 1510 1390 1431 c 2,17,-1
 1390 79 l 2,18,19
 1390 0 1390 0 1310 0 c 2,20,-1
 969 0 l 2,21,22
 902 0 902 0 877 65 c 2,23,-1
 450 1168 l 1,24,-1
 450 79 l 2,25,26
 450 0 450 0 370 0 c 2,0,1
EndSplineSet
Validated: 1
EndChar

StartChar: O
Encoding: 79 79 42
Width: 1574
GlyphClass: 2
Flags: W
HStem: -20 300<610.318 969.35> 1230 300<604.859 963.884>
VStem: 70 329<517.207 992.097> 1175 329<518.379 993.027>
LayerCount: 2
Fore
SplineSet
788 280 m 0,0,1
 961 280 961 280 1063 404 c 0,2,3
 1175 540 1175 540 1175 755 c 0,4,5
 1175 976 1175 976 1063 1106 c 0,6,7
 957 1230 957 1230 786 1230 c 0,8,9
 613 1230 613 1230 511 1106 c 24,10,11
 399 970 399 970 399 755 c 0,12,13
 399 535 399 535 511 404 c 0,14,15
 617 280 617 280 788 280 c 0,0,1
787 -20 m 128,-1,17
 459 -20 459 -20 261 211 c 0,18,19
 70 435 70 435 70 755 c 0,20,21
 70 1077 70 1077 261 1299 c 0,22,23
 460 1530 460 1530 787 1530 c 0,24,25
 1116 1530 1116 1530 1313 1299 c 0,26,27
 1504 1075 1504 1075 1504 755 c 128,-1,28
 1504 435 1504 435 1313 211 c 0,29,16
 1115 -20 1115 -20 787 -20 c 128,-1,17
EndSplineSet
Validated: 1
EndChar

StartChar: Q
Encoding: 81 81 43
Width: 1574
GlyphClass: 2
Flags: W
HStem: -20 608<756.536 918.999> 1230 300<604.859 963.884>
VStem: 70 329<517.207 992.097> 1175 329<518.379 993.027>
LayerCount: 2
Fore
SplineSet
787 -20 m 0,0,1
 459 -20 459 -20 261 211 c 0,2,3
 70 435 70 435 70 755 c 0,4,5
 70 1077 70 1077 261 1299 c 0,6,7
 460 1530 460 1530 787 1530 c 0,8,9
 1116 1530 1116 1530 1313 1299 c 0,10,11
 1504 1075 1504 1075 1504 755 c 128,-1,12
 1504 435 1504 435 1313 211 c 0,13,14
 1259 147 1259 147 1194 101 c 1,15,-1
 1294 -71 l 2,16,17
 1304 -88 1304 -88 1304 -107 c 0,18,19
 1304 -150 1304 -150 1249 -150 c 2,20,-1
 1073 -150 l 2,21,22
 1002 -150 1002 -150 965 -86 c 2,23,-1
 921 -10 l 1,24,25
 857 -20 857 -20 787 -20 c 0,0,1
1036 375 m 1,26,27
 1050 389 1050 389 1063 404 c 0,28,29
 1175 540 1175 540 1175 755 c 0,30,31
 1175 976 1175 976 1063 1106 c 0,32,33
 957 1230 957 1230 786 1230 c 0,34,35
 613 1230 613 1230 511 1106 c 0,36,37
 399 970 399 970 399 755 c 0,38,39
 399 535 399 535 511 404 c 0,40,41
 605 294 605 294 751 282 c 1,42,-1
 620 509 l 2,43,44
 610 526 610 526 610 544 c 0,45,46
 610 588 610 588 665 588 c 2,47,-1
 841 588 l 2,48,49
 912 588 912 588 932 554 c 2,50,-1
 1036 375 l 1,26,27
EndSplineSet
Validated: 1
EndChar

StartChar: T
Encoding: 84 84 44
Width: 1226
GlyphClass: 2
Flags: W
HStem: 0 21G<493 733> 1210 300<25 453 773 1201>
VStem: 453 320<4.9375 1210>
LayerCount: 2
Fore
SplineSet
533 0 m 2,0,1
 453 0 453 0 453 79 c 2,2,-1
 453 1210 l 1,3,-1
 100 1210 l 2,4,5
 20 1210 20 1210 20 1289 c 2,6,-1
 20 1431 l 2,7,8
 20 1510 20 1510 100 1510 c 2,9,-1
 1126 1510 l 2,10,11
 1206 1510 1206 1510 1206 1431 c 2,12,-1
 1206 1289 l 2,13,14
 1206 1210 1206 1210 1126 1210 c 2,15,-1
 773 1210 l 1,16,-1
 773 79 l 2,17,18
 773 0 773 0 693 0 c 2,19,-1
 533 0 l 2,0,1
EndSplineSet
Validated: 1
EndChar

StartChar: U
Encoding: 85 85 45
Width: 1450
GlyphClass: 2
Flags: W
HStem: -20 300<572.974 877.026> 1490 20G<180 420 1030 1270>
VStem: 140 320<393.453 1505.06> 990 320<393.453 1505.06>
LayerCount: 2
Fore
SplineSet
725 -20 m 128,-1,1
 477 -20 477 -20 324 120 c 0,2,3
 140 290 140 290 140 544 c 2,4,-1
 140 1431 l 2,5,6
 140 1510 140 1510 220 1510 c 2,7,-1
 380 1510 l 2,8,9
 460 1510 460 1510 460 1431 c 2,10,-1
 460 561 l 2,11,12
 460 417 460 417 543 346 c 0,13,14
 622 280 622 280 725 280 c 128,-1,15
 828 280 828 280 907 346 c 0,16,17
 990 415 990 415 990 561 c 2,18,-1
 990 1431 l 2,19,20
 990 1510 990 1510 1070 1510 c 2,21,-1
 1230 1510 l 2,22,23
 1310 1510 1310 1510 1310 1431 c 2,24,-1
 1310 544 l 2,25,26
 1310 290 1310 290 1126 120 c 0,27,0
 973 -20 973 -20 725 -20 c 128,-1,1
EndSplineSet
Validated: 1
EndChar

StartChar: V
Encoding: 86 86 46
Width: 1474
GlyphClass: 2
Flags: W
HStem: 0 279<574 900> 1490 20G<38.5 285 1199 1435.5>
DStem2: 341 1446 14 1433 0.324925 -0.94574<-80.829 1233.97> 742 279 990 65 0.324925 0.94574<0 1314.8>
LayerCount: 2
Fore
SplineSet
900 0 m 2,0,1
 574 0 l 2,2,3
 506 0 506 0 484 65 c 2,4,-1
 14 1433 l 2,5,6
 10 1445 10 1445 10 1458 c 0,7,8
 10 1510 10 1510 67 1510 c 2,9,-1
 251 1510 l 2,10,11
 319 1510 319 1510 341 1446 c 2,12,13
 742 279 l 1,14,-1
 1143 1446 l 2,15,16
 1165 1510 1165 1510 1233 1510 c 2,17,-1
 1407 1510 l 2,18,19
 1464 1510 1464 1510 1464 1459 c 0,20,21
 1464 1445 1464 1445 1460 1433 c 2,22,-1
 990 65 l 2,23,24
 968 0 968 0 900 0 c 2,0,1
EndSplineSet
Validated: 1
EndChar

StartChar: W
Encoding: 87 87 47
Width: 1965
GlyphClass: 2
Flags: W
HStem: 0 21G<353 723.5 1240.5 1611> 1146 364<670 1304>
DStem2: 330 1431 21 1431 0.203492 -0.979077<-73.6688 1113.47> 543 338 774 79 0.199907 0.979815<0 879.45> 1208 1431 982 1146 0.200259 -0.979743<233.968 1113.56> 1431 340 1662 79 0.204186 0.978932<0 1183.55>
LayerCount: 2
Fore
SplineSet
688 0 m 2,0,-1
 388 0 l 2,1,2
 318 0 318 0 302 79 c 2,3,-1
 21 1431 l 2,4,5
 20 1436 20 1436 20 1442 c 0,6,7
 20 1510 20 1510 94 1510 c 2,8,-1
 244 1510 l 2,9,10
 315 1510 315 1510 330 1431 c 2,11,-1
 543 338 l 1,12,-1
 766 1431 l 2,13,14
 782 1510 782 1510 852 1510 c 2,15,-1
 1122 1510 l 2,16,17
 1192 1510 1192 1510 1208 1431 c 2,18,-1
 1431 340 l 1,19,-1
 1650 1461 l 2,20,21
 1660 1510 1660 1510 1730 1510 c 2,22,-1
 1870 1510 l 2,23,24
 1945 1510 1945 1510 1945 1442 c 0,25,26
 1945 1436 1945 1436 1944 1431 c 2,27,-1
 1662 79 l 2,28,29
 1646 0 1646 0 1576 0 c 2,30,-1
 1276 0 l 2,31,32
 1205 0 1205 0 1190 79 c 2,33,-1
 982 1146 l 1,34,-1
 774 79 l 2,35,36
 759 0 759 0 688 0 c 2,0,-1
EndSplineSet
Validated: 1
EndChar

StartChar: Z
Encoding: 90 90 48
Width: 1250
GlyphClass: 2
Flags: W
HStem: 0 300<485 1175> 1210 300<115 765>
DStem2: 88 278 485 300 0.587707 0.809074<251.119 1151.93>
LayerCount: 2
Fore
SplineSet
1100 0 m 2,0,-1
 150 0 l 2,1,2
 70 0 70 0 70 79 c 2,3,-1
 70 221 l 2,4,5
 70 253 70 253 88 278 c 2,6,-1
 765 1210 l 1,7,-1
 190 1210 l 2,8,9
 110 1210 110 1210 110 1289 c 2,10,-1
 110 1431 l 2,11,12
 110 1510 110 1510 190 1510 c 2,13,-1
 1100 1510 l 2,14,15
 1180 1510 1180 1510 1180 1431 c 2,16,-1
 1180 1289 l 2,17,18
 1180 1257 1180 1257 1157 1225 c 2,19,-1
 485 300 l 1,20,-1
 1100 300 l 2,21,22
 1180 300 1180 300 1180 221 c 2,23,-1
 1180 79 l 2,24,25
 1180 0 1180 0 1100 0 c 2,0,-1
EndSplineSet
Validated: 1
EndChar

StartChar: bracketleft
Encoding: 91 91 49
Width: 805
GlyphClass: 2
Flags: W
HStem: -205 260<500 783.08> 1450 260<500 783.08>
LayerCount: 2
Fore
SplineSet
270 1710 m 2,0,1
 720 1710 l 2,2,3
 785 1710 785 1710 785 1645 c 2,4,-1
 785 1515 l 2,5,6
 785 1450 785 1450 720 1450 c 2,7,-1
 500 1450 l 1,8,-1
 500 55 l 1,9,-1
 720 55 l 2,10,11
 785 55 785 55 785 -10 c 2,12,-1
 785 -140 l 2,13,14
 785 -205 785 -205 720 -205 c 6,15,-1
 270 -205 l 2,16,17
 200 -205 200 -205 200 -135 c 2,18,-1
 200 1640 l 2,19,20
 200 1710 200 1710 270 1710 c 2,0,1
EndSplineSet
Validated: 1
EndChar

StartChar: backslash
Encoding: 92 92 50
Width: 1194
GlyphClass: 2
Flags: W
DStem2: 1171 19 947 -110 0.4998 -0.866141<-1892.77 42.3586>
LayerCount: 2
Fore
SplineSet
189 1662 m 0,0,1
 223 1662 223 1662 246 1622 c 2,2,-1
 1171 19 l 2,3,4
 1184 -4 1184 -4 1184 -23 c 0,5,6
 1184 -59 1184 -59 1145 -81 c 2,7,-1
 1047 -137 l 2,8,9
 1024 -150 1024 -150 1002 -150 c 0,10,11
 970 -150 970 -150 947 -110 c 2,12,-1
 22 1493 l 2,13,14
 10 1514 10 1514 10 1535 c 0,15,16
 10 1571 10 1571 49 1593 c 2,17,-1
 147 1649 l 2,18,19
 170 1662 170 1662 189 1662 c 0,0,1
EndSplineSet
Validated: 1
EndChar

StartChar: bracketright
Encoding: 93 93 51
Width: 805
GlyphClass: 2
Flags: W
HStem: -205 260<21.9202 305> 1450 260<21.9202 305>
LayerCount: 2
Fore
SplineSet
535 1710 m 2,0,1
 605 1710 605 1710 605 1640 c 2,2,-1
 605 -135 l 2,3,4
 605 -205 605 -205 535 -205 c 2,5,-1
 85 -205 l 2,6,7
 20 -205 20 -205 20 -140 c 2,8,-1
 20 -10 l 2,9,10
 20 55 20 55 85 55 c 2,11,-1
 305 55 l 1,12,-1
 305 1450 l 1,13,-1
 85 1450 l 2,14,15
 20 1450 20 1450 20 1515 c 2,16,-1
 20 1645 l 2,17,18
 20 1710 20 1710 85 1710 c 2,19,-1
 535 1710 l 2,0,1
EndSplineSet
Validated: 1
EndChar

StartChar: asciicircum
Encoding: 94 94 52
Width: 995
GlyphClass: 2
Flags: W
HStem: 1268 262<306 689>
DStem2: 59 1108 267 990 0.624939 0.780674<-7.48171 399.256> 623 1499 498 1268 0.624939 -0.780674<102.218 508.956>
LayerCount: 2
Fore
SplineSet
437 1530 m 2,0,1
 558 1530 l 2,2,3
 598 1530 598 1530 623 1499 c 2,4,-1
 936 1108 l 2,5,6
 945 1097 945 1097 945 1079 c 0,7,8
 945 1055 945 1055 918 1040 c 2,9,-1
 797 972 l 2,10,11
 785 965 785 965 771 965 c 0,12,13
 750 965 750 965 729 990 c 2,14,15
 498 1268 l 1,16,-1
 267 990 l 2,17,18
 246 965 246 965 225 965 c 0,19,20
 212 965 212 965 199 972 c 2,21,-1
 77 1040 l 2,22,23
 50 1055 50 1055 50 1079 c 0,24,25
 50 1097 50 1097 59 1108 c 2,26,-1
 372 1499 l 2,27,28
 397 1530 397 1530 437 1530 c 2,0,1
EndSplineSet
Validated: 1
EndChar

StartChar: underscore
Encoding: 95 95 53
Width: 1233
GlyphClass: 2
Flags: W
HStem: -320 233<92.8882 1140.11>
LayerCount: 2
Fore
SplineSet
160 -87 m 2,0,-1
 1073 -87 l 2,1,2
 1143 -87 1143 -87 1143 -157 c 2,3,4
 1143 -250 l 2,5,6
 1143 -320 1143 -320 1073 -320 c 2,7,-1
 160 -320 l 2,8,9
 90 -320 90 -320 90 -250 c 2,10,-1
 90 -157 l 2,11,12
 90 -87 90 -87 160 -87 c 2,0,-1
EndSplineSet
Validated: 1
EndChar

StartChar: grave
Encoding: 96 96 54
Width: 465
GlyphClass: 2
Flags: W
HStem: 1160 410<237.094 253.125>
VStem: 50 365
LayerCount: 2
Fore
SplineSet
204 1570 m 0,0,1
 226 1570 226 1570 243 1544 c 2,2,-1
 405 1289 l 2,3,4
 415 1273 415 1273 415 1256 c 0,5,6
 415 1234 415 1234 387 1213 c 2,7,-1
 335 1174 l 2,8,9
 316 1160 316 1160 296 1160 c 0,10,11
 272 1160 272 1160 255 1181 c 2,12,-1
 64 1411 l 2,13,14
 50 1428 50 1428 50 1448 c 0,15,16
 50 1472 50 1472 79 1493 c 2,17,-1
 167 1557 l 2,18,19
 185 1570 185 1570 204 1570 c 0,0,1
EndSplineSet
Validated: 1
EndChar

StartChar: o
Encoding: 111 111 55
Width: 1246
GlyphClass: 2
Flags: W
HStem: -20 280<489.72 756.85> 840 280<485.375 760.364>
VStem: 70 313<368.383 733.464> 863 313<369.109 733.698>
LayerCount: 2
Fore
SplineSet
623 260 m 0,0,1
 714 260 714 260 785 326 c 0,2,3
 863 401 863 401 863 550 c 0,4,5
 863 702 863 702 782 779 c 0,6,7
 716 840 716 840 622 840 c 128,-1,8
 528 840 528 840 464 779 c 0,9,10
 383 702 383 702 383 550 c 0,11,12
 383 400 383 400 461 326 c 0,13,14
 533 260 533 260 623 260 c 0,0,1
623 -20 m 0,15,16
 387 -20 387 -20 241 123 c 0,17,18
 70 292 70 292 70 550 c 0,19,20
 70 815 70 815 241 976 c 0,21,22
 396 1120 396 1120 623 1120 c 128,-1,23
 850 1120 850 1120 1005 976 c 0,24,25
 1176 816 1176 816 1176 550 c 0,26,27
 1176 294 1176 294 1005 124 c 0,28,29
 861 -20 861 -20 623 -20 c 0,15,16
EndSplineSet
Validated: 1
EndChar

StartChar: braceleft
Encoding: 123 123 56
Width: 795
GlyphClass: 2
Flags: W
HStem: -205 280<567.416 770> 615 280<25 220> 1430 280<567.416 770>
VStem: 220 300<116.466 615 895 1388.53>
LayerCount: 2
Fore
SplineSet
695 -205 m 24,0,1
 477 -205 477 -205 351 -91 c 0,2,3
 220 27 220 27 220 229 c 2,4,-1
 220 615 l 1,5,-1
 100 615 l 2,6,7
 20 615 20 615 20 694 c 2,8,-1
 20 816 l 2,9,10
 20 895 20 895 100 895 c 2,11,-1
 220 895 l 1,12,-1
 220 1276 l 2,13,14
 220 1478 220 1478 351 1596 c 0,15,16
 477 1710 477 1710 695 1710 c 24,17,18
 775 1710 775 1710 775 1631 c 2,19,-1
 775 1509 l 2,20,21
 775 1430 775 1430 695 1430 c 24,22,23
 611 1430 611 1430 566 1392 c 0,24,25
 520 1353 520 1353 520 1285 c 2,26,-1
 520 220 l 2,27,28
 520 152 520 152 566 113 c 0,29,30
 611 75 611 75 695 75 c 24,31,32
 775 75 775 75 775 -4 c 2,33,-1
 775 -126 l 2,34,35
 775 -205 775 -205 695 -205 c 24,0,1
EndSplineSet
Validated: 1
EndChar

StartChar: bar
Encoding: 124 124 57
Width: 675
GlyphClass: 2
Flags: W
VStem: 200 275<-147.112 1657.11>
LayerCount: 2
Fore
SplineSet
270 1660 m 2,0,-1
 405 1660 l 2,1,2
 475 1660 475 1660 475 1590 c 2,3,-1
 475 -80 l 2,4,5
 475 -150 475 -150 405 -150 c 2,6,-1
 270 -150 l 2,7,8
 200 -150 200 -150 200 -80 c 2,9,-1
 200 1590 l 2,10,11
 200 1660 200 1660 270 1660 c 2,0,-1
EndSplineSet
Validated: 1
EndChar

StartChar: braceright
Encoding: 125 125 58
Width: 795
GlyphClass: 2
Flags: W
HStem: -205 280<25 227.584> 615 280<575 770> 1430 280<25 227.584>
VStem: 275 300<116.466 615 895 1388.53>
LayerCount: 2
Fore
SplineSet
100 -205 m 24,0,1
 20 -205 20 -205 20 -126 c 2,2,-1
 20 -4 l 2,3,4
 20 75 20 75 100 75 c 24,5,6
 184 75 184 75 229 113 c 0,7,8
 275 152 275 152 275 220 c 2,9,-1
 275 1285 l 2,10,11
 275 1353 275 1353 229 1392 c 0,12,13
 184 1430 184 1430 100 1430 c 24,14,15
 20 1430 20 1430 20 1509 c 2,16,-1
 20 1631 l 2,17,18
 20 1710 20 1710 100 1710 c 24,19,20
 318 1710 318 1710 444 1596 c 0,21,22
 575 1478 575 1478 575 1276 c 2,23,-1
 575 895 l 1,24,-1
 695 895 l 2,25,26
 775 895 775 895 775 816 c 2,27,-1
 775 694 l 2,28,29
 775 615 775 615 695 615 c 2,30,-1
 575 615 l 1,31,-1
 575 229 l 2,32,33
 575 27 575 27 444 -91 c 0,34,35
 318 -205 318 -205 100 -205 c 24,0,1
EndSplineSet
Validated: 1
EndChar

StartChar: asciitilde
Encoding: 126 126 59
Width: 1138
GlyphClass: 2
Flags: W
HStem: 515 268<685.361 906.68> 729 268<231.32 452.639>
VStem: 90 278<540.938 725.049> 770 278<786.951 971.062>
LayerCount: 2
Fore
SplineSet
850 976 m 2,0,-1
 968 976 l 2,1,2
 1048 976 1048 976 1048 897 c 0,3,4
 1048 515 1048 515 762 515 c 0,5,6
 596 515 596 515 469 666 c 0,7,8
 433 709 433 709 424 718 c 0,9,10
 413 729 413 729 401 729 c 0,11,12
 368 729 368 729 368 615 c 16,13,14
 368 536 368 536 288 536 c 2,15,-1
 170 536 l 2,16,17
 90 536 90 536 90 615 c 0,18,19
 90 997 90 997 376 997 c 0,20,21
 542 997 542 997 669 846 c 0,22,23
 705 803 705 803 714 794 c 0,24,25
 725 783 725 783 737 783 c 0,26,27
 770 783 770 783 770 897 c 16,28,29
 770 976 770 976 850 976 c 2,0,-1
EndSplineSet
Validated: 1
EndChar

StartChar: exclamdown
Encoding: 161 161 61
Width: 692
GlyphClass: 2
Flags: W
HStem: -410 21G<216.5 475.5> 755 365<228.131 462.878>
VStem: 166 360<-400.665 -52.472 817.566 1057.58> 215 262<261.845 694.426>
LayerCount: 2
Fore
SplineSet
346 1120 m 128,-1,1
 421 1120 421 1120 473.5 1066.5 c 128,-1,2
 526 1013 526 1013 526 938 c 128,-1,3
 526 863 526 863 473 809 c 128,-1,4
 420 755 420 755 346 755 c 0,5,6
 270 755 270 755 218 809 c 128,-1,7
 166 863 166 863 166 937 c 0,8,9
 166 1013 166 1013 218 1066 c 0,10,0
 271 1120 271 1120 346 1120 c 128,-1,1
436 -410 m 2,11,-1
 256 -410 l 2,12,13
 177 -410 177 -410 177 -331 c 1,14,-1
 215 621 l 2,15,16
 218 700 218 700 296 700 c 2,17,-1
 396 700 l 2,18,19
 474 700 474 700 477 621 c 2,20,-1
 515 -331 l 1,21,22
 515 -410 515 -410 436 -410 c 2,11,-1
EndSplineSet
Validated: 1
EndChar

StartChar: cent
Encoding: 162 162 62
Width: 1090
GlyphClass: 2
Flags: W
VStem: 70 313<368.008 733.464> 572 130<-180 -13.5928 270 830 1113.57 1280>
LayerCount: 2
Fore
SplineSet
702 -15 m 1,0,-1
 702 -145 l 2,1,2
 702 -180 702 -180 667 -180 c 2,3,-1
 607 -180 l 2,4,5
 572 -180 572 -180 572 -145 c 2,6,-1
 572 -18 l 1,7,8
 371 -4 371 -4 241 123 c 0,9,10
 70 292 70 292 70 550 c 0,11,12
 70 815 70 815 241 976 c 0,13,14
 377 1104 377 1104 572 1118 c 1,15,-1
 572 1245 l 2,16,17
 572 1280 572 1280 607 1280 c 2,18,-1
 667 1280 l 2,19,20
 702 1280 702 1280 702 1245 c 2,21,-1
 702 1115 l 1,22,23
 871 1093 871 1093 1005 976 c 0,24,25
 1030 954 1030 954 1030 925 c 0,26,27
 1030 892 1030 892 999 864 c 2,28,-1
 896 771 l 2,29,30
 868 745 868 745 845 745 c 0,31,32
 811 745 811 745 784 776 c 0,33,34
 751 814 751 814 702 830 c 1,35,-1
 702 270 l 1,36,37
 751 285 751 285 784 324 c 0,38,39
 811 355 811 355 845 355 c 0,40,41
 868 355 868 355 896 329 c 2,42,-1
 999 236 l 2,43,44
 1030 208 1030 208 1030 175 c 0,45,46
 1030 146 1030 146 1005 124 c 0,47,48
 878 6 878 6 702 -15 c 1,0,-1
572 266 m 1,49,-1
 572 835 l 1,50,51
 509 822 509 822 464 779 c 0,52,53
 383 702 383 702 383 550 c 128,-1,54
 383 398 383 398 461 326 c 0,55,56
 511 280 511 280 572 266 c 1,49,-1
EndSplineSet
Validated: 1
EndChar

StartChar: sterling
Encoding: 163 163 63
Width: 1275
GlyphClass: 2
Flags: W
HStem: 0 300<95 210 530 1180> 550 300<96 210 530 910> 1105 21G<883.5 914.5> 1251 279<569.149 805.681>
VStem: 210 320<300 550 850 1213.77>
LayerCount: 2
Fore
SplineSet
1105 0 m 2,0,-1
 170 0 l 2,1,2
 90 0 90 0 90 79 c 2,3,-1
 90 221 l 2,4,5
 90 300 90 300 170 300 c 2,6,-1
 210 300 l 1,7,-1
 210 550 l 1,8,-1
 171 550 l 2,9,10
 91 550 91 550 91 629 c 2,11,-1
 91 771 l 2,12,13
 91 850 91 850 171 850 c 2,14,-1
 210 850 l 1,15,-1
 210 1119 l 2,16,17
 210 1323 210 1323 356 1431 c 0,18,19
 491 1530 491 1530 685 1530 c 0,20,21
 885 1530 885 1530 1021 1407 c 0,22,23
 1085 1349 1085 1349 1120 1281 c 0,24,25
 1131 1260 1131 1260 1131 1242 c 0,26,27
 1131 1200 1131 1200 1080 1176 c 2,28,-1
 949 1116 l 2,29,30
 926 1105 926 1105 903 1105 c 0,31,32
 864 1105 864 1105 844 1155 c 0,33,34
 832 1185 832 1185 806 1208 c 0,35,36
 756 1251 756 1251 686 1251 c 0,37,38
 613 1251 613 1251 573 1215 c 0,39,40
 530 1176 530 1176 530 1103 c 2,41,-1
 530 850 l 1,42,-1
 835 850 l 2,43,44
 915 850 915 850 915 771 c 2,45,-1
 915 629 l 2,46,47
 915 550 915 550 835 550 c 2,48,-1
 530 550 l 1,49,-1
 530 300 l 1,50,-1
 1105 300 l 2,51,52
 1185 300 1185 300 1185 221 c 2,53,-1
 1185 79 l 2,54,55
 1185 0 1185 0 1105 0 c 2,0,-1
EndSplineSet
Validated: 1
EndChar

StartChar: currency
Encoding: 164 164 64
Width: 1590
GlyphClass: 2
Flags: W
HStem: 130 281<642.389 964.568> 1110 281<641.483 962.451>
VStem: 195 300<568.729 949.468> 1111 300<571.976 950.315>
DStem2: 469 1298 114 1210 0.703977 -0.710223<-242.679 10.8415 1212.1 1468.08> 265 441 353 86 0.706161 0.708051<-244.361 8.08055 1208.69 1454.51>
LayerCount: 2
Fore
SplineSet
804 1391 m 0,0,1
 985 1391 985 1391 1128 1306 c 1,2,-1
 1253 1432 l 2,3,4
 1277 1456 1277 1456 1308 1456 c 0,5,6
 1337 1456 1337 1456 1365 1429 c 2,7,-1
 1476 1322 l 2,8,9
 1500 1299 1500 1299 1500 1269 c 0,10,11
 1500 1236 1500 1236 1474 1210 c 2,12,-1
 1341 1077 l 1,13,14
 1411 936 1411 936 1411 760 c 0,15,16
 1411 571 1411 571 1329 427 c 1,17,-1
 1463 294 l 2,18,19
 1487 270 1487 270 1487 239 c 0,20,21
 1487 210 1487 210 1460 182 c 2,22,-1
 1353 71 l 2,23,24
 1330 47 1330 47 1300 47 c 0,25,26
 1267 47 1267 47 1241 73 c 2,27,-1
 1108 206 l 1,28,29
 972 130 972 130 801 130 c 0,30,31
 626 130 626 130 483 217 c 1,32,-1
 353 86 l 2,33,34
 329 62 329 62 298 62 c 0,35,36
 269 62 269 62 241 89 c 2,37,-1
 130 196 l 2,38,39
 106 219 106 219 106 249 c 0,40,41
 106 282 106 282 132 308 c 2,42,-1
 265 441 l 1,43,44
 195 580 195 580 195 760 c 0,45,46
 195 931 195 931 261 1064 c 1,47,-1
 114 1210 l 2,48,49
 90 1234 90 1234 90 1265 c 0,50,51
 90 1294 90 1294 117 1322 c 2,52,-1
 224 1433 l 2,53,54
 247 1457 247 1457 277 1457 c 0,55,56
 310 1457 310 1457 336 1431 c 2,57,-1
 469 1298 l 1,58,59
 616 1391 616 1391 804 1391 c 0,0,1
803 411 m 0,60,61
 935 411 935 411 1015 498 c 0,62,63
 1111 602 1111 602 1111 760 c 0,64,65
 1111 919 1111 919 1015 1023 c 0,66,67
 932 1110 932 1110 803 1110 c 0,68,69
 673 1110 673 1110 591 1023 c 0,70,71
 495 920 495 920 495 760 c 0,72,73
 495 599 495 599 590 498 c 0,74,75
 674 411 674 411 803 411 c 0,60,61
EndSplineSet
Validated: 1
EndChar

StartChar: yen
Encoding: 165 165 65
Width: 1260
GlyphClass: 2
Flags: W
HStem: 0 21G<510 750> 310 180<153 470 790 1107> 602 180<153 397 863 1107> 1490 20G<37.5 276.5 992.5 1222.5>
VStem: 470 320<4.9375 310 490 602>
DStem2: 635 953 20 1431 0.502296 -0.864696<-668.753 0> 635 953 863 782 0.502296 0.864696<0 668.251>
LayerCount: 2
Fore
SplineSet
550 0 m 2,0,1
 470 0 470 0 470 79 c 2,2,-1
 470 310 l 1,3,-1
 198 310 l 2,4,5
 153 310 153 310 153 355 c 2,6,-1
 153 445 l 2,7,8
 153 490 153 490 198 490 c 2,9,-1
 470 490 l 1,10,-1
 470 602 l 1,11,-1
 198 602 l 2,12,13
 153 602 153 602 153 647 c 2,14,-1
 153 737 l 2,15,16
 153 782 153 782 198 782 c 2,17,-1
 397 782 l 1,18,-1
 20 1431 l 2,19,20
 10 1448 10 1448 10 1466 c 0,21,22
 10 1510 10 1510 65 1510 c 2,23,-1
 241 1510 l 2,24,25
 312 1510 312 1510 349 1446 c 2,26,-1
 635 953 l 1,27,-1
 920 1446 l 2,28,29
 957 1510 957 1510 1028 1510 c 2,30,-1
 1195 1510 l 2,31,32
 1250 1510 1250 1510 1250 1466 c 0,33,34
 1250 1448 1250 1448 1240 1431 c 2,35,-1
 863 782 l 1,36,-1
 1062 782 l 2,37,38
 1107 782 1107 782 1107 737 c 2,39,-1
 1107 647 l 2,40,41
 1107 602 1107 602 1062 602 c 2,42,-1
 790 602 l 1,43,-1
 790 490 l 1,44,-1
 1062 490 l 2,45,46
 1107 490 1107 490 1107 445 c 2,47,-1
 1107 355 l 2,48,49
 1107 310 1107 310 1062 310 c 2,50,-1
 790 310 l 1,51,-1
 790 79 l 2,52,53
 790 0 790 0 710 0 c 2,54,-1
 550 0 l 2,0,1
EndSplineSet
Validated: 1
EndChar

StartChar: brokenbar
Encoding: 166 166 66
Width: 675
GlyphClass: 2
Flags: W
VStem: 200 275<-147.112 657.112 852.888 1657.11>
LayerCount: 2
Fore
SplineSet
270 660 m 2,0,-1
 405 660 l 2,1,2
 475 660 475 660 475 590 c 2,3,-1
 475 -80 l 2,4,5
 475 -150 475 -150 405 -150 c 2,6,-1
 270 -150 l 2,7,8
 200 -150 200 -150 200 -80 c 2,9,-1
 200 590 l 2,10,11
 200 660 200 660 270 660 c 2,0,-1
270 1660 m 2,12,-1
 405 1660 l 2,13,14
 475 1660 475 1660 475 1590 c 2,15,-1
 475 920 l 2,16,17
 475 850 475 850 405 850 c 2,18,-1
 270 850 l 2,19,20
 200 850 200 850 200 920 c 2,21,-1
 200 1590 l 2,22,23
 200 1660 200 1660 270 1660 c 2,12,-1
EndSplineSet
Validated: 1
EndChar

StartChar: section
Encoding: 167 167 67
Width: 1046
GlyphClass: 2
Flags: W
HStem: -20 244<411.493 616.422> 1286 244<429.578 634.507>
VStem: 90 287<686.445 857.566> 150 277<1167.24 1281.43> 619 277<228.571 342.755> 669 287<652.434 823.555>
DStem2: 597 625 364 417 0.948152 -0.317816<-239.888 126.174> 682 1093 449 885 0.948152 -0.317816<-280.988 85.0742>
LayerCount: 2
Fore
SplineSet
523 -20 m 0,0,1
 311 -20 311 -20 197 117 c 0,2,3
 172 147 172 147 172 168 c 0,4,5
 172 201 172 201 203 229 c 2,6,-1
 276 296 l 2,7,8
 304 322 304 322 327 322 c 0,9,10
 361 322 361 322 388 291 c 0,11,12
 448 224 448 224 536 224 c 0,13,14
 619 224 619 224 619 279 c 0,15,16
 619 332 619 332 543 357 c 2,17,-1
 364 417 l 2,18,19
 90 509 90 509 90 742 c 0,20,21
 90 868 90 868 184 970 c 1,22,-1
 418 833 l 1,23,24
 377 800 377 800 377 761 c 0,25,26
 377 697 377 697 454 672 c 10,27,-1
 597 625 l 2,28,29
 896 527 896 527 896 292 c 0,30,31
 896 153 896 153 777 58 c 0,32,33
 679 -20 679 -20 523 -20 c 0,0,1
523 1530 m 0,34,35
 735 1530 735 1530 849 1393 c 0,36,37
 874 1363 874 1363 874 1342 c 0,38,39
 874 1309 874 1309 843 1281 c 2,40,-1
 770 1214 l 2,41,42
 742 1188 742 1188 719 1188 c 0,43,44
 685 1188 685 1188 658 1219 c 0,45,46
 598 1286 598 1286 510 1286 c 0,47,48
 427 1286 427 1286 427 1231 c 0,49,50
 427 1178 427 1178 503 1153 c 2,51,-1
 682 1093 l 2,52,53
 956 1001 956 1001 956 768 c 0,54,55
 956 642 956 642 862 540 c 1,56,-1
 628 677 l 1,57,58
 669 710 669 710 669 749 c 0,59,60
 669 813 669 813 592 838 c 10,61,-1
 449 885 l 2,62,63
 150 983 150 983 150 1218 c 0,64,65
 150 1357 150 1357 269 1452 c 0,66,67
 367 1530 367 1530 523 1530 c 0,34,35
EndSplineSet
Validated: 1
EndChar

StartChar: dieresis
Encoding: 168 168 68
Width: 730
GlyphClass: 2
Flags: W
HStem: 1210 297<93.8326 297.652 431.833 636.167>
VStem: 50 292<1255.38 1461.62> 388 292<1255.38 1461.62>
LayerCount: 2
Fore
SplineSet
534.5 1507 m 128,-1,1
 595 1507 595 1507 637.5 1463 c 128,-1,2
 680 1419 680 1419 680 1358.5 c 128,-1,3
 680 1298 680 1298 637.5 1254 c 128,-1,4
 595 1210 595 1210 534 1210 c 128,-1,5
 473 1210 473 1210 430.5 1254 c 128,-1,6
 388 1298 388 1298 388 1358 c 0,7,8
 388 1419 388 1419 431 1462 c 0,9,0
 474 1507 474 1507 534.5 1507 c 128,-1,1
195.5 1507 m 128,-1,11
 256 1507 256 1507 299 1463 c 128,-1,12
 342 1419 342 1419 342 1358.5 c 128,-1,13
 342 1298 342 1298 299 1254 c 128,-1,14
 256 1210 256 1210 196 1210 c 0,15,16
 135 1210 135 1210 92.5 1254 c 128,-1,17
 50 1298 50 1298 50 1358 c 0,18,19
 50 1419 50 1419 92 1462 c 0,20,10
 135 1507 135 1507 195.5 1507 c 128,-1,11
EndSplineSet
Validated: 1
EndChar

StartChar: guillemotleft
Encoding: 171 171 69
Width: 1234
GlyphClass: 2
Flags: W
DStem2: 92 791 336 765 0.576683 0.816968<119.47 648.985> 336 765 92 720 0.575413 -0.817863<0 539.205> 542 791 786 765 0.576683 0.816968<119.47 648.985> 786 765 542 720 0.575413 -0.817863<0 539.205>
LayerCount: 2
Fore
SplineSet
530 756 m 0,0,1
 530 774 530 774 542 791 c 2,2,-1
 902 1301 l 2,3,4
 918 1323 918 1323 940 1323 c 0,5,6
 955 1323 955 1323 972 1310 c 2,7,-1
 1067 1236 l 2,8,9
 1090 1218 1090 1218 1090 1199 c 0,10,11
 1090 1185 1090 1185 1076 1166 c 2,12,-1
 786 765 l 1,13,-1
 1080 355 l 2,14,15
 1094 335 1094 335 1094 322 c 0,16,17
 1094 303 1094 303 1071 285 c 2,18,-1
 968 205 l 2,19,20
 951 192 951 192 936 192 c 0,21,22
 913 192 913 192 898 214 c 2,23,-1
 542 720 l 2,24,25
 530 737 530 737 530 756 c 0,0,1
80 756 m 0,26,27
 80 774 80 774 92 791 c 2,28,-1
 452 1301 l 2,29,30
 468 1323 468 1323 490 1323 c 0,31,32
 505 1323 505 1323 522 1310 c 2,33,-1
 617 1236 l 2,34,35
 640 1218 640 1218 640 1199 c 0,36,37
 640 1185 640 1185 626 1166 c 2,38,-1
 336 765 l 1,39,-1
 630 355 l 2,40,41
 644 335 644 335 644 322 c 0,42,43
 644 303 644 303 621 285 c 2,44,-1
 518 205 l 2,45,46
 501 192 501 192 486 192 c 0,47,48
 463 192 463 192 448 214 c 2,49,-1
 92 720 l 2,50,51
 80 737 80 737 80 756 c 0,26,27
EndSplineSet
Validated: 1
EndChar

StartChar: logicalnot
Encoding: 172 172 70
Width: 1253
GlyphClass: 2
Flags: W
HStem: 630 250<91.9202 775>
LayerCount: 2
Fore
SplineSet
155 880 m 2,0,-1
 1104 880 l 2,1,2
 1163 880 1163 880 1163 824 c 0,3,4
 1163 811 1163 811 1155 797 c 2,5,-1
 934 410 l 2,6,7
 911 369 911 369 869 369 c 2,8,-1
 669 369 l 2,9,10
 643 369 643 369 643 390 c 0,11,12
 643 401 643 401 650 413 c 2,13,-1
 775 630 l 1,14,-1
 155 630 l 2,15,16
 90 630 90 630 90 695 c 2,17,-1
 90 815 l 2,18,19
 90 880 90 880 155 880 c 2,0,-1
EndSplineSet
Validated: 1
EndChar

StartChar: uni00AD
Encoding: 173 173 71
Width: 1133
GlyphClass: 2
Flags: W
HStem: 630 250<91.9202 1041.08>
LayerCount: 2
Fore
SplineSet
155 880 m 2,0,-1
 978 880 l 2,1,2
 1043 880 1043 880 1043 815 c 2,3,-1
 1043 695 l 2,4,5
 1043 630 1043 630 978 630 c 2,6,-1
 155 630 l 2,7,8
 90 630 90 630 90 695 c 2,9,-1
 90 815 l 2,10,11
 90 880 90 880 155 880 c 2,0,-1
EndSplineSet
Validated: 1
EndChar

StartChar: macron
Encoding: 175 175 72
Width: 680
GlyphClass: 2
Flags: W
HStem: 1230 161<50 630>
VStem: 50 580<1230 1391>
LayerCount: 2
Fore
SplineSet
90 1391 m 2,0,-1
 590 1391 l 2,1,2
 630 1391 630 1391 630 1351 c 2,3,-1
 630 1270 l 2,4,5
 630 1230 630 1230 590 1230 c 2,6,-1
 90 1230 l 2,7,8
 50 1230 50 1230 50 1270 c 2,9,-1
 50 1351 l 2,10,11
 50 1391 50 1391 90 1391 c 2,0,-1
EndSplineSet
Validated: 1
EndChar

StartChar: degree
Encoding: 176 176 73
Width: 770
GlyphClass: 2
Flags: W
HStem: 895 188<294.27 475.794> 1383 187<294.947 476.245>
VStem: 50 207<1123.34 1343.06> 513 207<1122.44 1342.41>
LayerCount: 2
Fore
SplineSet
386 1383 m 128,-1,1
 331 1383 331 1383 294 1340 c 128,-1,2
 257 1297 257 1297 257 1233 c 128,-1,3
 257 1169 257 1169 294 1126 c 128,-1,4
 331 1083 331 1083 386 1083 c 128,-1,5
 441 1083 441 1083 477 1126 c 128,-1,6
 513 1169 513 1169 513 1233 c 128,-1,7
 513 1297 513 1297 477 1340 c 128,-1,0
 441 1383 441 1383 386 1383 c 128,-1,1
385 1570 m 0,8,9
 526 1570 526 1570 622 1471 c 0,10,11
 720 1371 720 1371 720 1232 c 0,12,13
 720 1092 720 1092 622 994 c 0,14,15
 524 895 524 895 385 895 c 0,16,17
 244 895 244 895 148 994 c 0,18,19
 50 1095 50 1095 50 1233 c 0,20,21
 50 1373 50 1373 148 1471 c 0,22,23
 247 1570 247 1570 385 1570 c 0,8,9
EndSplineSet
Validated: 1
EndChar

StartChar: plusminus
Encoding: 177 177 74
Width: 1133
GlyphClass: 2
Flags: W
HStem: 130 250<91.9202 1041.08> 762 250<91.9202 442 692 1041.08>
VStem: 442 250<412.32 762 1012 1361.68>
LayerCount: 2
Fore
SplineSet
155 380 m 2,0,-1
 978 380 l 2,1,2
 1043 380 1043 380 1043 315 c 2,3,-1
 1043 195 l 2,4,5
 1043 130 1043 130 978 130 c 2,6,-1
 155 130 l 2,7,8
 90 130 90 130 90 195 c 2,9,-1
 90 315 l 2,10,11
 90 380 90 380 155 380 c 2,0,-1
506 1364 m 2,12,-1
 626 1364 l 2,13,14
 692 1364 692 1364 692 1298 c 2,15,-1
 692 1012 l 1,16,-1
 978 1012 l 2,17,18
 1043 1012 1043 1012 1043 947 c 2,19,-1
 1043 827 l 2,20,21
 1043 762 1043 762 978 762 c 2,22,-1
 692 762 l 1,23,-1
 692 476 l 2,24,25
 692 410 692 410 626 410 c 2,26,-1
 506 410 l 2,27,28
 442 410 442 410 442 476 c 2,29,-1
 442 762 l 1,30,-1
 155 762 l 2,31,32
 90 762 90 762 90 827 c 2,33,-1
 90 947 l 2,34,35
 90 1012 90 1012 155 1012 c 2,36,-1
 442 1012 l 1,37,-1
 442 1298 l 2,38,39
 442 1364 442 1364 506 1364 c 2,12,-1
EndSplineSet
Validated: 1
EndChar

StartChar: acute
Encoding: 180 180 75
Width: 465
GlyphClass: 2
Flags: W
HStem: 1160 410<211.875 227.906>
VStem: 50 365
LayerCount: 2
Fore
SplineSet
261 1570 m 0,0,1
 280 1570 280 1570 298 1557 c 2,2,-1
 386 1493 l 2,3,4
 415 1472 415 1472 415 1448 c 0,5,6
 415 1428 415 1428 401 1411 c 2,7,-1
 210 1181 l 2,8,9
 193 1160 193 1160 169 1160 c 0,10,11
 149 1160 149 1160 130 1174 c 2,12,-1
 78 1213 l 2,13,14
 50 1234 50 1234 50 1256 c 0,15,16
 50 1273 50 1273 60 1289 c 2,17,-1
 222 1544 l 2,18,19
 239 1570 239 1570 261 1570 c 0,0,1
EndSplineSet
Validated: 1
EndChar

StartChar: uni00B5
Encoding: 181 181 76
Width: 1230
GlyphClass: 2
Flags: W
HStem: -410 21G<180 400> -20 280<487.818 746.883> 0 21G<831.5 1050> 1080 20G<180 400 830 1050>
VStem: 140 300<-405.062 -3 305.722 1095.06> 790 300<4.98047 51 286.469 1095.06>
LayerCount: 2
Fore
SplineSet
1010 0 m 2,0,-1
 870 0 l 2,1,2
 793 0 793 0 793 51 c 1,3,4
 688 -20 688 -20 568 -20 c 0,5,6
 500 -20 500 -20 440 -3 c 1,7,-1
 440 -331 l 2,8,9
 440 -410 440 -410 360 -410 c 2,10,-1
 220 -410 l 2,11,12
 140 -410 140 -410 140 -331 c 2,13,-1
 140 1021 l 2,14,15
 140 1100 140 1100 220 1100 c 2,16,-1
 360 1100 l 2,17,18
 440 1100 440 1100 440 1021 c 2,19,-1
 440 424 l 2,20,21
 440 346 440 346 488 303 c 128,-1,22
 536 260 536 260 629 260 c 128,-1,23
 722 260 722 260 790 316 c 1,24,-1
 790 1021 l 2,25,26
 790 1100 790 1100 870 1100 c 2,27,-1
 1010 1100 l 2,28,29
 1090 1100 1090 1100 1090 1021 c 2,30,-1
 1090 79 l 2,31,32
 1090 0 1090 0 1010 0 c 2,0,-1
EndSplineSet
Validated: 1
EndChar

StartChar: paragraph
Encoding: 182 182 77
Width: 1296
GlyphClass: 2
Flags: W
HStem: 0 130<926 1026> 390 1140<377.359 753.496> 1380 130<926 1026>
VStem: 90 836<705.953 1214.05> 796 130<130 459> 1026 130<130 1380>
LayerCount: 2
Fore
SplineSet
926 130 m 1,0,-1
 1026 130 l 1,1,-1
 1026 1380 l 1,2,-1
 926 1380 l 1,3,-1
 926 130 l 1,0,-1
1076 1510 m 2,4,5
 1156 1510 1156 1510 1156 1431 c 2,6,-1
 1156 79 l 2,7,8
 1156 0 1156 0 1076 0 c 2,9,-1
 876 0 l 2,10,11
 796 0 796 0 796 79 c 2,12,-1
 796 459 l 1,13,14
 693 390 693 390 574 390 c 0,15,16
 402 390 402 390 277 501 c 24,17,18
 90 667 90 667 90 960 c 128,-1,19
 90 1253 90 1253 277 1419 c 24,20,21
 402 1530 402 1530 574 1530 c 0,22,23
 701 1530 701 1530 799 1459 c 1,24,25
 799 1510 799 1510 876 1510 c 2,26,-1
 1076 1510 l 2,4,5
EndSplineSet
Validated: 1
EndChar

StartChar: periodcentered
Encoding: 183 183 78
Width: 460
GlyphClass: 2
Flags: W
HStem: 573 365<112.131 346.878>
VStem: 50 360<635.566 875.578>
LayerCount: 2
Fore
SplineSet
230 938 m 128,-1,1
 305 938 305 938 357.5 884.5 c 128,-1,2
 410 831 410 831 410 756 c 128,-1,3
 410 681 410 681 357 627 c 128,-1,4
 304 573 304 573 230 573 c 0,5,6
 154 573 154 573 102 627 c 128,-1,7
 50 681 50 681 50 755 c 0,8,9
 50 831 50 831 102 884 c 0,10,0
 155 938 155 938 230 938 c 128,-1,1
EndSplineSet
Validated: 1
EndChar

StartChar: cedilla
Encoding: 184 184 79
Width: 435
GlyphClass: 2
Flags: W
HStem: -430 138<50 159.152> -107 107<59 149.024>
VStem: 59 150<-50.9209 0> 187 198<-271.19 -127.332>
LayerCount: 2
Fore
SplineSet
59 0 m 1,0,-1
 209 0 l 1,1,-1
 209 -39 l 1,2,3
 266 -49 266 -49 311 -82 c 0,4,5
 385 -136 385 -136 385 -221 c 0,6,7
 385 -298 385 -298 326 -356 c 0,8,9
 251 -430 251 -430 85 -430 c 24,10,11
 50 -430 50 -430 50 -395 c 2,12,-1
 50 -327 l 2,13,14
 50 -292 50 -292 88 -292 c 0,15,16
 133 -292 133 -292 160 -265 c 0,17,18
 187 -237 187 -237 187 -197 c 0,19,20
 187 -156 187 -156 150 -129 c 0,21,22
 119 -107 119 -107 59 -107 c 1,23,-1
 59 0 l 1,0,-1
EndSplineSet
Validated: 1
EndChar

StartChar: guillemotright
Encoding: 187 187 80
Width: 1234
GlyphClass: 2
Flags: W
DStem2: 336 1301 154 1160 0.575413 -0.817863<-24.1162 515.089> 448 750 332 214 0.576683 0.816968<-529.515 0> 786 1301 604 1160 0.575413 -0.817863<-24.1162 515.089> 898 750 782 214 0.576683 0.816968<-529.515 0>
LayerCount: 2
Fore
SplineSet
704 759 m 0,0,1
 704 741 704 741 692 724 c 2,2,-1
 332 214 l 2,3,4
 316 192 316 192 294 192 c 0,5,6
 279 192 279 192 262 205 c 2,7,-1
 167 279 l 2,8,9
 144 297 144 297 144 316 c 0,10,11
 144 330 144 330 158 349 c 2,12,-1
 448 750 l 1,13,-1
 154 1160 l 2,14,15
 140 1180 140 1180 140 1193 c 0,16,17
 140 1212 140 1212 163 1230 c 2,18,-1
 266 1310 l 2,19,20
 283 1323 283 1323 298 1323 c 0,21,22
 321 1323 321 1323 336 1301 c 2,23,-1
 692 795 l 2,24,25
 704 778 704 778 704 759 c 0,0,1
1154 759 m 0,26,27
 1154 741 1154 741 1142 724 c 2,28,-1
 782 214 l 2,29,30
 766 192 766 192 744 192 c 0,31,32
 729 192 729 192 712 205 c 2,33,-1
 617 279 l 2,34,35
 594 297 594 297 594 316 c 0,36,37
 594 330 594 330 608 349 c 2,38,-1
 898 750 l 1,39,-1
 604 1160 l 2,40,41
 590 1180 590 1180 590 1193 c 0,42,43
 590 1212 590 1212 613 1230 c 2,44,-1
 716 1310 l 2,45,46
 733 1323 733 1323 748 1323 c 0,47,48
 771 1323 771 1323 786 1301 c 2,49,-1
 1142 795 l 2,50,51
 1154 778 1154 778 1154 759 c 0,26,27
EndSplineSet
Validated: 1
EndChar

StartChar: questiondown
Encoding: 191 191 81
Width: 1200
GlyphClass: 2
Flags: W
HStem: -430 300<492.019 798.688> -41 20G<887 914> 755 365<558.122 792.869>
VStem: 90 321<-56.3052 181.433> 495 360<817.422 1057.43> 509 320<560.143 695.062>
LayerCount: 2
Fore
SplineSet
675 1120 m 0,0,1
 751 1120 751 1120 803 1066 c 128,-1,2
 855 1012 855 1012 855 938 c 0,3,4
 855 862 855 862 803 809 c 0,5,6
 750 755 750 755 675 755 c 128,-1,7
 600 755 600 755 547.5 808.5 c 128,-1,8
 495 862 495 862 495 937 c 128,-1,9
 495 1012 495 1012 548 1066 c 128,-1,10
 601 1120 601 1120 675 1120 c 0,0,1
645 -430 m 0,11,12
 388 -430 388 -430 231 -266 c 0,13,14
 90 -119 90 -119 90 66 c 0,15,16
 90 335 90 335 367 491 c 0,17,18
 509 571 509 571 509 621 c 0,19,20
 509 700 509 700 589 700 c 2,21,-1
 749 700 l 2,22,23
 829 700 829 700 829 621 c 0,24,25
 829 437 829 437 644 334 c 0,26,27
 411 204 411 204 411 64 c 0,28,29
 411 -10 411 -10 458 -59 c 0,30,31
 525 -130 525 -130 646 -130 c 0,32,33
 764 -130 764 -130 844 -50 c 24,34,35
 873 -21 873 -21 901 -21 c 0,36,37
 927 -21 927 -21 954 -41 c 2,38,-1
 1074 -131 l 2,39,40
 1110 -158 1110 -158 1110 -190 c 0,41,42
 1110 -217 1110 -217 1089 -242 c 0,43,44
 931 -430 931 -430 645 -430 c 0,11,12
EndSplineSet
Validated: 1
EndChar

StartChar: figuredash
Encoding: 8210 8210 82
Width: 1133
GlyphClass: 2
Flags: W
HStem: 630 250<91.9202 1041.08>
LayerCount: 2
Fore
SplineSet
155 880 m 2,0,-1
 978 880 l 2,1,2
 1043 880 1043 880 1043 815 c 2,3,-1
 1043 695 l 2,4,5
 1043 630 1043 630 978 630 c 2,6,-1
 155 630 l 2,7,8
 90 630 90 630 90 695 c 2,9,-1
 90 815 l 2,10,11
 90 880 90 880 155 880 c 2,0,-1
EndSplineSet
Validated: 1
EndChar

StartChar: endash
Encoding: 8211 8211 83
Width: 1533
GlyphClass: 2
Flags: W
HStem: 630 250<91.9202 1441.08>
LayerCount: 2
Fore
SplineSet
155 880 m 2,0,-1
 1378 880 l 2,1,2
 1443 880 1443 880 1443 815 c 2,3,-1
 1443 695 l 2,4,5
 1443 630 1443 630 1378 630 c 2,6,-1
 155 630 l 2,7,8
 90 630 90 630 90 695 c 2,9,-1
 90 815 l 2,10,11
 90 880 90 880 155 880 c 2,0,-1
EndSplineSet
Validated: 1
EndChar

StartChar: emdash
Encoding: 8212 8212 84
Width: 1533
GlyphClass: 2
Flags: W
HStem: 630 250<91.9202 1441.08>
LayerCount: 2
Fore
SplineSet
155 880 m 2,0,-1
 1378 880 l 2,1,2
 1443 880 1443 880 1443 815 c 2,3,-1
 1443 695 l 2,4,5
 1443 630 1443 630 1378 630 c 2,6,-1
 155 630 l 2,7,8
 90 630 90 630 90 695 c 2,9,-1
 90 815 l 2,10,11
 90 880 90 880 155 880 c 2,0,-1
EndSplineSet
Validated: 1
EndChar

StartChar: quoteleft
Encoding: 8216 8216 85
Width: 415
GlyphClass: 2
Flags: W
HStem: 973 637<179.178 284.562>
VStem: 50 235<1156.86 1449.11>
LayerCount: 2
Fore
SplineSet
248 1610 m 0,0,1
 266 1610 266 1610 286 1595 c 2,2,-1
 343 1552 l 2,3,4
 363 1537 363 1537 363 1519 c 0,5,6
 363 1503 363 1503 348 1488 c 0,7,8
 285 1425 285 1425 285 1305 c 0,9,10
 285 1199 285 1199 340 1144 c 0,11,12
 365 1119 365 1119 365 1098 c 0,13,14
 365 1072 365 1072 332 1049 c 2,15,-1
 240 986 l 2,16,17
 221 973 221 973 199 973 c 128,-1,18
 177 973 177 973 152 996 c 0,19,20
 50 1090 50 1090 50 1261 c 0,21,22
 50 1450 50 1450 202 1589 c 0,23,24
 225 1610 225 1610 248 1610 c 0,0,1
EndSplineSet
Validated: 1
EndChar

StartChar: quoteright
Encoding: 8217 8217 86
Width: 415
GlyphClass: 2
Flags: W
HStem: 973 637<130.438 235.822>
VStem: 130 235<1133.89 1426.14>
LayerCount: 2
Fore
SplineSet
216 1610 m 128,-1,1
 238 1610 238 1610 263 1587 c 0,2,3
 365 1493 365 1493 365 1322 c 0,4,5
 365 1133 365 1133 213 994 c 0,6,7
 190 973 190 973 167 973 c 0,8,9
 149 973 149 973 129 988 c 2,10,-1
 72 1031 l 2,11,12
 52 1046 52 1046 52 1064 c 0,13,14
 52 1080 52 1080 67 1095 c 0,15,16
 130 1158 130 1158 130 1278 c 0,17,18
 130 1384 130 1384 75 1439 c 0,19,20
 50 1464 50 1464 50 1485 c 0,21,22
 50 1511 50 1511 83 1534 c 2,23,-1
 175 1597 l 2,24,0
 194 1610 194 1610 216 1610 c 128,-1,1
EndSplineSet
Validated: 1
EndChar

StartChar: quotesinglbase
Encoding: 8218 8218 87
Width: 415
GlyphClass: 2
Flags: W
HStem: -317 637<130.438 235.822>
VStem: 130 235<-156.105 136.144>
LayerCount: 2
Fore
SplineSet
216 320 m 128,-1,1
 238 320 238 320 263 297 c 0,2,3
 365 203 365 203 365 32 c 0,4,5
 365 -157 365 -157 213 -296 c 0,6,7
 190 -317 190 -317 167 -317 c 0,8,9
 149 -317 149 -317 129 -302 c 2,10,-1
 72 -259 l 2,11,12
 52 -244 52 -244 52 -226 c 0,13,14
 52 -210 52 -210 67 -195 c 0,15,16
 130 -132 130 -132 130 -12 c 0,17,18
 130 94 130 94 75 149 c 0,19,20
 50 174 50 174 50 195 c 0,21,22
 50 221 50 221 83 244 c 2,23,-1
 175 307 l 2,24,0
 194 320 194 320 216 320 c 128,-1,1
EndSplineSet
Validated: 1
EndChar

StartChar: quotereversed
Encoding: 8219 8219 88
Width: 415
GlyphClass: 2
Flags: W
HStem: 973 637<179.178 284.562>
VStem: 50 235<1133.89 1426.14>
LayerCount: 2
Fore
SplineSet
199 1610 m 128,-1,1
 221 1610 221 1610 240 1597 c 2,2,-1
 332 1534 l 2,3,4
 365 1511 365 1511 365 1485 c 0,5,6
 365 1464 365 1464 340 1439 c 0,7,8
 285 1384 285 1384 285 1278 c 0,9,10
 285 1158 285 1158 348 1095 c 0,11,12
 363 1080 363 1080 363 1064 c 0,13,14
 363 1046 363 1046 343 1031 c 2,15,-1
 286 988 l 2,16,17
 266 973 266 973 248 973 c 0,18,19
 225 973 225 973 202 994 c 0,20,21
 50 1133 50 1133 50 1322 c 0,22,23
 50 1493 50 1493 152 1587 c 0,24,0
 177 1610 177 1610 199 1610 c 128,-1,1
EndSplineSet
Validated: 1
EndChar

StartChar: quotedblleft
Encoding: 8220 8220 89
Width: 785
GlyphClass: 2
Flags: W
HStem: 973 637<179.178 284.562 549.178 654.562>
VStem: 50 235<1156.86 1449.11> 420 235<1156.86 1449.11>
LayerCount: 2
Fore
SplineSet
248 1610 m 0,0,1
 266 1610 266 1610 286 1595 c 2,2,-1
 343 1552 l 2,3,4
 363 1537 363 1537 363 1519 c 0,5,6
 363 1503 363 1503 348 1488 c 0,7,8
 285 1425 285 1425 285 1305 c 0,9,10
 285 1199 285 1199 340 1144 c 0,11,12
 365 1119 365 1119 365 1098 c 0,13,14
 365 1072 365 1072 332 1049 c 2,15,-1
 240 986 l 2,16,17
 221 973 221 973 199 973 c 128,-1,18
 177 973 177 973 152 996 c 0,19,20
 50 1090 50 1090 50 1261 c 0,21,22
 50 1450 50 1450 202 1589 c 0,23,24
 225 1610 225 1610 248 1610 c 0,0,1
618 1610 m 0,25,26
 636 1610 636 1610 656 1595 c 2,27,-1
 713 1552 l 2,28,29
 733 1537 733 1537 733 1519 c 0,30,31
 733 1503 733 1503 718 1488 c 0,32,33
 655 1425 655 1425 655 1305 c 0,34,35
 655 1199 655 1199 710 1144 c 0,36,37
 735 1119 735 1119 735 1098 c 0,38,39
 735 1072 735 1072 702 1049 c 2,40,-1
 610 986 l 2,41,42
 591 973 591 973 569 973 c 128,-1,43
 547 973 547 973 522 996 c 0,44,45
 420 1090 420 1090 420 1261 c 0,46,47
 420 1450 420 1450 572 1589 c 0,48,49
 595 1610 595 1610 618 1610 c 0,25,26
EndSplineSet
Validated: 1
EndChar

StartChar: quotedblright
Encoding: 8221 8221 90
Width: 785
GlyphClass: 2
Flags: W
HStem: 973 637<130.438 235.822 500.438 605.822>
VStem: 130 235<1133.89 1426.14> 500 235<1133.89 1426.14>
LayerCount: 2
Fore
SplineSet
586 1610 m 128,-1,1
 608 1610 608 1610 633 1587 c 0,2,3
 735 1493 735 1493 735 1322 c 0,4,5
 735 1133 735 1133 583 994 c 0,6,7
 560 973 560 973 537 973 c 0,8,9
 519 973 519 973 499 988 c 2,10,-1
 442 1031 l 2,11,12
 422 1046 422 1046 422 1064 c 0,13,14
 422 1080 422 1080 437 1095 c 0,15,16
 500 1158 500 1158 500 1278 c 0,17,18
 500 1384 500 1384 445 1439 c 0,19,20
 420 1464 420 1464 420 1485 c 0,21,22
 420 1511 420 1511 453 1534 c 2,23,-1
 545 1597 l 2,24,0
 564 1610 564 1610 586 1610 c 128,-1,1
216 1610 m 128,-1,26
 238 1610 238 1610 263 1587 c 0,27,28
 365 1493 365 1493 365 1322 c 0,29,30
 365 1133 365 1133 213 994 c 0,31,32
 190 973 190 973 167 973 c 0,33,34
 149 973 149 973 129 988 c 2,35,-1
 72 1031 l 2,36,37
 52 1046 52 1046 52 1064 c 0,38,39
 52 1080 52 1080 67 1095 c 0,40,41
 130 1158 130 1158 130 1278 c 0,42,43
 130 1384 130 1384 75 1439 c 0,44,45
 50 1464 50 1464 50 1485 c 0,46,47
 50 1511 50 1511 83 1534 c 2,48,-1
 175 1597 l 2,49,25
 194 1610 194 1610 216 1610 c 128,-1,26
EndSplineSet
Validated: 1
EndChar

StartChar: quotedblbase
Encoding: 8222 8222 91
Width: 785
GlyphClass: 2
Flags: W
HStem: -317 637<130.438 235.822 500.438 605.822>
VStem: 130 235<-156.105 136.144> 500 235<-156.105 136.144>
LayerCount: 2
Fore
SplineSet
586 320 m 128,-1,1
 608 320 608 320 633 297 c 0,2,3
 735 203 735 203 735 32 c 0,4,5
 735 -157 735 -157 583 -296 c 0,6,7
 560 -317 560 -317 537 -317 c 0,8,9
 519 -317 519 -317 499 -302 c 2,10,-1
 442 -259 l 2,11,12
 422 -244 422 -244 422 -226 c 0,13,14
 422 -210 422 -210 437 -195 c 0,15,16
 500 -132 500 -132 500 -12 c 0,17,18
 500 94 500 94 445 149 c 0,19,20
 420 174 420 174 420 195 c 0,21,22
 420 221 420 221 453 244 c 2,23,-1
 545 307 l 2,24,0
 564 320 564 320 586 320 c 128,-1,1
216 320 m 128,-1,26
 238 320 238 320 263 297 c 0,27,28
 365 203 365 203 365 32 c 0,29,30
 365 -157 365 -157 213 -296 c 0,31,32
 190 -317 190 -317 167 -317 c 0,33,34
 149 -317 149 -317 129 -302 c 2,35,-1
 72 -259 l 2,36,37
 52 -244 52 -244 52 -226 c 0,38,39
 52 -210 52 -210 67 -195 c 0,40,41
 130 -132 130 -132 130 -12 c 0,42,43
 130 94 130 94 75 149 c 0,44,45
 50 174 50 174 50 195 c 0,46,47
 50 221 50 221 83 244 c 2,48,-1
 175 307 l 2,49,25
 194 320 194 320 216 320 c 128,-1,26
EndSplineSet
Validated: 1
EndChar

StartChar: dagger
Encoding: 8224 8224 92
Width: 1150
GlyphClass: 2
Flags: W
HStem: 0 21G<455 695> 918 300<95 415 735 1055> 1490 20G<455 695>
VStem: 415 320<4.9375 918 1218 1505.06>
LayerCount: 2
Fore
SplineSet
495 0 m 2,0,1
 415 0 415 0 415 79 c 2,2,-1
 415 918 l 1,3,-1
 170 918 l 2,4,5
 90 918 90 918 90 997 c 2,6,-1
 90 1139 l 2,7,8
 90 1218 90 1218 170 1218 c 2,9,-1
 415 1218 l 1,10,-1
 415 1431 l 2,11,12
 415 1510 415 1510 495 1510 c 2,13,-1
 655 1510 l 2,14,15
 735 1510 735 1510 735 1431 c 2,16,-1
 735 1218 l 1,17,-1
 980 1218 l 2,18,19
 1060 1218 1060 1218 1060 1139 c 2,20,-1
 1060 997 l 2,21,22
 1060 918 1060 918 980 918 c 2,23,-1
 735 918 l 1,24,-1
 735 79 l 2,25,26
 735 0 735 0 655 0 c 2,27,-1
 495 0 l 2,0,1
EndSplineSet
Validated: 1
EndChar

StartChar: daggerdbl
Encoding: 8225 8225 93
Width: 1150
GlyphClass: 2
Flags: W
HStem: 0 21G<455 695> 292 300<95 415 735 1055> 918 300<95 415 735 1055> 1490 20G<455 695>
VStem: 415 320<4.9375 292 592 918 1218 1505.06>
LayerCount: 2
Fore
SplineSet
655 0 m 2,0,-1
 495 0 l 2,1,2
 415 0 415 0 415 79 c 2,3,-1
 415 292 l 1,4,-1
 170 292 l 2,5,6
 90 292 90 292 90 371 c 2,7,-1
 90 513 l 2,8,9
 90 592 90 592 170 592 c 2,10,-1
 415 592 l 1,11,-1
 415 918 l 1,12,-1
 170 918 l 2,13,14
 90 918 90 918 90 997 c 2,15,-1
 90 1139 l 2,16,17
 90 1218 90 1218 170 1218 c 2,18,-1
 415 1218 l 1,19,-1
 415 1431 l 2,20,21
 415 1510 415 1510 495 1510 c 2,22,-1
 655 1510 l 2,23,24
 735 1510 735 1510 735 1431 c 2,25,-1
 735 1218 l 1,26,-1
 980 1218 l 2,27,28
 1060 1218 1060 1218 1060 1139 c 2,29,-1
 1060 997 l 2,30,31
 1060 918 1060 918 980 918 c 2,32,-1
 735 918 l 1,33,-1
 735 592 l 1,34,-1
 980 592 l 2,35,36
 1060 592 1060 592 1060 513 c 2,37,-1
 1060 371 l 2,38,39
 1060 292 1060 292 980 292 c 2,40,-1
 735 292 l 1,41,-1
 735 79 l 2,42,43
 735 0 735 0 655 0 c 2,0,-1
EndSplineSet
Validated: 1
EndChar

StartChar: bullet
Encoding: 8226 8226 94
Width: 888
GlyphClass: 2
Flags: W
HStem: 385 740<268.128 619.872>
VStem: 80 728<576.566 933.434>
LayerCount: 2
Fore
SplineSet
444 1125 m 128,-1,1
 596 1125 596 1125 702 1017 c 128,-1,2
 808 909 808 909 808 755 c 128,-1,3
 808 601 808 601 702 493 c 128,-1,4
 596 385 596 385 444 385 c 128,-1,5
 292 385 292 385 186 493 c 128,-1,6
 80 601 80 601 80 755 c 128,-1,7
 80 909 80 909 186 1017 c 128,-1,0
 292 1125 292 1125 444 1125 c 128,-1,1
EndSplineSet
Validated: 1
EndChar

StartChar: ellipsis
Encoding: 8230 8230 95
Width: 1332
GlyphClass: 2
Flags: W
HStem: -20 365<112.131 346.878 548.131 782.878 984.131 1218.88>
VStem: 50 360<42.5657 282.578> 486 360<42.5657 282.578> 922 360<42.5657 282.578>
CounterMasks: 1 70
LayerCount: 2
Fore
SplineSet
1102 -20 m 0,0,1
 1026 -20 1026 -20 974 34 c 128,-1,2
 922 88 922 88 922 162 c 0,3,4
 922 238 922 238 974 291 c 0,5,6
 1027 345 1027 345 1102 345 c 128,-1,7
 1177 345 1177 345 1229.5 291.5 c 128,-1,8
 1282 238 1282 238 1282 163 c 128,-1,9
 1282 88 1282 88 1229 34 c 128,-1,10
 1176 -20 1176 -20 1102 -20 c 0,0,1
666 -20 m 0,11,12
 590 -20 590 -20 538 34 c 128,-1,13
 486 88 486 88 486 162 c 0,14,15
 486 238 486 238 538 291 c 0,16,17
 591 345 591 345 666 345 c 128,-1,18
 741 345 741 345 793.5 291.5 c 128,-1,19
 846 238 846 238 846 163 c 128,-1,20
 846 88 846 88 793 34 c 128,-1,21
 740 -20 740 -20 666 -20 c 0,11,12
230 -20 m 0,22,23
 154 -20 154 -20 102 34 c 128,-1,24
 50 88 50 88 50 162 c 0,25,26
 50 238 50 238 102 291 c 0,27,28
 155 345 155 345 230 345 c 128,-1,29
 305 345 305 345 357.5 291.5 c 128,-1,30
 410 238 410 238 410 163 c 128,-1,31
 410 88 410 88 357 34 c 128,-1,32
 304 -20 304 -20 230 -20 c 0,22,23
EndSplineSet
Validated: 1
EndChar

StartChar: perthousand
Encoding: 8240 8240 96
Width: 2564
GlyphClass: 2
Flags: W
HStem: -20 205<1239.83 1433.27 2017.83 2211.27> 516 206<1240.49 1433.93 2018.49 2211.93> 788 206<352.069 545.512> 1325 205<352.73 546.173>
VStem: 80 228<1041.02 1278.79> 589 228<1039.71 1279.83> 969 228<230.173 470.291> 1478 228<231.209 468.981> 1747 228<230.173 470.291> 2256 228<231.209 468.981>
DStem2: 369 129 593 0 0.512391 0.858752<-42.1899 1653.77>
LayerCount: 2
Fore
SplineSet
2114 185 m 128,-1,1
 2174 185 2174 185 2215 232.5 c 128,-1,2
 2256 280 2256 280 2256 350.5 c 128,-1,3
 2256 421 2256 421 2215 468.5 c 128,-1,4
 2174 516 2174 516 2114 516 c 128,-1,5
 2054 516 2054 516 2014.5 468.5 c 128,-1,6
 1975 421 1975 421 1975 350.5 c 128,-1,7
 1975 280 1975 280 2014.5 232.5 c 128,-1,0
 2054 185 2054 185 2114 185 c 128,-1,1
2115 -20 m 0,8,9
 1960 -20 1960 -20 1855 89 c 0,10,11
 1747 199 1747 199 1747 352 c 0,12,13
 1747 506 1747 506 1855 613 c 0,14,15
 1963 722 1963 722 2115 722 c 0,16,17
 2270 722 2270 722 2376 613 c 0,18,19
 2484 502 2484 502 2484 350 c 0,20,21
 2484 196 2484 196 2376 89 c 0,22,23
 2267 -20 2267 -20 2115 -20 c 0,8,9
1336 185 m 128,-1,25
 1396 185 1396 185 1437 232.5 c 128,-1,26
 1478 280 1478 280 1478 350.5 c 128,-1,27
 1478 421 1478 421 1437 468.5 c 128,-1,28
 1396 516 1396 516 1336 516 c 128,-1,29
 1276 516 1276 516 1236.5 468.5 c 128,-1,30
 1197 421 1197 421 1197 350.5 c 128,-1,31
 1197 280 1197 280 1236.5 232.5 c 128,-1,24
 1276 185 1276 185 1336 185 c 128,-1,25
1337 -20 m 0,32,33
 1182 -20 1182 -20 1077 89 c 0,34,35
 969 199 969 199 969 352 c 0,36,37
 969 506 969 506 1077 613 c 0,38,39
 1185 722 1185 722 1337 722 c 0,40,41
 1492 722 1492 722 1598 613 c 0,42,43
 1706 502 1706 502 1706 350 c 0,44,45
 1706 196 1706 196 1598 89 c 0,46,47
 1489 -20 1489 -20 1337 -20 c 0,32,33
450 1325 m 128,-1,49
 390 1325 390 1325 349 1277.5 c 128,-1,50
 308 1230 308 1230 308 1159.5 c 128,-1,51
 308 1089 308 1089 349 1041.5 c 128,-1,52
 390 994 390 994 450 994 c 128,-1,53
 510 994 510 994 549.5 1041.5 c 128,-1,54
 589 1089 589 1089 589 1159.5 c 128,-1,55
 589 1230 589 1230 549.5 1277.5 c 128,-1,48
 510 1325 510 1325 450 1325 c 128,-1,49
449 1530 m 0,56,57
 604 1530 604 1530 709 1421 c 0,58,59
 817 1311 817 1311 817 1158 c 0,60,61
 817 1004 817 1004 709 897 c 0,62,63
 601 788 601 788 449 788 c 0,64,65
 294 788 294 788 188 897 c 0,66,67
 80 1008 80 1008 80 1160 c 0,68,69
 80 1314 80 1314 188 1421 c 0,70,71
 297 1530 297 1530 449 1530 c 0,56,57
1250 1550 m 0,72,73
 1269 1550 1269 1550 1292 1537 c 2,74,-1
 1390 1481 l 2,75,76
 1429 1459 1429 1459 1429 1423 c 0,77,78
 1429 1401 1429 1401 1417 1381 c 2,79,-1
 593 0 l 2,80,81
 569 -40 569 -40 538 -40 c 0,82,83
 516 -40 516 -40 493 -27 c 2,84,-1
 395 29 l 2,85,86
 356 51 356 51 356 87 c 0,87,88
 356 107 356 107 369 129 c 2,89,-1
 1193 1510 l 2,90,91
 1217 1550 1217 1550 1250 1550 c 0,72,73
EndSplineSet
Validated: 1
EndChar

StartChar: minute
Encoding: 8242 8242 97
Width: 416
GlyphClass: 2
Flags: W
HStem: 1150 420<142.656 236.094>
VStem: 50 316
LayerCount: 2
Fore
SplineSet
179 1570 m 0,0,1
 186 1570 186 1570 197 1566 c 2,2,-1
 337 1516 l 2,3,4
 366 1506 366 1506 366 1483 c 0,5,6
 366 1472 366 1472 360 1459 c 2,7,-1
 230 1178 l 2,8,9
 217 1150 217 1150 194 1150 c 0,10,11
 187 1150 187 1150 176 1154 c 2,12,-1
 79 1190 l 2,13,14
 50 1201 50 1201 50 1224 c 0,15,16
 50 1230 50 1230 53 1240 c 2,17,-1
 147 1540 l 2,18,19
 156 1570 156 1570 179 1570 c 0,0,1
EndSplineSet
Validated: 1
EndChar

StartChar: second
Encoding: 8243 8243 98
Width: 736
GlyphClass: 2
Flags: W
HStem: 1150 420<142.656 236.094 462.656 556.094>
VStem: 50 636
LayerCount: 2
Fore
SplineSet
499 1570 m 0,0,1
 506 1570 506 1570 517 1566 c 2,2,-1
 657 1516 l 2,3,4
 686 1506 686 1506 686 1483 c 0,5,6
 686 1472 686 1472 680 1459 c 2,7,-1
 550 1178 l 2,8,9
 537 1150 537 1150 514 1150 c 0,10,11
 507 1150 507 1150 496 1154 c 2,12,-1
 399 1190 l 2,13,14
 370 1201 370 1201 370 1224 c 0,15,16
 370 1230 370 1230 373 1240 c 2,17,-1
 467 1540 l 2,18,19
 476 1570 476 1570 499 1570 c 0,0,1
179 1570 m 0,20,21
 186 1570 186 1570 197 1566 c 2,22,-1
 337 1516 l 2,23,24
 366 1506 366 1506 366 1483 c 0,25,26
 366 1472 366 1472 360 1459 c 2,27,-1
 230 1178 l 2,28,29
 217 1150 217 1150 194 1150 c 0,30,31
 187 1150 187 1150 176 1154 c 2,32,-1
 79 1190 l 2,33,34
 50 1201 50 1201 50 1224 c 0,35,36
 50 1230 50 1230 53 1240 c 2,37,-1
 147 1540 l 2,38,39
 156 1570 156 1570 179 1570 c 0,20,21
EndSplineSet
Validated: 1
EndChar

StartChar: guilsinglleft
Encoding: 8249 8249 99
Width: 784
GlyphClass: 2
Flags: W
VStem: 80 564
DStem2: 92 791 336 765 0.576683 0.816968<119.47 648.985> 336 765 92 720 0.575413 -0.817863<0 539.205>
LayerCount: 2
Fore
SplineSet
80 756 m 0,0,1
 80 774 80 774 92 791 c 2,2,-1
 452 1301 l 2,3,4
 468 1323 468 1323 490 1323 c 0,5,6
 505 1323 505 1323 522 1310 c 2,7,-1
 617 1236 l 2,8,9
 640 1218 640 1218 640 1199 c 0,10,11
 640 1185 640 1185 626 1166 c 2,12,-1
 336 765 l 1,13,-1
 630 355 l 2,14,15
 644 335 644 335 644 322 c 0,16,17
 644 303 644 303 621 285 c 2,18,-1
 518 205 l 2,19,20
 501 192 501 192 486 192 c 0,21,22
 463 192 463 192 448 214 c 2,23,-1
 92 720 l 2,24,25
 80 737 80 737 80 756 c 0,0,1
EndSplineSet
Validated: 1
EndChar

StartChar: guilsinglright
Encoding: 8250 8250 100
Width: 784
GlyphClass: 2
Flags: W
VStem: 140 564
DStem2: 336 1301 154 1160 0.575413 -0.817863<-24.1162 515.089> 448 750 332 214 0.576683 0.816968<-529.515 0>
LayerCount: 2
Fore
SplineSet
704 759 m 0,0,1
 704 741 704 741 692 724 c 2,2,-1
 332 214 l 2,3,4
 316 192 316 192 294 192 c 0,5,6
 279 192 279 192 262 205 c 2,7,-1
 167 279 l 2,8,9
 144 297 144 297 144 316 c 0,10,11
 144 330 144 330 158 349 c 2,12,-1
 448 750 l 1,13,-1
 154 1160 l 2,14,15
 140 1180 140 1180 140 1193 c 0,16,17
 140 1212 140 1212 163 1230 c 2,18,-1
 266 1310 l 2,19,20
 283 1323 283 1323 298 1323 c 0,21,22
 321 1323 321 1323 336 1301 c 2,23,-1
 692 795 l 2,24,25
 704 778 704 778 704 759 c 0,0,1
EndSplineSet
Validated: 1
EndChar

StartChar: fraction
Encoding: 8260 8260 101
Width: 1093
GlyphClass: 2
Flags: W
DStem2: 23 129 247 0 0.512391 0.858752<-42.1899 1653.77>
LayerCount: 2
Fore
SplineSet
904 1550 m 0,0,1
 923 1550 923 1550 946 1537 c 2,2,-1
 1044 1481 l 2,3,4
 1083 1459 1083 1459 1083 1423 c 0,5,6
 1083 1401 1083 1401 1071 1381 c 2,7,-1
 247 0 l 2,8,9
 223 -40 223 -40 192 -40 c 0,10,11
 170 -40 170 -40 147 -27 c 2,12,-1
 49 29 l 2,13,14
 10 51 10 51 10 87 c 0,15,16
 10 107 10 107 23 129 c 2,17,-1
 847 1510 l 2,18,19
 871 1550 871 1550 904 1550 c 0,0,1
EndSplineSet
Validated: 1
EndChar

StartChar: Euro
Encoding: 8364 8364 102
Width: 1491
GlyphClass: 2
Flags: W
HStem: -20 300<685.318 1044.11> 519 180<50 147 516 1004> 811 180<50 146 517 1004> 1230 300<679.859 1039.59>
VStem: 145 329<699 811>
LayerCount: 2
Fore
SplineSet
862 -20 m 128,-1,1
 534 -20 534 -20 336 211 c 0,2,3
 220 347 220 347 174 519 c 1,4,-1
 95 519 l 2,5,6
 50 519 50 519 50 564 c 2,7,-1
 50 654 l 2,8,9
 50 699 50 699 95 699 c 2,10,-1
 147 699 l 1,11,12
 145 727 145 727 145 755 c 128,-1,13
 145 783 145 783 146 811 c 1,14,-1
 95 811 l 2,15,16
 50 811 50 811 50 856 c 2,17,-1
 50 946 l 2,18,19
 50 991 50 991 95 991 c 2,20,-1
 174 991 l 1,21,22
 219 1164 219 1164 336 1299 c 0,23,24
 535 1530 535 1530 862 1530 c 0,25,26
 1191 1530 1191 1530 1388 1299 c 0,27,28
 1411 1272 1411 1272 1411 1247 c 0,29,30
 1411 1215 1411 1215 1376 1187 c 2,31,-1
 1255 1089 l 2,32,33
 1227 1066 1227 1066 1202 1066 c 0,34,35
 1170 1066 1170 1066 1143 1100 c 0,36,37
 1040 1230 1040 1230 861 1230 c 0,38,39
 688 1230 688 1230 586 1106 c 0,40,41
 543 1054 543 1054 517 991 c 1,42,-1
 959 991 l 2,43,44
 1004 991 1004 991 1004 946 c 2,45,-1
 1004 856 l 2,46,47
 1004 811 1004 811 959 811 c 2,48,-1
 476 811 l 1,49,50
 474 784 474 784 474 755 c 128,-1,51
 474 726 474 726 476 699 c 1,52,-1
 959 699 l 2,53,54
 1004 699 1004 699 1004 654 c 2,55,-1
 1004 564 l 2,56,57
 1004 519 1004 519 959 519 c 2,58,-1
 516 519 l 1,59,60
 543 455 543 455 586 404 c 0,61,62
 692 280 692 280 863 280 c 0,63,64
 1040 280 1040 280 1143 410 c 0,65,66
 1170 444 1170 444 1202 444 c 0,67,68
 1227 444 1227 444 1255 421 c 2,69,-1
 1376 323 l 2,70,71
 1411 295 1411 295 1411 263 c 0,72,73
 1411 238 1411 238 1388 211 c 0,74,0
 1190 -20 1190 -20 862 -20 c 128,-1,1
EndSplineSet
Validated: 1
EndChar

StartChar: afii61248
Encoding: 8453 8453 103
Width: 1831
GlyphClass: 2
Flags: W
HStem: -20 191<1250.92 1474.89> 602 191<1251.47 1474.22> 717 191<356.223 583.064> 1340 190<357.233 582.625>
VStem: 90 205<971.636 1276.33> 985 205<232.384 539.095> 1536 205<233.573 537.657>
DStem2: 377 129 601 0 0.512391 0.858752<-42.1899 1653.77>
LayerCount: 2
Fore
SplineSet
1361.5 602 m 128,-1,1
 1285 602 1285 602 1237.5 543.5 c 128,-1,2
 1190 485 1190 485 1190 384.5 c 128,-1,3
 1190 284 1190 284 1238.5 227.5 c 128,-1,4
 1287 171 1287 171 1364 171 c 128,-1,5
 1441 171 1441 171 1488.5 229 c 128,-1,6
 1536 287 1536 287 1536 387.5 c 128,-1,7
 1536 488 1536 488 1487 545 c 128,-1,0
 1438 602 1438 602 1361.5 602 c 128,-1,1
1363.5 793 m 128,-1,9
 1536 793 1536 793 1641 672 c 0,10,11
 1741 552 1741 552 1741 385 c 128,-1,12
 1741 218 1741 218 1638.5 99 c 128,-1,13
 1536 -20 1536 -20 1363 -20 c 128,-1,14
 1190 -20 1190 -20 1087.5 100 c 128,-1,15
 985 220 985 220 985 387.5 c 128,-1,16
 985 555 985 555 1088 674 c 128,-1,8
 1191 793 1191 793 1363.5 793 c 128,-1,9
468 1530 m 0,17,18
 649 1530 649 1530 746 1409 c 0,19,20
 762 1389 762 1389 762 1366 c 0,21,22
 762 1345 762 1345 737 1324 c 2,23,-1
 678 1275 l 2,24,25
 659 1259 659 1259 636 1259 c 128,-1,26
 613 1259 613 1259 593 1284 c 0,27,28
 548 1340 548 1340 468 1340 c 0,29,30
 391 1340 391 1340 343 1281 c 128,-1,31
 295 1222 295 1222 295 1121.5 c 128,-1,32
 295 1021 295 1021 344 964.5 c 128,-1,33
 393 908 393 908 470 908 c 128,-1,34
 547 908 547 908 593 963 c 0,35,36
 614 988 614 988 636 988 c 0,37,38
 659 988 659 988 678 972 c 2,39,-1
 737 923 l 2,40,41
 762 902 762 902 762 880 c 0,42,43
 762 857 762 857 746 838 c 0,44,45
 641 717 641 717 468 717 c 128,-1,46
 295 717 295 717 192.5 837 c 128,-1,47
 90 957 90 957 90 1124.5 c 128,-1,48
 90 1292 90 1292 192.5 1411 c 128,-1,49
 295 1530 295 1530 468 1530 c 0,17,18
1258 1550 m 0,50,51
 1277 1550 1277 1550 1300 1537 c 2,52,-1
 1398 1481 l 2,53,54
 1437 1459 1437 1459 1437 1423 c 0,55,56
 1437 1401 1437 1401 1425 1381 c 2,57,-1
 601 0 l 2,58,59
 577 -40 577 -40 546 -40 c 0,60,61
 524 -40 524 -40 501 -27 c 2,62,-1
 403 29 l 2,63,64
 364 51 364 51 364 87 c 0,65,66
 364 107 364 107 377 129 c 2,67,-1
 1201 1510 l 2,68,69
 1225 1550 1225 1550 1258 1550 c 0,50,51
EndSplineSet
Validated: 1
EndChar

StartChar: afii61289
Encoding: 8467 8467 104
Width: 1197
GlyphClass: 2
Flags: W
HStem: 0 1G<80 456.273 606 715> 1510 20G<774.5 872>
LayerCount: 2
Fore
SplineSet
660 -20 m 0,0,1
 552 -20 552 -20 471 44 c 1,2,-1
 444 0 l 1,3,-1
 80 0 l 1,4,5
 242 162 242 162 345 325 c 1,6,7
 334 420 334 420 334 524 c 0,8,9
 334 686 334 686 381 865 c 0,10,11
 479 1240 479 1240 631 1423 c 0,12,13
 719 1530 719 1530 830 1530 c 0,14,15
 914 1530 914 1530 964 1480 c 0,16,17
 1028 1416 1028 1416 1028 1281 c 0,18,19
 1028 1186 1028 1186 999 1041 c 0,20,21
 929 688 929 688 646 272 c 1,22,23
 648 216 648 216 669 216 c 128,-1,24
 690 216 690 216 715 260 c 0,25,26
 730 286 730 286 741 319 c 1,27,-1
 1057 319 l 1,28,29
 964 144 964 144 867 62 c 128,-1,30
 770 -20 770 -20 660 -20 c 0,0,1
EndSplineSet
Validated: 1
EndChar

StartChar: trademark
Encoding: 8482 8482 105
Width: 1697
GlyphClass: 2
Flags: W
HStem: 1339 191<71.1865 287 487 702.813>
VStem: 287 200<736.167 1339>
DStem2: 693 795 891 793 0.0707235 0.997496<-47.8504 385.913> 1563 1473 1383 1166 0.0648558 -0.997895<294.68 728.56>
LayerCount: 2
Fore
SplineSet
964 1530 m 2,0,1
 1015 1530 1015 1530 1027 1483 c 2,2,-1
 1150 1009 l 1,3,-1
 1274 1483 l 2,4,5
 1286 1530 1286 1530 1338 1530 c 2,6,-1
 1501 1530 l 2,7,8
 1559 1530 1559 1530 1563 1473 c 2,9,-1
 1607 796 l 17,10,11
 1607 735 1607 735 1549 735 c 2,12,-1
 1469 735 l 2,13,14
 1411 735 1411 735 1407 793 c 2,15,-1
 1383 1166 l 1,16,-1
 1282 783 l 2,17,18
 1269 735 1269 735 1220 735 c 2,19,-1
 1079 735 l 2,20,21
 1028 735 1028 735 1016 782 c 2,22,-1
 917 1166 l 1,23,-1
 891 793 l 2,24,25
 887 735 887 735 829 735 c 2,26,-1
 750 735 l 2,27,28
 693 735 693 735 693 795 c 9,29,-1
 741 1472 l 2,30,31
 745 1530 745 1530 803 1530 c 2,32,-1
 964 1530 l 2,0,1
287 794 m 2,33,-1
 287 1339 l 1,34,-1
 130 1339 l 2,35,36
 70 1339 70 1339 70 1399 c 2,37,-1
 70 1471 l 2,38,39
 70 1530 70 1530 130 1530 c 2,40,-1
 644 1530 l 2,41,42
 704 1530 704 1530 704 1471 c 2,43,-1
 704 1399 l 2,44,45
 704 1339 704 1339 644 1339 c 2,46,-1
 487 1339 l 1,47,-1
 487 794 l 2,48,49
 487 735 487 735 427 735 c 2,50,-1
 347 735 l 2,51,52
 287 735 287 735 287 794 c 2,33,-1
EndSplineSet
Validated: 1
EndChar

StartChar: uni2126
Encoding: 8486 8486 106
Width: 1614
GlyphClass: 2
Flags: W
HStem: 0 300<95 263 603 739.648 874.352 1011 1351 1519> 1230 300<629.308 983.6>
VStem: 90 329<524.879 985.804> 1195 329<524.879 990.188>
LayerCount: 2
Fore
SplineSet
666 0 m 2,0,1
 170 0 l 2,2,3
 90 0 90 0 90 79 c 2,4,-1
 90 221 l 2,5,6
 90 300 90 300 170 300 c 2,7,-1
 263 300 l 1,8,9
 90 490 90 490 90 769 c 0,10,11
 91 1087 91 1087 281 1303 c 0,12,13
 480 1530 480 1530 807 1530 c 0,14,15
 1135 1530 1135 1530 1333 1303 c 0,16,17
 1524 1083 1524 1083 1524 769 c 0,18,19
 1524 490 1524 490 1351 300 c 1,20,-1
 1444 300 l 2,21,22
 1524 300 1524 300 1524 221 c 2,23,-1
 1524 79 l 2,24,25
 1524 0 1524 0 1444 0 c 2,26,27
 948 0 l 2,28,29
 868 0 868 0 868 79 c 2,30,-1
 868 221 l 2,31,32
 868 280 868 280 927 300 c 16,33,34
 1017 331 1017 331 1083 412 c 0,35,36
 1195 549 1195 549 1195 743 c 0,37,38
 1195 968 1195 968 1083 1103 c 0,39,40
 977 1230 977 1230 805 1230 c 128,-1,41
 633 1230 633 1230 531 1103 c 0,42,43
 419 964 419 964 419 743 c 0,44,45
 419 549 419 549 531 412 c 0,46,47
 597 331 597 331 687 300 c 8,48,49
 746 280 746 280 746 221 c 2,50,-1
 746 79 l 2,51,52
 746 0 746 0 666 0 c 2,0,1
EndSplineSet
Validated: 1
EndChar

StartChar: estimated
Encoding: 8494 8494 107
Width: 1261
GlyphClass: 2
Flags: W
HStem: -20 183<451.95 808.867> 491 189<403 855> 935 185<449.039 809.176>
VStem: 70 333<316.826 491 680 791.88>
LayerCount: 2
Fore
SplineSet
629 -20 m 0,0,1
 378 -20 378 -20 224 145 c 128,-1,2
 70 310 70 310 70 553 c 0,3,4
 70 802 70 802 226 960 c 0,5,6
 384 1120 384 1120 626 1120 c 0,7,8
 869 1120 869 1120 1017 974 c 0,9,10
 1191 802 1191 802 1191 491 c 1,11,-1
 403 491 l 1,12,-1
 403 239 l 1,13,14
 498 163 498 163 629 163 c 0,15,16
 837 163 837 163 955 351 c 1,17,-1
 1119 255 l 1,18,19
 995 85 995 85 876 32.5 c 128,-1,20
 757 -20 757 -20 629 -20 c 0,0,1
855 680 m 1,21,-1
 855 862 l 1,22,23
 757 935 757 935 627 935 c 0,24,25
 495 935 495 935 403 861 c 1,26,-1
 403 680 l 1,27,-1
 855 680 l 1,21,-1
EndSplineSet
Validated: 1
EndChar

StartChar: partialdiff
Encoding: 8706 8706 108
Width: 1265
GlyphClass: 2
Flags: W
HStem: -20 273<422.903 636.396> 823 260<547.1 796.76> 1257 273<472.596 796.913>
VStem: 80 305<291.814 617.824> 876 309<1024 1178.17>
LayerCount: 2
Fore
SplineSet
502 -20 m 0,0,1
 232 -20 232 -20 133 171 c 0,2,3
 80 273 80 273 80 416 c 0,4,5
 80 673 80 673 234 878 c 128,-1,6
 388 1083 388 1083 660 1083 c 0,7,8
 779 1083 779 1083 876 1024 c 1,9,10
 873 1115 873 1115 835 1173 c 0,11,12
 778 1257 778 1257 656 1257 c 0,13,14
 501 1257 501 1257 350 1132 c 1,15,-1
 350 1443 l 1,16,17
 496 1530 496 1530 693 1530 c 0,18,19
 1010 1530 1010 1530 1126 1271 c 0,20,21
 1185 1139 1185 1139 1185 950 c 0,22,23
 1185 563 1185 563 1002 272 c 0,24,25
 821 -20 821 -20 502 -20 c 0,0,1
849 699 m 1,26,27
 828 756 828 756 785 788 c 0,28,29
 738 823 738 823 670 823 c 0,30,31
 561 823 561 823 480 706 c 0,32,33
 385 567 385 567 385 431 c 0,34,35
 385 344 385 344 423 295 c 0,36,37
 455 253 455 253 515 253 c 0,38,39
 622 253 622 253 717 376 c 128,-1,40
 812 499 812 499 849 699 c 1,26,27
EndSplineSet
Validated: 1
EndChar

StartChar: uni2206
Encoding: 8710 8710 109
Width: 1474
GlyphClass: 2
Flags: W
HStem: 0 300<412 1052> 1231 279<574 900>
DStem2: 14 77 412 300 0.324925 0.94574<340.22 1324.68> 990 1445 732 1231 0.324925 -0.94574<118.558 1103.02>
LayerCount: 2
Fore
SplineSet
67 0 m 2,0,1
 10 0 10 0 10 51 c 0,2,3
 10 65 10 65 14 77 c 2,4,-1
 484 1445 l 2,5,6
 506 1510 506 1510 574 1510 c 2,7,-1
 900 1510 l 2,8,9
 968 1510 968 1510 990 1445 c 2,10,-1
 1460 77 l 2,11,12
 1464 65 1464 65 1464 52 c 0,13,14
 1464 0 1464 0 1407 0 c 2,15,-1
 67 0 l 2,0,1
412 300 m 1,16,-1
 1052 300 l 1,17,-1
 732 1231 l 1,18,-1
 412 300 l 1,16,-1
EndSplineSet
Validated: 1
EndChar

StartChar: product
Encoding: 8719 8719 110
Width: 1400
GlyphClass: 2
Flags: W
HStem: -410 21G<180 420 980 1220> 1210 300<460 940>
VStem: 140 320<-405.062 1210> 940 320<-405.062 1210>
LayerCount: 2
Fore
SplineSet
220 -410 m 2,0,1
 140 -410 140 -410 140 -331 c 2,2,-1
 140 1431 l 2,3,4
 140 1510 140 1510 220 1510 c 2,5,-1
 1180 1510 l 2,6,7
 1260 1510 1260 1510 1260 1431 c 2,8,-1
 1260 -331 l 2,9,10
 1260 -410 1260 -410 1180 -410 c 2,11,-1
 1020 -410 l 2,12,13
 940 -410 940 -410 940 -331 c 2,14,-1
 940 1210 l 1,15,-1
 460 1210 l 1,16,-1
 460 -331 l 2,17,18
 460 -410 460 -410 380 -410 c 2,19,-1
 220 -410 l 2,0,1
EndSplineSet
Validated: 1
EndChar

StartChar: summation
Encoding: 8721 8721 111
Width: 1212
GlyphClass: 2
Flags: W
HStem: -410 300<517 1117> 1210 300<520 1093>
DStem2: 520 1210 20 1431 0.511949 -0.859016<0 536.703> 51 -331 517 -110 0.45726 0.889333<409.626 1032.23>
LayerCount: 2
Fore
SplineSet
51 -331 m 2,0,1
 523 587 l 1,2,-1
 20 1431 l 2,3,4
 10 1448 10 1448 10 1466 c 0,5,6
 10 1510 10 1510 65 1510 c 2,7,-1
 1018 1510 l 2,8,9
 1098 1510 1098 1510 1098 1431 c 2,10,-1
 1098 1289 l 2,11,12
 1098 1210 1098 1210 1018 1210 c 2,13,-1
 520 1210 l 1,14,-1
 852 660 l 2,15,16
 870 630 870 630 870 592 c 0,17,18
 870 567 870 567 850 529 c 2,19,-1
 517 -110 l 1,20,-1
 1042 -110 l 2,21,22
 1122 -110 1122 -110 1122 -189 c 2,23,-1
 1122 -331 l 2,24,25
 1122 -410 1122 -410 1042 -410 c 2,26,-1
 96 -410 l 2,27,28
 41 -410 41 -410 41 -366 c 0,29,30
 41 -350 41 -350 51 -331 c 2,0,1
EndSplineSet
Validated: 1
EndChar

StartChar: minus
Encoding: 8722 8722 112
Width: 1133
GlyphClass: 2
Flags: W
HStem: 630 250<91.9202 1041.08>
LayerCount: 2
Fore
SplineSet
155 880 m 2,0,-1
 978 880 l 2,1,2
 1043 880 1043 880 1043 815 c 2,3,-1
 1043 695 l 2,4,5
 1043 630 1043 630 978 630 c 2,6,-1
 155 630 l 2,7,8
 90 630 90 630 90 695 c 2,9,-1
 90 815 l 2,10,11
 90 880 90 880 155 880 c 2,0,-1
EndSplineSet
Validated: 1
EndChar

StartChar: uni2215
Encoding: 8725 8725 113
Width: 1093
GlyphClass: 2
Flags: W
DStem2: 23 129 247 0 0.512391 0.858752<-42.1899 1653.77>
LayerCount: 2
Fore
SplineSet
904 1550 m 0,0,1
 923 1550 923 1550 946 1537 c 2,2,-1
 1044 1481 l 2,3,4
 1083 1459 1083 1459 1083 1423 c 0,5,6
 1083 1401 1083 1401 1071 1381 c 2,7,-1
 247 0 l 2,8,9
 223 -40 223 -40 192 -40 c 0,10,11
 170 -40 170 -40 147 -27 c 2,12,-1
 49 29 l 2,13,14
 10 51 10 51 10 87 c 0,15,16
 10 107 10 107 23 129 c 2,17,-1
 847 1510 l 2,18,19
 871 1550 871 1550 904 1550 c 0,0,1
EndSplineSet
Validated: 1
EndChar

StartChar: uni2219
Encoding: 8729 8729 114
Width: 460
GlyphClass: 2
Flags: W
HStem: 573 365<112.131 346.878>
VStem: 50 360<635.566 875.578>
LayerCount: 2
Fore
SplineSet
230 938 m 128,-1,1
 305 938 305 938 357.5 884.5 c 128,-1,2
 410 831 410 831 410 756 c 128,-1,3
 410 681 410 681 357 627 c 128,-1,4
 304 573 304 573 230 573 c 0,5,6
 154 573 154 573 102 627 c 128,-1,7
 50 681 50 681 50 755 c 0,8,9
 50 831 50 831 102 884 c 0,10,0
 155 938 155 938 230 938 c 128,-1,1
EndSplineSet
Validated: 1
EndChar

StartChar: radical
Encoding: 8730 8730 115
Width: 1372
GlyphClass: 2
Flags: W
HStem: 0 21G<425.5 732.5> 553 280<25 180> 1230 280<1131 1347>
DStem2: 568 338 787 65 0.283191 0.959063<0 1014.92>
LayerCount: 2
Fore
SplineSet
697 0 m 2,0,-1
 458 0 l 2,1,2
 393 0 393 0 368 65 c 2,3,-1
 180 552 l 1,4,-1
 100 553 l 2,5,6
 20 554 20 554 20 632 c 2,7,-1
 20 754 l 2,8,9
 20 833 20 833 100 833 c 2,10,-1
 311 833 l 2,11,12
 391 833 391 833 416 762 c 2,13,-1
 568 338 l 1,14,-1
 891 1432 l 2,15,16
 914 1510 914 1510 999 1510 c 2,17,-1
 1272 1510 l 2,18,19
 1352 1510 1352 1510 1352 1431 c 2,20,-1
 1352 1309 l 2,21,22
 1352 1230 1352 1230 1272 1230 c 2,23,-1
 1131 1230 l 1,24,-1
 787 65 l 2,25,26
 768 0 768 0 697 0 c 2,0,-1
EndSplineSet
Validated: 1
EndChar

StartChar: infinity
Encoding: 8734 8734 116
Width: 1416
GlyphClass: 2
Flags: W
HStem: 384 204<332.406 555.594 860.406 1083.59> 920 204<332.406 555.594 860.406 1083.59>
VStem: 80 200<640.129 867.871> 608 200<639.551 868.449> 1136 200<640.129 867.871>
CounterMasks: 1 38
LayerCount: 2
Fore
SplineSet
444 1124 m 128,-1,1
 596 1124 596 1124 702 1016 c 0,2,3
 705 1013 705 1013 708 1010 c 1,4,5
 711 1013 711 1013 714 1016 c 0,6,7
 820 1124 820 1124 972 1124 c 128,-1,8
 1124 1124 1124 1124 1230 1016 c 128,-1,9
 1336 908 1336 908 1336 754 c 128,-1,10
 1336 600 1336 600 1230 492 c 128,-1,11
 1124 384 1124 384 972 384 c 128,-1,12
 820 384 820 384 714 492 c 0,13,14
 711 495 711 495 708 498 c 1,15,16
 705 495 705 495 702 492 c 0,17,18
 596 384 596 384 444 384 c 128,-1,19
 292 384 292 384 186 492 c 128,-1,20
 80 600 80 600 80 754 c 128,-1,21
 80 908 80 908 186 1016 c 128,-1,0
 292 1124 292 1124 444 1124 c 128,-1,1
444 920 m 128,-1,23
 376 920 376 920 328 871.5 c 128,-1,24
 280 823 280 823 280 754 c 128,-1,25
 280 685 280 685 328 636.5 c 128,-1,26
 376 588 376 588 444 588 c 128,-1,27
 512 588 512 588 560 636.5 c 128,-1,28
 608 685 608 685 608 754 c 128,-1,29
 608 823 608 823 560 871.5 c 128,-1,22
 512 920 512 920 444 920 c 128,-1,23
972 920 m 128,-1,31
 904 920 904 920 856 871.5 c 128,-1,32
 808 823 808 823 808 754 c 128,-1,33
 808 685 808 685 856 636.5 c 128,-1,34
 904 588 904 588 972 588 c 128,-1,35
 1040 588 1040 588 1088 636.5 c 128,-1,36
 1136 685 1136 685 1136 754 c 128,-1,37
 1136 823 1136 823 1088 871.5 c 128,-1,30
 1040 920 1040 920 972 920 c 128,-1,31
EndSplineSet
Validated: 1
EndChar

StartChar: approxequal
Encoding: 8776 8776 117
Width: 1158
GlyphClass: 2
Flags: W
HStem: 206 268<685.361 906.68> 420 268<231.32 452.639> 705 268<705.361 926.68> 919 268<251.32 472.639>
VStem: 90 278<231.938 416.049> 110 278<730.938 915.049> 770 278<477.951 662.062> 790 278<976.951 1161.06>
LayerCount: 2
Fore
SplineSet
850 667 m 2,0,-1
 968 667 l 2,1,2
 1048 667 1048 667 1048 588 c 0,3,4
 1048 206 1048 206 762 206 c 0,5,6
 596 206 596 206 469 357 c 0,7,8
 433 400 433 400 424 409 c 0,9,10
 413 420 413 420 401 420 c 0,11,12
 368 420 368 420 368 306 c 16,13,14
 368 227 368 227 288 227 c 2,15,-1
 170 227 l 2,16,17
 90 227 90 227 90 306 c 0,18,19
 90 688 90 688 376 688 c 0,20,21
 542 688 542 688 669 537 c 0,22,23
 705 494 705 494 714 485 c 0,24,25
 725 474 725 474 737 474 c 0,26,27
 770 474 770 474 770 588 c 16,28,29
 770 667 770 667 850 667 c 2,0,-1
870 1166 m 2,30,-1
 988 1166 l 2,31,32
 1068 1166 1068 1166 1068 1087 c 0,33,34
 1068 705 1068 705 782 705 c 0,35,36
 616 705 616 705 489 856 c 0,37,38
 453 899 453 899 444 908 c 0,39,40
 433 919 433 919 421 919 c 0,41,42
 388 919 388 919 388 805 c 16,43,44
 388 726 388 726 308 726 c 2,45,-1
 190 726 l 2,46,47
 110 726 110 726 110 805 c 0,48,49
 110 1187 110 1187 396 1187 c 0,50,51
 562 1187 562 1187 689 1036 c 0,52,53
 725 993 725 993 734 984 c 0,54,55
 745 973 745 973 757 973 c 0,56,57
 790 973 790 973 790 1087 c 16,58,59
 790 1166 790 1166 870 1166 c 2,30,-1
EndSplineSet
Validated: 1
EndChar

StartChar: notequal
Encoding: 8800 8800 118
Width: 1133
GlyphClass: 2
Flags: W
HStem: 430 250<91.9202 303 598 1041.08> 830 250<91.9202 534 829 1041.08>
DStem2: 162 186 275 121 0.500242 0.865886<-20.9135 281.81 645.853 743.72 1107.76 1410.51>
LayerCount: 2
Fore
SplineSet
155 1080 m 2,0,-1
 678 1080 l 1,1,-1
 857 1389 l 2,2,3
 868 1408 868 1408 885 1408 c 0,4,5
 894 1408 894 1408 905 1402 c 2,6,-1
 957 1372 l 2,7,8
 976 1361 976 1361 976 1345 c 0,9,10
 976 1336 976 1336 970 1324 c 2,11,-1
 829 1080 l 1,12,-1
 978 1080 l 2,13,14
 1043 1080 1043 1080 1043 1015 c 2,15,-1
 1043 895 l 2,16,17
 1043 830 1043 830 978 830 c 2,18,-1
 685 830 l 1,19,-1
 598 680 l 1,20,-1
 978 680 l 2,21,22
 1043 680 1043 680 1043 615 c 2,23,-1
 1043 495 l 2,24,25
 1043 430 1043 430 978 430 c 2,26,-1
 454 430 l 1,27,-1
 275 121 l 2,28,29
 264 102 264 102 247 102 c 0,30,31
 238 102 238 102 227 108 c 2,32,-1
 175 138 l 2,33,34
 156 149 156 149 156 165 c 0,35,36
 156 175 156 175 162 186 c 2,37,-1
 303 430 l 1,38,-1
 155 430 l 2,39,40
 90 430 90 430 90 495 c 2,41,-1
 90 615 l 2,42,43
 90 680 90 680 155 680 c 2,44,-1
 447 680 l 1,45,-1
 534 830 l 1,46,-1
 155 830 l 2,47,48
 90 830 90 830 90 895 c 2,49,-1
 90 1015 l 2,50,51
 90 1080 90 1080 155 1080 c 2,0,-1
EndSplineSet
Validated: 1
EndChar

StartChar: lessequal
Encoding: 8804 8804 119
Width: 1173
GlyphClass: 2
Flags: W
HStem: 97 250<81.9202 1031.08>
DStem2: 130 1014 362 898 0.878218 0.478261<148.268 859.532> 362 898 130 773 0.878218 -0.478261<0 715.568>
LayerCount: 2
Fore
SplineSet
145 347 m 2,0,-1
 968 347 l 2,1,2
 1033 347 1033 347 1033 282 c 2,3,-1
 1033 162 l 2,4,5
 1033 97 1033 97 968 97 c 2,6,-1
 145 97 l 2,7,8
 80 97 80 97 80 162 c 2,9,-1
 80 282 l 2,10,11
 80 347 80 347 145 347 c 2,0,-1
80 944 m 2,12,13
 80 987 80 987 130 1014 c 2,14,-1
 859 1411 l 2,15,16
 876 1420 876 1420 888 1420 c 0,17,18
 912 1420 912 1420 927 1393 c 2,19,-1
 988 1286 l 2,20,21
 998 1268 998 1268 998 1256 c 0,22,23
 998 1233 998 1233 970 1218 c 2,24,-1
 362 898 l 1,25,-1
 972 574 l 2,26,27
 1000 559 1000 559 1000 536 c 0,28,29
 1000 524 1000 524 990 506 c 2,30,-1
 927 394 l 2,31,32
 912 367 912 367 888 367 c 0,33,34
 876 367 876 367 859 376 c 2,35,-1
 130 773 l 2,36,37
 80 800 80 800 80 843 c 2,38,-1
 80 944 l 2,12,13
EndSplineSet
Validated: 1
EndChar

StartChar: greaterequal
Encoding: 8805 8805 120
Width: 1173
GlyphClass: 2
Flags: W
HStem: 97 250<141.92 1091.08>
DStem2: 170 569 281 376 0.878218 0.478261<-24.2635 687> 1010 1014 778 889 0.878218 -0.478261<-859.532 -143.964>
LayerCount: 2
Fore
SplineSet
205 347 m 2,0,-1
 1028 347 l 2,1,2
 1093 347 1093 347 1093 282 c 2,3,-1
 1093 162 l 2,4,5
 1093 97 1093 97 1028 97 c 2,6,-1
 205 97 l 2,7,8
 140 97 140 97 140 162 c 2,9,-1
 140 282 l 2,10,11
 140 347 140 347 205 347 c 2,0,-1
1060 843 m 2,12,13
 1060 800 1060 800 1010 773 c 2,14,-1
 281 376 l 2,15,16
 264 367 264 367 252 367 c 0,17,18
 228 367 228 367 213 394 c 2,19,-1
 152 501 l 2,20,21
 142 519 142 519 142 531 c 0,22,23
 142 554 142 554 170 569 c 2,24,-1
 778 889 l 1,25,-1
 168 1213 l 2,26,27
 140 1228 140 1228 140 1251 c 0,28,29
 140 1263 140 1263 150 1281 c 2,30,-1
 213 1393 l 2,31,32
 228 1420 228 1420 252 1420 c 0,33,34
 264 1420 264 1420 281 1411 c 2,35,-1
 1010 1014 l 2,36,37
 1060 987 1060 987 1060 944 c 2,38,-1
 1060 843 l 2,12,13
EndSplineSet
Validated: 1
EndChar

StartChar: lozenge
Encoding: 9674 9674 121
Width: 1198
GlyphClass: 2
Flags: W
HStem: -20 21G<585.042 612.903> 1510 20G<585.641 612.409>
DStem2: 70 738 375 756 0.555427 0.831565<184.373 560.738> 375 756 70 738 0.5723 -0.820044<0 422.804> 599 1530 584 1069 0.556885 -0.83059<374.549 800.569> 618 410 599 -20 0.57078 0.821103<0 369.659>
LayerCount: 2
Fore
SplineSet
618 410 m 1,0,-1
 824 717 l 1,1,-1
 584 1069 l 1,2,-1
 375 756 l 1,3,-1
 618 410 l 1,0,-1
599 -20 m 1,4,-1
 70 738 l 1,5,-1
 599 1530 l 1,6,-1
 1128 741 l 1,7,-1
 599 -20 l 1,4,-1
EndSplineSet
Validated: 1
EndChar

StartChar: circumflex
Encoding: 710 710 122
Width: 680
Flags: W
HStem: 1367 110<273 407>
VStem: 50 580<1180 1221>
DStem2: 69 1248 252 1230 0.579524 0.814955<-1.02664 253.411> 611 1248 340 1367 0.579524 -0.814955<-253.411 6.8094>
LayerCount: 2
Fore
SplineSet
273 1477 m 2,0,1
 407 1477 l 2,2,3
 448 1477 448 1477 483 1428 c 2,4,-1
 611 1248 l 2,5,6
 630 1221 630 1221 630 1206 c 0,7,8
 630 1180 630 1180 591 1180 c 2,9,-1
 518 1180 l 2,10,11
 460 1180 460 1180 428 1230 c 2,12,13
 340 1367 l 1,14,-1
 252 1230 l 2,15,16
 220 1180 220 1180 162 1180 c 2,17,-1
 89 1180 l 2,18,19
 50 1180 50 1180 50 1206 c 0,20,21
 50 1221 50 1221 69 1248 c 2,22,-1
 197 1428 l 2,23,24
 232 1477 232 1477 273 1477 c 2,0,1
EndSplineSet
Validated: 1
EndChar

StartChar: caron
Encoding: 711 711 123
Width: 680
Flags: W
HStem: 1180 110<273 407>
VStem: 50 580<1436 1477>
DStem2: 252 1427 69 1409 0.579524 -0.814955<-92.4103 162.028> 340 1290 483 1229 0.579524 0.814955<0.619303 260.84>
LayerCount: 2
Fore
SplineSet
89 1477 m 2,0,1
 162 1477 l 2,2,3
 220 1477 220 1477 252 1427 c 2,4,-1
 340 1290 l 1,5,-1
 428 1427 l 2,6,7
 460 1477 460 1477 518 1477 c 2,8,-1
 591 1477 l 2,9,10
 630 1477 630 1477 630 1451 c 0,11,12
 630 1436 630 1436 611 1409 c 2,13,-1
 483 1229 l 2,14,15
 448 1180 448 1180 407 1180 c 2,16,-1
 273 1180 l 2,17,18
 232 1180 232 1180 197 1229 c 2,19,-1
 69 1409 l 2,20,21
 50 1436 50 1436 50 1451 c 0,22,23
 50 1477 50 1477 89 1477 c 2,0,1
EndSplineSet
Validated: 1
EndChar

StartChar: uni02C9
Encoding: 713 713 124
Width: 680
Flags: W
HStem: 1230 161<50 630>
VStem: 50 580<1230 1391>
LayerCount: 2
Fore
SplineSet
90 1391 m 2,0,-1
 590 1391 l 2,1,2
 630 1391 630 1391 630 1351 c 2,3,-1
 630 1270 l 2,4,5
 630 1230 630 1230 590 1230 c 2,6,-1
 90 1230 l 2,7,8
 50 1230 50 1230 50 1270 c 2,9,-1
 50 1351 l 2,10,11
 50 1391 50 1391 90 1391 c 2,0,-1
EndSplineSet
Validated: 1
EndChar

StartChar: breve
Encoding: 728 728 125
Width: 680
Flags: W
HStem: 1180 169<219.059 460.941>
VStem: 50 160<1363.89 1469> 470 160<1363.89 1469>
LayerCount: 2
Fore
SplineSet
90 1469 m 2,0,1
 170 1469 l 2,2,3
 210 1469 210 1469 210 1429 c 0,4,5
 210 1349 210 1349 340 1349 c 128,-1,6
 470 1349 470 1349 470 1429 c 0,7,8
 470 1469 470 1469 510 1469 c 2,9,-1
 590 1469 l 2,10,11
 630 1469 630 1469 630 1429 c 0,12,13
 630 1180 630 1180 340 1180 c 128,-1,14
 50 1180 50 1180 50 1429 c 0,15,16
 50 1469 50 1469 90 1469 c 2,0,1
EndSplineSet
Validated: 1
EndChar

StartChar: dotaccent
Encoding: 729 729 126
Width: 460
Flags: W
HStem: 1180 364<112.131 346.338>
VStem: 50 360<1244.3 1481.73>
LayerCount: 2
Fore
SplineSet
230 1544 m 0,0,1
 306 1544 306 1544 358 1491 c 128,-1,2
 410 1438 410 1438 410 1363 c 0,3,4
 410 1289 410 1289 357 1234 c 0,5,6
 305 1180 305 1180 230 1180 c 0,7,8
 153 1180 153 1180 101.5 1234 c 128,-1,9
 50 1288 50 1288 50 1362 c 0,10,11
 50 1438 50 1438 102 1490 c 0,12,13
 155 1544 155 1544 230 1544 c 0,0,1
EndSplineSet
Validated: 1
EndChar

StartChar: ring
Encoding: 730 730 127
Width: 496
Flags: W
HStem: 1160 112<180.15 317.342> 1448 112<179.9 317.373>
VStem: 50 111<1291.16 1428.97> 335 111<1292.14 1428.97>
LayerCount: 2
Fore
SplineSet
249.5 1448 m 128,-1,1
 212 1448 212 1448 186.5 1422 c 128,-1,2
 161 1396 161 1396 161 1360 c 128,-1,3
 161 1324 161 1324 186.5 1298 c 128,-1,4
 212 1272 212 1272 248 1272 c 256,5,6
 286 1272 286 1272 312 1300 c 0,7,8
 335 1325 335 1325 335 1360 c 0,9,10
 335 1396 335 1396 311 1422 c 128,-1,0
 287 1448 287 1448 249.5 1448 c 128,-1,1
250 1560 m 0,11,12
 330 1560 330 1560 388 1502 c 0,13,14
 446 1442 446 1442 446 1361 c 0,15,16
 446 1277 446 1277 388 1219 c 0,17,18
 329 1160 329 1160 248 1160 c 256,19,20
 168 1160 168 1160 108 1219 c 0,21,22
 50 1277 50 1277 50 1361 c 0,23,24
 50 1442 50 1442 108 1502 c 0,25,26
 166 1560 166 1560 250 1560 c 0,11,12
EndSplineSet
Validated: 1
EndChar

StartChar: ogonek
Encoding: 731 731 128
Width: 452
Flags: W
HStem: -430 186<250.305 402> -20 20G<118 315>
VStem: 50 188<-228.101 -76.1653>
LayerCount: 2
Fore
SplineSet
186 0 m 1,0,-1
 315 0 l 1,1,2
 238 -71 238 -71 238 -152 c 0,3,4
 238 -244 238 -244 364 -244 c 24,5,6
 402 -244 402 -244 402 -279 c 2,7,-1
 402 -395 l 2,8,9
 402 -430 402 -430 367 -430 c 0,10,11
 231 -429 231 -429 158 -390 c 0,12,13
 50 -332 50 -332 50 -204 c 128,-1,14
 50 -76 50 -76 186 0 c 1,0,-1
EndSplineSet
Validated: 1
EndChar

StartChar: tilde
Encoding: 732 732 129
Width: 680
Flags: W
HStem: 1200 169<393.32 467.072> 1320 169<212.928 286.68>
VStem: 50 160<1200 1318.24> 470 160<1370.76 1489>
LayerCount: 2
Fore
SplineSet
510 1489 m 2,0,1
 590 1489 l 2,2,3
 630 1489 630 1489 630 1449 c 8,4,5
 630 1200 630 1200 443 1200 c 0,6,7
 352 1200 352 1200 277 1288 c 0,8,9
 250 1320 250 1320 234 1320 c 0,10,11
 210 1320 210 1320 210 1240 c 0,12,13
 210 1200 210 1200 170 1200 c 2,14,-1
 90 1200 l 2,15,16
 50 1200 50 1200 50 1240 c 8,17,18
 50 1489 50 1489 237 1489 c 0,19,20
 328 1489 328 1489 403 1401 c 0,21,22
 430 1369 430 1369 446 1369 c 0,23,24
 470 1369 470 1369 470 1449 c 0,25,26
 470 1489 470 1489 510 1489 c 2,0,1
EndSplineSet
Validated: 1
EndChar

StartChar: hungarumlaut
Encoding: 733 733 130
Width: 688
Flags: W
HStem: 1190 368
VStem: 50 588
LayerCount: 2
Fore
SplineSet
507 1558 m 0,0,1
 523 1558 523 1558 538 1547 c 2,2,-1
 613 1492 l 2,3,4
 638 1474 638 1474 638 1454 c 0,5,6
 638 1437 638 1437 626 1422 c 2,7,-1
 450 1208 l 2,8,9
 436 1190 436 1190 416 1190 c 0,10,11
 398 1190 398 1190 382 1202 c 2,12,-1
 338 1235 l 2,13,14
 314 1253 314 1253 314 1272 c 0,15,16
 314 1286 314 1286 323 1300 c 2,17,-1
 473 1535 l 2,18,19
 488 1558 488 1558 507 1558 c 0,0,1
243 1558 m 0,20,21
 259 1558 259 1558 274 1547 c 2,22,-1
 349 1492 l 2,23,24
 374 1474 374 1474 374 1454 c 0,25,26
 374 1437 374 1437 362 1422 c 2,27,-1
 186 1208 l 2,28,29
 171 1190 171 1190 152 1190 c 0,30,31
 134 1190 134 1190 118 1202 c 2,32,-1
 74 1235 l 2,33,34
 50 1253 50 1253 50 1272 c 0,35,36
 50 1286 50 1286 59 1300 c 2,37,-1
 209 1535 l 2,38,39
 224 1558 224 1558 243 1558 c 0,20,21
EndSplineSet
Validated: 1
EndChar

StartChar: C
Encoding: 67 67 131
Width: 1426
Flags: W
HStem: -20 300<640.318 999.108> 1230 300<634.859 994.594>
VStem: 100 329<517.207 992.097>
LayerCount: 2
Fore
SplineSet
817 -20 m 128,-1,1
 489 -20 489 -20 291 211 c 0,2,3
 100 435 100 435 100 755 c 0,4,5
 100 1077 100 1077 291 1299 c 0,6,7
 490 1530 490 1530 817 1530 c 0,8,9
 1146 1530 1146 1530 1343 1299 c 0,10,11
 1366 1272 1366 1272 1366 1247 c 0,12,13
 1366 1215 1366 1215 1331 1187 c 2,14,-1
 1210 1089 l 2,15,16
 1182 1066 1182 1066 1157 1066 c 0,17,18
 1125 1066 1125 1066 1098 1100 c 0,19,20
 995 1230 995 1230 816 1230 c 0,21,22
 643 1230 643 1230 541 1106 c 0,23,24
 429 970 429 970 429 755 c 0,25,26
 429 535 429 535 541 404 c 0,27,28
 647 280 647 280 818 280 c 0,29,30
 995 280 995 280 1098 410 c 0,31,32
 1125 444 1125 444 1157 444 c 0,33,34
 1182 444 1182 444 1210 421 c 2,35,-1
 1331 323 l 2,36,37
 1366 295 1366 295 1366 263 c 0,38,39
 1366 238 1366 238 1343 211 c 0,40,0
 1145 -20 1145 -20 817 -20 c 128,-1,1
EndSplineSet
Validated: 1
EndChar

StartChar: G
Encoding: 71 71 132
Width: 1524
Flags: W
HStem: -20 300<610.565 972.514> 605 300<778 1064> 1230 300<604.859 964.594>
VStem: 70 329<517.207 992.097> 773 611<609.938 900.062> 1064 320<356.201 604>
CounterMasks: 1 e0
LayerCount: 2
Fore
SplineSet
787 -20 m 128,-1,1
 459 -20 459 -20 261 211 c 0,2,3
 70 435 70 435 70 755 c 0,4,5
 70 1077 70 1077 261 1299 c 0,6,7
 460 1530 460 1530 787 1530 c 0,8,9
 1116 1530 1116 1530 1313 1299 c 0,10,11
 1336 1272 1336 1272 1336 1247 c 0,12,13
 1336 1215 1336 1215 1301 1187 c 2,14,-1
 1180 1089 l 2,15,16
 1152 1066 1152 1066 1127 1066 c 0,17,18
 1095 1066 1095 1066 1068 1100 c 0,19,20
 965 1230 965 1230 786 1230 c 0,21,22
 613 1230 613 1230 511 1106 c 0,23,24
 399 970 399 970 399 755 c 0,25,26
 399 535 399 535 511 404 c 0,27,28
 617 280 617 280 791 280 c 0,29,30
 964 280 964 280 1064 400 c 1,31,-1
 1064 604 l 1,32,-1
 853 605 l 2,33,34
 773 605 773 605 773 684 c 2,35,-1
 773 826 l 2,36,37
 773 905 773 905 853 905 c 2,38,-1
 1304 905 l 2,39,40
 1384 905 1384 905 1384 826 c 2,41,-1
 1384 313 l 1,42,43
 1346 250 1346 250 1313 211 c 24,44,0
 1115 -20 1115 -20 787 -20 c 128,-1,1
EndSplineSet
Validated: 1
EndChar

StartChar: J
Encoding: 74 74 133
Width: 1165
Flags: W
HStem: -20 300<280.447 591.859> 1210 300<128 705>
VStem: 705 320<393.453 1210>
LayerCount: 2
Fore
SplineSet
440 -20 m 128,-1,1
 192 -20 192 -20 39 120 c 0,2,3
 10 146 10 146 10 177 c 0,4,5
 10 203 10 203 39 232 c 2,6,-1
 149 343 l 2,7,8
 177 371 177 371 207 371 c 0,9,10
 236 371 236 371 261 343 c 0,11,12
 318 280 318 280 430.5 280 c 128,-1,13
 543 280 543 280 622 346 c 0,14,15
 705 415 705 415 705 561 c 2,16,-1
 705 1210 l 1,17,-1
 203 1210 l 2,18,19
 123 1210 123 1210 123 1289 c 2,20,-1
 123 1431 l 2,21,22
 123 1510 123 1510 203 1510 c 2,23,-1
 945 1510 l 2,24,25
 1025 1510 1025 1510 1025 1431 c 2,26,-1
 1025 544 l 2,27,28
 1025 290 1025 290 841 120 c 0,29,0
 688 -20 688 -20 440 -20 c 128,-1,1
EndSplineSet
Validated: 1
EndChar

StartChar: M
Encoding: 77 77 134
Width: 1942
Flags: W
HStem: 0 281<825 1107> 1490 20G<233.5 634 1308 1708.5>
VStem: 100 300<6.52197 294.359>
DStem2: 686 1446 467 1138 0.237628 -0.971356<247.137 1199.35> 971 281 1194 64 0.237628 0.971356<0 950.078> 1752 1431 1466 1138 0.066421 -0.997792<273.357 1359.98>
LayerCount: 2
Fore
SplineSet
318 0 m 2,0,1
 178 0 l 2,2,3
 100 0 100 0 100 74 c 0,4,5
 100 76 100 76 100 79 c 2,6,-1
 190 1431 l 2,7,8
 195 1510 195 1510 272 1510 c 2,9,-1
 598 1510 l 2,10,11
 670 1510 670 1510 686 1446 c 2,12,-1
 971 281 l 1,13,-1
 1256 1446 l 2,14,15
 1272 1510 1272 1510 1344 1510 c 2,16,-1
 1670 1510 l 2,17,18
 1747 1510 1747 1510 1752 1431 c 2,19,20
 1842 79 l 2,21,22
 1842 76 1842 76 1842 74 c 0,23,24
 1842 0 1842 0 1764 0 c 2,25,-1
 1614 0 l 2,26,27
 1537 0 1537 0 1532 79 c 2,28,-1
 1466 1138 l 1,29,-1
 1194 64 l 2,30,31
 1178 0 1178 0 1107 0 c 2,32,-1
 825 0 l 2,33,34
 753 0 753 0 737 64 c 2,35,-1
 467 1138 l 1,36,-1
 400 79 l 2,37,38
 395 0 395 0 318 0 c 2,0,1
EndSplineSet
Validated: 1
EndChar

StartChar: Y
Encoding: 89 89 135
Width: 1260
Flags: W
HStem: 0 21G<510 750> 1490 20G<37.5 276.5 992.5 1222.5>
VStem: 470 320<4.9375 656>
DStem2: 635 953 20 1431 0.502136 -0.864789<-668.745 0> 635 953 790 656 0.502136 0.864789<0 668.243>
LayerCount: 2
Fore
SplineSet
550 0 m 2,0,1
 470 0 470 0 470 79 c 2,2,-1
 470 656 l 1,3,-1
 20 1431 l 2,4,5
 10 1448 10 1448 10 1466 c 0,6,7
 10 1510 10 1510 65 1510 c 2,8,-1
 241 1510 l 2,9,10
 312 1510 312 1510 349 1446 c 2,11,-1
 635 953 l 1,12,-1
 920 1446 l 2,13,14
 957 1510 957 1510 1028 1510 c 2,15,-1
 1195 1510 l 2,16,17
 1250 1510 1250 1510 1250 1466 c 0,18,19
 1250 1448 1250 1448 1240 1431 c 2,20,-1
 790 656 l 1,21,-1
 790 79 l 2,22,23
 790 0 790 0 710 0 c 2,24,-1
 550 0 l 2,0,1
EndSplineSet
Validated: 1
EndChar

StartChar: X
Encoding: 88 88 136
Width: 1216
Flags: W
HStem: 0 21G<47 283 922.5 1169> 1490 20G<47 293.5 933 1169>
DStem2: 612 1038 30 1431 0.513942 -0.857825<-574.499 0 481.417 1057.23> 30 79 357 64 0.518537 0.855055<56.4648 633.677 1121.79 1699>
LayerCount: 2
Fore
SplineSet
248 0 m 2,0,-1
 74 0 l 2,1,2
 20 0 20 0 20 44 c 0,3,4
 20 63 20 63 30 79 c 2,5,-1
 437 751 l 1,6,-1
 30 1431 l 2,7,8
 20 1448 20 1448 20 1466 c 0,9,10
 20 1510 20 1510 74 1510 c 2,11,-1
 258 1510 l 2,12,13
 329 1510 329 1510 367 1446 c 2,14,-1
 612 1038 l 1,15,-1
 859 1446 l 2,16,17
 898 1510 898 1510 968 1510 c 2,18,-1
 1142 1510 l 2,19,20
 1196 1510 1196 1510 1196 1466 c 0,21,22
 1196 1447 1196 1447 1186 1431 c 2,23,-1
 779 759 l 1,24,-1
 1186 79 l 2,25,26
 1196 62 1196 62 1196 44 c 0,27,28
 1196 0 1196 0 1142 0 c 2,29,-1
 958 0 l 2,30,31
 887 0 887 0 849 64 c 2,32,-1
 604 472 l 1,33,-1
 357 64 l 2,34,35
 318 0 318 0 248 0 c 2,0,-1
EndSplineSet
Validated: 1
EndChar

StartChar: S
Encoding: 83 83 137
Width: 1251
Flags: W
HStem: -20 300<408.084 751.972> 1252 278<532.376 738.795>
VStem: 190 319<1075.39 1224.8> 846 325<366.797 588.692>
DStem2: 663 1011 484 740 0.924017 -0.382352<-173.478 331.215>
LayerCount: 2
Fore
SplineSet
570 -20 m 0,0,1
 287 -20 287 -20 91 203 c 0,2,3
 70 228 70 228 70 255 c 0,4,5
 70 287 70 287 106 314 c 2,6,-1
 231 408 l 2,7,8
 258 428 258 428 284 428 c 0,9,10
 320 428 320 428 341 393 c 0,11,12
 410 280 410 280 577 280 c 0,13,14
 704 280 704 280 780 344 c 0,15,16
 846 399 846 399 846 482 c 0,17,18
 846 590 846 590 716 644 c 2,19,-1
 484 740 l 2,20,21
 190 862 190 862 190 1124 c 0,22,23
 190 1324 190 1324 351 1447 c 0,24,25
 460 1530 460 1530 636 1530 c 0,26,27
 877 1530 877 1530 1012 1371 c 0,28,29
 1033 1346 1033 1346 1033 1319 c 0,30,31
 1033 1287 1033 1287 997 1260 c 2,32,-1
 872 1166 l 2,33,34
 845 1146 845 1146 819 1146 c 0,35,36
 783 1146 783 1146 762 1181 c 24,37,38
 719 1252 719 1252 635 1252 c 0,39,40
 569 1252 569 1252 536 1220 c 0,41,42
 509 1194 509 1194 509 1158 c 0,43,44
 509 1074 509 1074 663 1011 c 2,45,-1
 874 924 l 2,46,47
 1171 802 1171 802 1171 498 c 0,48,49
 1171 311 1171 311 1032 158 c 0,50,51
 869 -20 869 -20 570 -20 c 0,0,1
EndSplineSet
Validated: 1
EndChar

StartChar: P
Encoding: 80 80 138
Width: 1238
Flags: W
HStem: 0 21G<180 420> 485 301<460 762.735> 1210 300<460 762.735>
VStem: 140 320<4.9375 485 786 1210> 838 330<859.918 1136.14>
LayerCount: 2
Fore
SplineSet
380 0 m 2,0,-1
 220 0 l 2,1,2
 140 0 140 0 140 79 c 2,3,-1
 140 1431 l 2,4,5
 140 1510 140 1510 220 1510 c 2,6,-1
 623 1510 l 2,7,8
 872 1510 872 1510 1029 1351 c 0,9,10
 1168 1210 1168 1210 1168 998 c 0,11,12
 1168 785 1168 785 1029 644 c 0,13,14
 872 485 872 485 623 485 c 2,15,-1
 460 485 l 1,16,-1
 460 79 l 2,17,18
 460 0 460 0 380 0 c 2,0,-1
460 1210 m 1,19,-1
 460 786 l 1,20,-1
 623 786 l 2,21,22
 727 786 727 786 781 844 c 0,23,24
 838 905 838 905 838 999 c 0,25,26
 838 1094 838 1094 781 1152 c 128,-1,27
 724 1210 724 1210 623 1210 c 2,28,-1
 460 1210 l 1,19,-1
EndSplineSet
Validated: 1
EndChar

StartChar: s
Encoding: 115 115 139
Width: 985
Flags: W
HStem: -20 249<328.541 599.976> 876 244<398.578 603.507>
VStem: 119 277<757.245 871.429> 638 287<268.065 413.555>
DStem2: 472 743 418 475 0.948152 -0.317816<-92.1997 273.862>
LayerCount: 2
Fore
SplineSet
436 -20 m 0,0,1
 215 -20 215 -20 75 126 c 0,2,3
 50 152 50 152 50 177 c 0,4,5
 50 209 50 209 81 238 c 2,6,-1
 169 319 l 2,7,8
 197 345 197 345 220 345 c 0,9,10
 254 345 254 345 281 314 c 0,11,12
 357 229 357 229 468 229 c 0,13,14
 550 229 550 229 597 267 c 0,15,16
 638 300 638 300 638 339 c 0,17,18
 638 403 638 403 561 428 c 10,19,-1
 418 475 l 2,20,21
 119 573 119 573 119 808 c 0,22,23
 119 947 119 947 238 1042 c 0,24,25
 336 1120 336 1120 492 1120 c 0,26,27
 704 1120 704 1120 818 983 c 0,28,29
 843 953 843 953 843 932 c 0,30,31
 843 899 843 899 812 871 c 2,32,-1
 739 804 l 2,33,34
 711 778 711 778 688 778 c 0,35,36
 654 778 654 778 627 809 c 0,37,38
 567 876 567 876 479 876 c 0,39,40
 396 876 396 876 396 821 c 0,41,42
 396 768 396 768 472 743 c 2,43,-1
 651 683 l 2,44,45
 925 591 925 591 925 358 c 0,46,47
 925 209 925 209 793 93 c 0,48,49
 663 -20 663 -20 436 -20 c 0,0,1
EndSplineSet
Validated: 1
EndChar

StartChar: K
Encoding: 75 75 140
Width: 1315
Flags: W
HStem: 0 21G<180 420 1004.5 1266> 1490 20G<180 420 997.5 1232.5>
VStem: 140 320<4.9375 435 868 1505.06>
DStem2: 460 868 814 885 0.618872 0.785492<232.434 851.854> 814 885 608 623 0.502136 -0.864789<123.135 868.037>
LayerCount: 2
Fore
SplineSet
380 0 m 2,0,-1
 220 0 l 2,1,2
 140 0 140 0 140 79 c 2,3,-1
 140 1431 l 2,4,5
 140 1510 140 1510 220 1510 c 2,6,-1
 380 1510 l 2,7,8
 460 1510 460 1510 460 1431 c 2,9,-1
 460 868 l 1,10,-1
 915 1446 l 2,11,12
 965 1510 965 1510 1030 1510 c 2,13,-1
 1207 1510 l 2,14,15
 1258 1510 1258 1510 1258 1468 c 0,16,17
 1258 1448 1258 1448 1240 1425 c 2,18,-1
 814 885 l 1,19,-1
 1282 79 l 2,20,21
 1295 57 1295 57 1295 42 c 0,22,23
 1295 0 1295 0 1237 0 c 2,24,-1
 1040 0 l 2,25,26
 969 0 969 0 932 64 c 2,27,-1
 608 623 l 1,28,-1
 460 435 l 1,29,-1
 460 79 l 2,30,31
 460 0 460 0 380 0 c 2,0,-1
EndSplineSet
Validated: 1
EndChar

StartChar: R
Encoding: 82 82 141
Width: 1305
Flags: W
HStem: 0 21G<180 420 1004.5 1266> 485 301<460 686.031> 1210 300<460 762.735>
VStem: 140 320<4.9375 485 786 1210> 838 330<859.467 1136.14>
DStem2: 980 600 687 488 0.501494 -0.865161<-8.42578 538.414>
LayerCount: 2
Fore
SplineSet
380 0 m 2,0,-1
 220 0 l 2,1,2
 140 0 140 0 140 79 c 2,3,-1
 140 1431 l 2,4,5
 140 1510 140 1510 220 1510 c 2,6,-1
 623 1510 l 2,7,8
 872 1510 872 1510 1029 1351 c 0,9,10
 1168 1210 1168 1210 1168 998 c 0,11,12
 1168 783 1168 783 1029 644 c 0,13,14
 1005 620 1005 620 980 600 c 1,15,-1
 1282 79 l 2,16,17
 1295 57 1295 57 1295 42 c 0,18,19
 1295 0 1295 0 1237 0 c 2,20,-1
 1040 0 l 2,21,22
 969 0 969 0 932 64 c 2,23,-1
 687 488 l 1,24,25
 656 485 656 485 623 485 c 2,26,-1
 460 485 l 1,27,-1
 460 79 l 2,28,29
 460 0 460 0 380 0 c 2,0,-1
460 1210 m 1,30,-1
 460 786 l 1,31,-1
 623 786 l 2,32,33
 727 786 727 786 781 844 c 0,34,35
 838 905 838 905 838 999 c 0,36,37
 838 1094 838 1094 781 1152 c 128,-1,38
 724 1210 724 1210 623 1210 c 2,39,-1
 460 1210 l 1,30,-1
EndSplineSet
Validated: 1
EndChar

StartChar: B
Encoding: 66 66 142
Width: 1300
Flags: W
HStem: 0 300<460 833.62> 676 281<460 773.714> 1230 280<460 773.653>
VStem: 140 320<300 676 957 1230> 830 309<996.257 1190.55> 910 320<368.529 606.596>
LayerCount: 2
Fore
SplineSet
460 957 m 1,0,-1
 675 957 l 2,1,2
 734 957 734 957 775 987 c 0,3,4
 830 1029 830 1029 830 1093 c 0,5,6
 830 1161 830 1161 775 1200 c 0,7,8
 732 1230 732 1230 675 1230 c 2,9,-1
 460 1230 l 1,10,-1
 460 957 l 1,0,-1
460 300 m 1,11,-1
 665 300 l 2,12,13
 793 300 793 300 860 363 c 0,14,15
 910 411 910 411 910 488 c 0,16,17
 910 564 910 564 859 614 c 0,18,19
 795 676 795 676 665 676 c 2,20,-1
 460 676 l 1,21,-1
 460 300 l 1,11,-1
220 0 m 2,22,23
 140 0 140 0 140 79 c 2,24,-1
 140 1431 l 2,25,26
 140 1510 140 1510 220 1510 c 2,27,-1
 665 1510 l 2,28,29
 852 1510 852 1510 983 1413 c 0,30,31
 1139 1298 1139 1298 1139 1112 c 0,32,33
 1139 967 1139 967 1030 858 c 1,34,35
 1050 845 1050 845 1066 831 c 0,36,37
 1230 688 1230 688 1230 484 c 0,38,39
 1230 278 1230 278 1084 143 c 0,40,41
 929 0 929 0 665 0 c 2,42,-1
 220 0 l 2,22,23
EndSplineSet
Validated: 1
EndChar

StartChar: l
Encoding: 108 108 143
Width: 580
Flags: W
HStem: 0 21G<180 400> 1490 20G<180 400>
VStem: 140 300<4.9375 1505.06>
LayerCount: 2
Fore
SplineSet
220 0 m 2,0,1
 140 0 140 0 140 79 c 2,2,-1
 140 1431 l 2,3,4
 140 1510 140 1510 220 1510 c 2,5,-1
 360 1510 l 2,6,7
 440 1510 440 1510 440 1431 c 2,8,-1
 440 79 l 2,9,10
 440 0 440 0 360 0 c 2,11,-1
 220 0 l 2,0,1
EndSplineSet
Validated: 1
EndChar

StartChar: i
Encoding: 105 105 144
Width: 580
Flags: W
HStem: 0 21G<180 400> 1080 20G<180 400> 1180 364<172.131 406.338>
VStem: 110 360<1244.3 1481.73> 140 300<4.9375 1095.06>
LayerCount: 2
Fore
SplineSet
290 1544 m 0,0,1
 366 1544 366 1544 418 1491 c 128,-1,2
 470 1438 470 1438 470 1363 c 0,3,4
 470 1289 470 1289 417 1234 c 0,5,6
 365 1180 365 1180 290 1180 c 0,7,8
 213 1180 213 1180 161.5 1234 c 128,-1,9
 110 1288 110 1288 110 1362 c 0,10,11
 110 1438 110 1438 162 1490 c 0,12,13
 215 1544 215 1544 290 1544 c 0,0,1
220 0 m 2,14,15
 140 0 140 0 140 79 c 2,16,-1
 140 1021 l 2,17,18
 140 1100 140 1100 220 1100 c 2,19,-1
 360 1100 l 2,20,21
 440 1100 440 1100 440 1021 c 2,22,-1
 440 79 l 2,23,24
 440 0 440 0 360 0 c 2,25,-1
 220 0 l 2,14,15
EndSplineSet
Validated: 1
EndChar

StartChar: t
Encoding: 116 116 145
Width: 894
Flags: W
HStem: 0 21G<342 552> 820 280<25 302 592 869> 1490 20G<342 552>
VStem: 302 290<4.9375 820 1100 1505.06>
LayerCount: 2
Fore
SplineSet
382 0 m 2,0,1
 302 0 302 0 302 79 c 2,2,-1
 302 820 l 1,3,-1
 100 820 l 2,4,5
 20 820 20 820 20 899 c 2,6,-1
 20 1021 l 2,7,8
 20 1100 20 1100 100 1100 c 2,9,-1
 302 1100 l 1,10,-1
 302 1431 l 2,11,12
 302 1510 302 1510 382 1510 c 2,13,-1
 512 1510 l 2,14,15
 592 1510 592 1510 592 1431 c 2,16,-1
 592 1100 l 1,17,-1
 794 1100 l 2,18,19
 874 1100 874 1100 874 1021 c 2,20,-1
 874 899 l 2,21,22
 874 820 874 820 794 820 c 2,23,-1
 592 820 l 1,24,-1
 592 79 l 2,25,26
 592 0 592 0 512 0 c 2,27,-1
 382 0 l 2,0,1
EndSplineSet
Validated: 1
EndChar

StartChar: j
Encoding: 106 106 146
Width: 580
Flags: W
HStem: -410 280<-59.3555 84.9983> 1080 20G<180 400> 1180 364<172.131 406.338>
VStem: 110 360<1244.3 1481.73> 140 300<-88.2197 1095.06>
LayerCount: 2
Fore
SplineSet
290 1544 m 0,0,1
 366 1544 366 1544 418 1491 c 128,-1,2
 470 1438 470 1438 470 1363 c 0,3,4
 470 1289 470 1289 417 1234 c 0,5,6
 365 1180 365 1180 290 1180 c 0,7,8
 213 1180 213 1180 161.5 1234 c 128,-1,9
 110 1288 110 1288 110 1362 c 0,10,11
 110 1438 110 1438 162 1490 c 0,12,13
 215 1544 215 1544 290 1544 c 0,0,1
15 -410 m 8,14,15
 -65 -410 -65 -410 -65 -331 c 2,16,-1
 -65 -209 l 2,17,18
 -65 -132 -65 -132 15 -130 c 16,19,20
 54 -129 54 -129 86 -100 c 0,21,22
 140 -50 140 -50 140 27 c 2,23,-1
 140 1021 l 2,24,25
 140 1100 140 1100 220 1100 c 2,26,-1
 360 1100 l 2,27,28
 440 1100 440 1100 440 1021 c 2,29,-1
 440 41 l 2,30,31
 440 -171 440 -171 309 -291 c 0,32,33
 178 -410 178 -410 15 -410 c 8,14,15
EndSplineSet
Validated: 1
EndChar

StartChar: f
Encoding: 102 102 147
Width: 850
Flags: W
HStem: 0 21G<180 400> 660 280<440 785> 1230 280<487.416 825>
VStem: 140 300<4.9375 660 940 1188.53>
LayerCount: 2
Fore
SplineSet
360 0 m 2,0,1
 220 0 l 2,2,3
 140 0 140 0 140 79 c 2,4,-1
 140 1076 l 2,5,6
 140 1278 140 1278 271 1396 c 0,7,8
 397 1510 397 1510 615 1510 c 2,9,-1
 750 1510 l 2,10,11
 830 1510 830 1510 830 1431 c 2,12,-1
 830 1309 l 2,13,14
 830 1230 830 1230 750 1230 c 2,15,-1
 615 1230 l 2,16,17
 531 1230 531 1230 486 1192 c 0,18,19
 440 1153 440 1153 440 1085 c 2,20,-1
 440 940 l 1,21,-1
 710 940 l 2,22,23
 790 940 790 940 790 861 c 2,24,-1
 790 739 l 2,25,26
 790 660 790 660 710 660 c 2,27,-1
 440 660 l 1,28,-1
 440 79 l 2,29,30
 440 0 440 0 360 0 c 2,0,1
EndSplineSet
Validated: 1
EndChar

StartChar: d
Encoding: 100 100 148
Width: 1216
Flags: W
HStem: -20 280<487.035 735.662> 0 21G<817.5 1036> 840 280<484.57 733.908> 1490 20G<816 1036>
VStem: 70 313<369.571 731.095> 776 300<4.98047 51 284.376 816.075 1051 1505.06>
LayerCount: 2
Fore
SplineSet
996 0 m 2,0,1
 856 0 l 2,2,3
 779 0 779 0 779 51 c 1,4,5
 681 -20 681 -20 554 -20 c 0,6,7
 382 -20 382 -20 257 91 c 24,8,9
 70 257 70 257 70 550 c 128,-1,10
 70 843 70 843 257 1009 c 24,11,12
 382 1120 382 1120 554 1120 c 0,13,14
 673 1120 673 1120 776 1051 c 1,15,-1
 776 1431 l 2,16,17
 776 1510 776 1510 856 1510 c 2,18,-1
 996 1510 l 2,19,20
 1076 1510 1076 1510 1076 1431 c 2,21,-1
 1076 79 l 2,22,23
 1076 0 1076 0 996 0 c 2,0,1
776 787 m 1,24,25
 714 840 714 840 622 840 c 128,-1,26
 530 840 530 840 464 779 c 0,27,28
 383 704 383 704 383 550 c 0,29,30
 383 400 383 400 461 326 c 0,31,32
 531 260 531 260 622.5 260 c 128,-1,33
 714 260 714 260 776 314 c 1,34,-1
 776 787 l 1,24,25
EndSplineSet
Validated: 1
EndChar

StartChar: p
Encoding: 112 112 149
Width: 1216
Flags: W
HStem: -410 21G<180 400> -20 280<482.092 731.43> 840 280<480.338 728.965> 1080 20G<180 398.5>
VStem: 140 300<-405.062 49 283.925 815.624 1049 1095.02> 833 313<368.905 730.429>
LayerCount: 2
Fore
SplineSet
220 1100 m 2,0,1
 360 1100 l 2,2,3
 437 1100 437 1100 437 1049 c 1,4,5
 535 1120 535 1120 662 1120 c 0,6,7
 834 1120 834 1120 959 1009 c 24,8,9
 1146 843 1146 843 1146 550 c 128,-1,10
 1146 257 1146 257 959 91 c 24,11,12
 834 -20 834 -20 662 -20 c 0,13,14
 543 -20 543 -20 440 49 c 1,15,-1
 440 -331 l 2,16,17
 440 -410 440 -410 360 -410 c 2,18,-1
 220 -410 l 2,19,20
 140 -410 140 -410 140 -331 c 2,21,-1
 140 1021 l 2,22,23
 140 1100 140 1100 220 1100 c 2,0,1
440 313 m 1,24,25
 502 260 502 260 594 260 c 128,-1,26
 686 260 686 260 752 321 c 0,27,28
 833 396 833 396 833 550 c 0,29,30
 833 700 833 700 755 774 c 0,31,32
 685 840 685 840 593.5 840 c 128,-1,33
 502 840 502 840 440 786 c 1,34,-1
 440 313 l 1,24,25
EndSplineSet
Validated: 1
EndChar

StartChar: b
Encoding: 98 98 150
Width: 1216
Flags: W
HStem: -20 280<480.338 728.965> 0 21G<180 398.5> 840 280<482.092 731.43> 1490 20G<180 400>
VStem: 140 300<4.98047 51 284.376 816.075 1051 1505.06> 833 313<369.571 731.095>
LayerCount: 2
Fore
SplineSet
220 0 m 2,0,1
 140 0 140 0 140 79 c 2,2,-1
 140 1431 l 2,3,4
 140 1510 140 1510 220 1510 c 2,5,-1
 360 1510 l 2,6,7
 440 1510 440 1510 440 1431 c 2,8,-1
 440 1051 l 1,9,10
 543 1120 543 1120 662 1120 c 0,11,12
 834 1120 834 1120 959 1009 c 24,13,14
 1146 843 1146 843 1146 550 c 128,-1,15
 1146 257 1146 257 959 91 c 24,16,17
 834 -20 834 -20 662 -20 c 0,18,19
 535 -20 535 -20 437 51 c 1,20,21
 437 0 437 0 360 0 c 2,22,-1
 220 0 l 2,0,1
440 787 m 1,23,-1
 440 314 l 1,24,25
 502 260 502 260 593.5 260 c 128,-1,26
 685 260 685 260 755 326 c 0,27,28
 833 400 833 400 833 550 c 0,29,30
 833 704 833 704 752 779 c 0,31,32
 686 840 686 840 594 840 c 128,-1,33
 502 840 502 840 440 787 c 1,23,-1
EndSplineSet
Validated: 1
EndChar

StartChar: q
Encoding: 113 113 151
Width: 1216
Flags: W
HStem: -410 21G<816 1036> -20 280<484.57 733.908> 840 280<487.035 735.662> 1080 20G<817.5 1036>
VStem: 70 313<368.905 730.429> 776 300<-405.062 49 283.925 815.624 1049 1095.02>
LayerCount: 2
Fore
SplineSet
996 1100 m 2,0,1
 1076 1100 1076 1100 1076 1021 c 2,2,-1
 1076 -331 l 2,3,4
 1076 -410 1076 -410 996 -410 c 2,5,-1
 856 -410 l 2,6,7
 776 -410 776 -410 776 -331 c 2,8,-1
 776 49 l 1,9,10
 673 -20 673 -20 554 -20 c 0,11,12
 382 -20 382 -20 257 91 c 24,13,14
 70 257 70 257 70 550 c 128,-1,15
 70 843 70 843 257 1009 c 24,16,17
 382 1120 382 1120 554 1120 c 0,18,19
 681 1120 681 1120 779 1049 c 1,20,21
 779 1100 779 1100 856 1100 c 2,22,-1
 996 1100 l 2,0,1
776 313 m 1,23,-1
 776 786 l 1,24,25
 714 840 714 840 622.5 840 c 128,-1,26
 531 840 531 840 461 774 c 0,27,28
 383 700 383 700 383 550 c 0,29,30
 383 396 383 396 464 321 c 0,31,32
 530 260 530 260 622 260 c 128,-1,33
 714 260 714 260 776 313 c 1,23,-1
EndSplineSet
Validated: 1
EndChar

StartChar: a
Encoding: 97 97 152
Width: 1100
Flags: W
HStem: -20 247<373.296 617.411> 0 21G<701.5 920> 820 280<263 613.801>
VStem: 50 293<263.847 421.9> 660 300<4.98047 51 255.832 496>
DStem2: 454 685 482 461 0.986394 0.164399<-141.979 172.126>
LayerCount: 2
Fore
SplineSet
880 0 m 2,0,-1
 740 0 l 2,1,2
 663 0 663 0 663 51 c 1,3,4
 558 -20 558 -20 438 -20 c 0,5,6
 262 -20 262 -20 154 76 c 0,7,8
 50 170 50 170 50 299 c 0,9,10
 50 463 50 463 167 559 c 0,11,12
 286 657 286 657 454 685 c 2,13,-1
 652 718 l 1,14,15
 640 754 640 754 612 780 c 0,16,17
 570 820 570 820 493 820 c 2,18,-1
 338 820 l 2,19,20
 258 820 258 820 258 899 c 2,21,-1
 258 1021 l 2,22,23
 258 1100 258 1100 338 1100 c 2,24,-1
 493 1100 l 2,25,26
 698 1100 698 1100 828 990 c 0,27,28
 960 879 960 879 960 696 c 2,29,-1
 960 79 l 2,30,31
 960 0 960 0 880 0 c 2,0,-1
660 288 m 1,32,-1
 660 496 l 1,33,-1
 482 461 l 2,34,35
 418 448 418 448 378 416 c 0,36,37
 343 390 343 390 343 348 c 0,38,39
 343 303 343 303 371 271 c 0,40,41
 409 227 409 227 501.5 227 c 128,-1,42
 594 227 594 227 660 288 c 1,32,-1
EndSplineSet
Validated: 1
EndChar

StartChar: c
Encoding: 99 99 153
Width: 1090
Flags: W
HStem: -20 280<489.673 763.848> 840 280<485.014 762.006>
VStem: 70 313<368.008 733.464>
LayerCount: 2
Fore
SplineSet
623 -20 m 0,0,1
 387 -20 387 -20 241 123 c 0,2,3
 70 292 70 292 70 550 c 0,4,5
 70 815 70 815 241 976 c 0,6,7
 394 1120 394 1120 623 1120 c 0,8,9
 841 1120 841 1120 1005 976 c 0,10,11
 1030 954 1030 954 1030 925 c 0,12,13
 1030 892 1030 892 999 864 c 2,14,-1
 896 771 l 2,15,16
 868 745 868 745 845 745 c 0,17,18
 811 745 811 745 784 776 c 0,19,20
 729 840 729 840 629 840 c 0,21,22
 528 840 528 840 464 779 c 0,23,24
 383 702 383 702 383 550 c 128,-1,25
 383 398 383 398 461 326 c 0,26,27
 532 260 532 260 629 260 c 0,28,29
 728 260 728 260 784 324 c 0,30,31
 811 355 811 355 845 355 c 0,32,33
 868 355 868 355 896 329 c 2,34,-1
 999 236 l 2,35,36
 1030 208 1030 208 1030 175 c 0,37,38
 1030 146 1030 146 1005 124 c 0,39,40
 850 -20 850 -20 623 -20 c 0,0,1
EndSplineSet
Validated: 1
EndChar

StartChar: e
Encoding: 101 101 154
Width: 1178
Flags: W
HStem: -20 280<468.472 763.848> 850 270<474.836 756.42>
VStem: 70 304<572 741.638>
DStem2: 374 572 423 355 0.957702 0.28776<0 461.577>
LayerCount: 2
Fore
SplineSet
623 -20 m 0,0,1
 385 -20 385 -20 241 123 c 0,2,3
 70 293 70 293 70 550 c 0,4,5
 70 816 70 816 241 976 c 0,6,7
 396 1120 396 1120 623 1120 c 0,8,9
 872 1120 872 1120 1006 960 c 0,10,11
 1128 814 1128 814 1128 628 c 0,12,13
 1128 567 1128 567 1062 547 c 2,14,-1
 423 355 l 1,15,16
 438 330 438 330 461 309 c 0,17,18
 518 260 518 260 629 260 c 0,19,20
 728 260 728 260 784 324 c 0,21,22
 811 355 811 355 845 355 c 0,23,24
 868 355 868 355 896 329 c 2,25,-1
 999 236 l 2,26,27
 1030 208 1030 208 1030 175 c 0,28,29
 1030 146 1030 146 1005 124 c 0,30,31
 850 -20 850 -20 623 -20 c 0,0,1
374 572 m 1,32,-1
 816 705 l 1,33,34
 803 764 803 764 766 799 c 0,35,36
 710 850 710 850 622 850 c 0,37,38
 519 850 519 850 461 794 c 0,39,40
 374 711 374 711 374 572 c 1,32,-1
EndSplineSet
Validated: 1
EndChar

StartChar: g
Encoding: 103 103 155
Width: 1216
Flags: W
HStem: -410 260<288 728.584> -20 280<487.035 735.662> 840 280<484.57 735.64> 1080 20G<817.5 1036>
VStem: 70 313<369.571 731.095> 779 297<-104.949 51 285.523 814.949 1049 1095.02>
LayerCount: 2
Fore
SplineSet
601 -410 m 2,0,-1
 363 -410 l 2,1,2
 283 -410 283 -410 283 -331 c 2,3,-1
 283 -229 l 2,4,5
 283 -150 283 -150 363 -150 c 2,6,-1
 601 -150 l 2,7,8
 685 -150 685 -150 730 -112 c 0,9,10
 779 -70 779 -70 779 -2 c 2,11,-1
 779 51 l 1,12,13
 681 -20 681 -20 554 -20 c 0,14,15
 382 -20 382 -20 257 91 c 24,16,17
 70 257 70 257 70 550 c 128,-1,18
 70 843 70 843 257 1009 c 0,19,20
 382 1120 382 1120 554 1120 c 0,21,22
 681 1120 681 1120 779 1049 c 1,23,24
 779 1100 779 1100 856 1100 c 2,25,-1
 996 1100 l 2,26,27
 1076 1100 1076 1100 1076 1021 c 2,28,-1
 1076 24 l 2,29,30
 1076 -178 1076 -178 945 -296 c 0,31,32
 819 -410 819 -410 601 -410 c 2,0,-1
776 787 m 1,33,34
 714 840 714 840 622 840 c 128,-1,35
 530 840 530 840 464 779 c 0,36,37
 383 704 383 704 383 550 c 0,38,39
 383 400 383 400 461 326 c 0,40,41
 531 260 531 260 622.5 260 c 128,-1,42
 714 260 714 260 776 314 c 1,43,-1
 776 787 l 1,33,34
EndSplineSet
Validated: 1
EndChar

StartChar: v
Encoding: 118 118 156
Width: 1166
Flags: W
HStem: 0 265<435 731> 1080 20G<39.5 267 909 1126.5>
DStem2: 323 1036 16 1023 0.324804 -0.945781<-80.8233 815.27> 588 265 821 65 0.324804 0.945781<0 896.094>
LayerCount: 2
Fore
SplineSet
435 0 m 2,0,1
 367 0 367 0 345 65 c 2,2,-1
 16 1023 l 2,3,4
 10 1040 10 1040 10 1055 c 0,5,6
 10 1100 10 1100 69 1100 c 2,7,-1
 233 1100 l 2,8,9
 301 1100 301 1100 323 1036 c 2,10,-1
 588 265 l 1,11,-1
 853 1036 l 2,12,13
 875 1100 875 1100 943 1100 c 2,14,-1
 1097 1100 l 2,15,16
 1156 1100 1156 1100 1156 1055 c 0,17,18
 1156 1040 1156 1040 1150 1023 c 2,19,-1
 821 65 l 2,20,21
 799 0 799 0 731 0 c 2,22,-1
 435 0 l 2,0,1
EndSplineSet
Validated: 1
EndChar

StartChar: y
Encoding: 121 121 157
Width: 1146
Flags: W
HStem: -410 280<199 407.598> 1080 20G<39.5 277 879 1106.5>
DStem2: 333 1036 16 1023 0.324545 -0.94587<-80.8112 753.919> 578 323 746 -95 0.324843 0.945768<0 834.744>
LayerCount: 2
Fore
SplineSet
274 -410 m 0,0,1
 194 -410 194 -410 194 -331 c 2,2,-1
 194 -209 l 2,3,4
 194 -130 194 -130 272 -130 c 0,5,6
 354 -130 354 -130 403 -92 c 0,7,8
 444 -61 444 -61 467 0 c 1,9,-1
 405 0 l 2,10,11
 367 0 367 0 355 35 c 2,12,-1
 16 1023 l 2,13,14
 10 1040 10 1040 10 1055 c 0,15,16
 10 1100 10 1100 69 1100 c 2,17,-1
 243 1100 l 2,18,19
 311 1100 311 1100 333 1036 c 2,20,-1
 578 323 l 1,21,-1
 823 1036 l 2,22,23
 845 1100 845 1100 913 1100 c 2,24,-1
 1077 1100 l 2,25,26
 1136 1100 1136 1100 1136 1055 c 0,27,28
 1136 1040 1136 1040 1130 1023 c 2,29,-1
 746 -95 l 2,30,31
 703 -220 703 -220 618 -296 c 0,32,33
 493 -410 493 -410 274 -410 c 0,0,1
EndSplineSet
Validated: 1
EndChar

StartChar: z
Encoding: 122 122 158
Width: 999
Flags: W
HStem: 0 280<460 924> 820 280<115 538>
DStem2: 92 263 460 280 0.625037 0.780595<243.284 713.558>
LayerCount: 2
Fore
SplineSet
849 0 m 2,0,-1
 150 0 l 2,1,2
 70 0 70 0 70 79 c 2,3,-1
 70 201 l 2,4,5
 70 236 70 236 92 263 c 2,6,-1
 538 820 l 1,7,-1
 190 820 l 2,8,9
 110 820 110 820 110 899 c 2,10,-1
 110 1021 l 2,11,12
 110 1100 110 1100 190 1100 c 2,13,-1
 849 1100 l 2,14,15
 929 1100 929 1100 929 1021 c 2,16,-1
 929 899 l 2,17,18
 929 865 929 865 905 835 c 2,19,-1
 460 280 l 1,20,-1
 849 280 l 2,21,22
 929 280 929 280 929 201 c 2,23,-1
 929 79 l 2,24,25
 929 0 929 0 849 0 c 2,0,-1
EndSplineSet
Validated: 1
EndChar

StartChar: n
Encoding: 110 110 159
Width: 1230
Flags: W
HStem: 0 21G<180 400 830 1050> 840 280<480.745 740.266> 1080 20G<180 398.5>
VStem: 140 300<4.9375 813.531 1049 1095.02> 790 300<4.9375 790>
LayerCount: 2
Fore
SplineSet
360 0 m 2,0,1
 220 0 l 2,2,3
 140 0 140 0 140 79 c 2,4,-1
 140 1021 l 2,5,6
 140 1100 140 1100 220 1100 c 2,7,-1
 360 1100 l 2,8,9
 437 1100 437 1100 437 1049 c 1,10,11
 535 1120 535 1120 662 1120 c 0,12,13
 834 1120 834 1120 959 1009 c 0,14,15
 1090 893 1090 893 1090 697 c 2,16,-1
 1090 79 l 2,17,18
 1090 0 1090 0 1010 0 c 2,19,-1
 870 0 l 2,20,21
 790 0 790 0 790 79 c 2,22,-1
 790 676 l 2,23,24
 790 754 790 754 742 797 c 128,-1,25
 694 840 694 840 601 840 c 128,-1,26
 508 840 508 840 440 784 c 1,27,-1
 440 79 l 2,28,29
 440 0 440 0 360 0 c 2,0,1
EndSplineSet
Validated: 1
EndChar

StartChar: u
Encoding: 117 117 160
Width: 1230
Flags: W
HStem: -20 280<489.734 746.883> 0 21G<831.5 1050> 1080 20G<180 400 830 1050>
VStem: 140 300<310 1095.06> 790 300<4.98047 51 286.469 1095.06>
LayerCount: 2
Fore
SplineSet
1010 0 m 2,0,-1
 870 0 l 2,1,2
 793 0 793 0 793 51 c 1,3,4
 688 -20 688 -20 568 -20 c 0,5,6
 396 -20 396 -20 271 91 c 0,7,8
 140 207 140 207 140 403 c 2,9,-1
 140 1021 l 2,10,11
 140 1100 140 1100 220 1100 c 2,12,-1
 360 1100 l 2,13,14
 440 1100 440 1100 440 1021 c 2,15,-1
 440 424 l 2,16,17
 440 346 440 346 488 303 c 128,-1,18
 536 260 536 260 629 260 c 128,-1,19
 722 260 722 260 790 316 c 1,20,-1
 790 1021 l 2,21,22
 790 1100 790 1100 870 1100 c 2,23,-1
 1010 1100 l 2,24,25
 1090 1100 1090 1100 1090 1021 c 2,26,-1
 1090 79 l 2,27,28
 1090 0 1090 0 1010 0 c 2,0,-1
EndSplineSet
Validated: 1
EndChar

StartChar: h
Encoding: 104 104 161
Width: 1230
Flags: W
HStem: 0 21G<180 400 830 1050> 840 280<480.556 740.266> 1490 20G<180 400>
VStem: 140 300<4.9375 813.531 1051 1505.06> 790 300<4.9375 790>
LayerCount: 2
Fore
SplineSet
360 0 m 2,0,-1
 220 0 l 2,1,2
 140 0 140 0 140 79 c 2,3,-1
 140 1431 l 2,4,5
 140 1510 140 1510 220 1510 c 2,6,-1
 360 1510 l 2,7,8
 440 1510 440 1510 440 1431 c 2,9,-1
 440 1051 l 1,10,11
 538 1120 538 1120 662 1120 c 0,12,13
 834 1120 834 1120 959 1009 c 0,14,15
 1090 893 1090 893 1090 697 c 2,16,-1
 1090 79 l 2,17,18
 1090 0 1090 0 1010 0 c 2,19,-1
 870 0 l 2,20,21
 790 0 790 0 790 79 c 2,22,-1
 790 676 l 2,23,24
 790 754 790 754 742 797 c 128,-1,25
 694 840 694 840 601 840 c 128,-1,26
 508 840 508 840 440 784 c 1,27,-1
 440 79 l 2,28,29
 440 0 440 0 360 0 c 2,0,-1
EndSplineSet
Validated: 1
EndChar

StartChar: m
Encoding: 109 109 162
Width: 1880
Flags: W
HStem: 0 21G<180 400 830 1050 1480 1700> 840 280<480.916 741.244 1108.32 1390.59> 1080 20G<180 398.5>
VStem: 140 300<4.9375 814.721 1049 1095.02> 790 300<4.9375 770.408> 1440 300<4.9375 790>
CounterMasks: 1 1c
LayerCount: 2
Fore
SplineSet
437 1049 m 1,0,1
 536 1120 536 1120 662 1120 c 0,2,3
 827 1120 827 1120 952 1003 c 1,4,5
 1088 1120 1088 1120 1273 1120 c 0,6,7
 1484 1120 1484 1120 1609 1009 c 0,8,9
 1740 893 1740 893 1740 697 c 2,10,-1
 1740 79 l 2,11,12
 1740 0 1740 0 1660 0 c 2,13,-1
 1520 0 l 2,14,15
 1440 0 1440 0 1440 79 c 2,16,-1
 1440 676 l 2,17,18
 1440 754 1440 754 1392 797 c 128,-1,19
 1344 840 1344 840 1248 840 c 0,20,21
 1147 840 1147 840 1080 772 c 1,22,23
 1090 721 1090 721 1090 676 c 2,24,-1
 1090 79 l 2,25,26
 1090 0 1090 0 1010 0 c 2,27,-1
 870 0 l 2,28,29
 790 0 790 0 790 79 c 2,30,-1
 790 676 l 2,31,32
 790 754 790 754 742 797 c 128,-1,33
 694 840 694 840 598 840 c 0,34,35
 503 840 503 840 440 784 c 1,36,-1
 440 79 l 2,37,38
 440 0 440 0 360 0 c 2,39,-1
 220 0 l 2,40,41
 140 0 140 0 140 79 c 2,42,-1
 140 1021 l 2,43,44
 140 1100 140 1100 220 1100 c 2,45,-1
 360 1100 l 2,46,47
 437 1100 437 1100 437 1049 c 1,0,1
EndSplineSet
Validated: 1
EndChar

StartChar: r
Encoding: 114 114 163
Width: 994
Flags: W
HStem: 0 21G<180 400> 840 280<480.745 742.111> 1080 20G<180 398.5>
VStem: 140 300<4.9375 813.531 1049 1095.02>
LayerCount: 2
Fore
SplineSet
360 0 m 2,0,-1
 220 0 l 2,1,2
 140 0 140 0 140 79 c 2,3,-1
 140 1021 l 2,4,5
 140 1100 140 1100 220 1100 c 2,6,-1
 360 1100 l 2,7,8
 437 1100 437 1100 437 1049 c 1,9,10
 535 1120 535 1120 662 1120 c 0,11,12
 834 1120 834 1120 959 1009 c 0,13,14
 984 987 984 987 984 958 c 128,-1,15
 984 929 984 929 953 897 c 2,16,-1
 854 792 l 2,17,18
 830 766 830 766 803 766 c 0,19,20
 777 766 777 766 742 797 c 24,21,22
 694 840 694 840 601 840 c 128,-1,23
 508 840 508 840 440 784 c 1,24,-1
 440 79 l 2,25,26
 440 0 440 0 360 0 c 2,0,-1
EndSplineSet
Validated: 1
EndChar

StartChar: x
Encoding: 120 120 164
Width: 955
Flags: W
HStem: 0 21G<48 265 680 907> 1080 20G<48 275.5 686 903>
DStem2: 480 818 32 1021 0.514364 -0.857572<-354.262 0 453.485 811.473> 32 79 339 64 0.518302 0.855198<46.0318 404.742 864.19 1219.3>
LayerCount: 2
Fore
SplineSet
230 0 m 2,0,-1
 76 0 l 2,1,2
 20 0 20 0 20 47 c 0,3,4
 20 59 20 59 32 79 c 2,5,-1
 316 548 l 1,6,-1
 32 1021 l 2,7,8
 20 1041 20 1041 20 1053 c 0,9,10
 20 1100 20 1100 76 1100 c 2,11,-1
 240 1100 l 2,12,13
 311 1100 311 1100 349 1036 c 2,14,-1
 480 818 l 1,15,-1
 612 1036 l 2,16,17
 651 1100 651 1100 721 1100 c 2,18,-1
 875 1100 l 2,19,20
 931 1100 931 1100 931 1053 c 0,21,22
 931 1041 931 1041 919 1021 c 2,23,-1
 637 556 l 1,24,-1
 923 79 l 2,25,26
 935 59 935 59 935 47 c 0,27,28
 935 0 935 0 879 0 c 2,29,-1
 715 0 l 2,30,31
 645 0 645 0 606 64 c 2,32,-1
 473 285 l 1,33,-1
 339 64 l 2,34,35
 300 0 300 0 230 0 c 2,0,-1
EndSplineSet
Validated: 1
EndChar

StartChar: k
Encoding: 107 107 165
Width: 1069
Flags: W
HStem: 0 21G<180 400 770.5 1021> 1080 20G<773.5 998.5> 1490 20G<180 400>
VStem: 140 300<4.9375 297 717 1505.06>
DStem2: 440 717 712 641 0.619751 0.784799<108.927 522.211> 712 641 511 387 0.501764 -0.865004<118.857 590.857>
LayerCount: 2
Fore
SplineSet
1038 79 m 2,0,1
 1049 60 1049 60 1049 42 c 0,2,3
 1049 0 1049 0 993 0 c 2,4,-1
 806 0 l 2,5,6
 735 0 735 0 698 64 c 2,7,-1
 511 387 l 1,8,-1
 440 297 l 1,9,-1
 440 79 l 2,10,11
 440 0 440 0 360 0 c 2,12,-1
 220 0 l 2,13,14
 140 0 140 0 140 79 c 2,15,-1
 140 1431 l 2,16,17
 140 1510 140 1510 220 1510 c 2,18,-1
 360 1510 l 2,19,20
 440 1510 440 1510 440 1431 c 2,21,-1
 440 717 l 1,22,-1
 691 1036 l 2,23,24
 741 1100 741 1100 806 1100 c 2,25,-1
 973 1100 l 2,26,27
 1024 1100 1024 1100 1024 1059 c 0,28,29
 1024 1037 1024 1037 1007 1015 c 2,30,-1
 712 641 l 1,31,-1
 1038 79 l 2,0,1
EndSplineSet
Validated: 1
EndChar

StartChar: w
Encoding: 119 119 166
Width: 1508
Flags: W
HStem: 0 21G<270 590.5 917.5 1238> 692 408<469 1049>
DStem2: 313 1021 23 1021 0.203705 -0.979032<-81.9267 717.107> 445 316 641 79 0.197453 0.980312<0 429.61> 931 1021 754 692 0.197453 -0.980312<287.574 719.159> 1073 316 1289 79 0.203705 0.979032<0 796.996>
LayerCount: 2
Fore
SplineSet
555 0 m 2,0,1
 305 0 l 2,2,3
 235 0 235 0 219 79 c 2,4,-1
 23 1021 l 2,5,6
 20 1035 20 1035 20 1044 c 0,7,8
 20 1100 20 1100 97 1100 c 2,9,-1
 227 1100 l 2,10,11
 298 1100 298 1100 313 1021 c 2,12,-1
 445 316 l 1,13,-1
 587 1021 l 2,14,15
 603 1100 603 1100 673 1100 c 2,16,-1
 845 1100 l 2,17,18
 915 1100 915 1100 931 1021 c 2,19,20
 1073 316 l 1,21,-1
 1205 1021 l 2,22,23
 1220 1100 1220 1100 1291 1100 c 2,24,-1
 1411 1100 l 2,25,26
 1488 1100 1488 1100 1488 1044 c 0,27,28
 1488 1035 1488 1035 1485 1021 c 2,29,-1
 1289 79 l 2,30,31
 1273 0 1273 0 1203 0 c 2,32,-1
 953 0 l 2,33,34
 882 0 882 0 867 79 c 2,35,-1
 754 692 l 1,36,-1
 641 79 l 2,37,38
 626 0 626 0 555 0 c 2,0,1
EndSplineSet
Validated: 1
EndChar

StartChar: Oslash
Encoding: 216 216 167
Width: 1574
Flags: W
HStem: -20 300<650.348 969.35> 1230 300<604.859 923.667>
VStem: 70 329<517.207 992.097> 1175 329<518.379 993.027>
DStem2: 382 39 519 27 0.422418 0.906401<-19.078 51.4092 370.87 1269.25 1589.56 1659.2>
LayerCount: 2
Fore
SplineSet
788 280 m 0,0,1
 961 280 961 280 1063 404 c 0,2,3
 1175 540 1175 540 1175 755 c 0,4,5
 1175 976 1175 976 1063 1106 c 0,6,7
 1050 1122 1050 1122 1035 1135 c 1,8,-1
 648 305 l 1,9,10
 712 280 712 280 788 280 c 0,0,1
1055 1484 m 1,11,-1
 1075 1526 l 2,12,13
 1085 1548 1085 1548 1103 1548 c 0,14,15
 1111 1548 1111 1548 1121 1543 c 2,16,-1
 1176 1517 l 2,17,18
 1197 1507 1197 1507 1197 1490 c 0,19,20
 1197 1481 1197 1481 1192 1471 c 2,21,-1
 1171 1425 l 1,22,23
 1249 1374 1249 1374 1313 1299 c 0,24,25
 1504 1075 1504 1075 1504 755 c 128,-1,26
 1504 435 1504 435 1313 211 c 0,27,28
 1115 -20 1115 -20 787 -20 c 0,29,30
 640 -20 640 -20 519 27 c 1,31,-1
 499 -16 l 2,32,33
 489 -38 489 -38 471 -38 c 0,34,35
 463 -38 463 -38 453 -33 c 2,36,-1
 398 -7 l 2,37,38
 377 3 377 3 377 20 c 0,39,40
 377 29 377 29 382 39 c 2,41,-1
 404 85 l 1,42,43
 326 136 326 136 261 211 c 0,44,45
 70 435 70 435 70 755 c 0,46,47
 70 1077 70 1077 261 1299 c 0,48,49
 460 1530 460 1530 787 1530 c 0,50,51
 934 1530 934 1530 1055 1484 c 1,11,-1
539 375 m 1,52,-1
 926 1205 l 1,53,54
 863 1230 863 1230 786 1230 c 0,55,56
 613 1230 613 1230 511 1106 c 0,57,58
 399 970 399 970 399 755 c 0,59,60
 399 535 399 535 511 404 c 0,61,62
 525 389 525 389 539 375 c 1,52,-1
EndSplineSet
Validated: 1
EndChar

StartChar: oslash
Encoding: 248 248 168
Width: 1246
Flags: W
HStem: -20 280<564.768 756.85> 840 280<485.375 682.488>
VStem: 70 313<367.543 733.464> 863 313<369.109 730.891>
DStem2: 304 20 422 -35 0.422663 0.906287<-19.105 50.0038 348.518 882.711 1177.92 1249.43>
LayerCount: 2
Fore
SplineSet
623 260 m 0,0,1
 714 260 714 260 785 326 c 0,2,3
 863 401 863 401 863 550 c 0,4,5
 863 689 863 689 795 765 c 1,6,-1
 563 268 l 1,7,8
 592 260 592 260 623 260 c 0,0,1
805 1093 m 1,9,-1
 824 1135 l 2,10,11
 834 1157 834 1157 852 1157 c 0,12,13
 860 1157 860 1157 871 1152 c 2,14,-1
 925 1126 l 2,15,16
 947 1116 947 1116 947 1099 c 0,17,18
 947 1091 947 1091 942 1080 c 2,19,-1
 923 1039 l 1,20,21
 966 1012 966 1012 1005 976 c 0,22,23
 1176 816 1176 816 1176 550 c 0,24,25
 1176 294 1176 294 1005 124 c 0,26,27
 861 -20 861 -20 623 -20 c 0,28,29
 524 -20 524 -20 441 5 c 1,30,-1
 422 -35 l 2,31,32
 412 -57 412 -57 394 -57 c 0,33,34
 386 -57 386 -57 375 -52 c 2,35,-1
 321 -26 l 2,36,37
 299 -16 299 -16 299 1 c 0,38,39
 299 9 299 9 304 20 c 2,40,-1
 322 59 l 1,41,42
 278 86 278 86 241 123 c 0,43,44
 70 292 70 292 70 550 c 0,45,46
 70 815 70 815 241 976 c 0,47,48
 396 1120 396 1120 623 1120 c 0,49,50
 721 1120 721 1120 805 1093 c 1,9,-1
451 336 m 1,51,-1
 683 833 l 1,52,53
 654 840 654 840 622 840 c 0,54,55
 528 840 528 840 464 779 c 0,56,57
 383 702 383 702 383 550 c 0,58,59
 383 410 383 410 451 336 c 1,51,-1
EndSplineSet
Validated: 1
EndChar

StartChar: Thorn
Encoding: 222 222 169
Width: 1238
Flags: W
HStem: 0 21G<180 420> 242 301<460 762.735> 967 300<460 762.735> 1490 20G<180 420>
VStem: 140 320<4.9375 242 543 967 1267 1505.06> 838 330<616.918 893.141>
LayerCount: 2
Fore
SplineSet
380 0 m 2,0,-1
 220 0 l 2,1,2
 140 0 140 0 140 79 c 2,3,-1
 140 1431 l 2,4,5
 140 1510 140 1510 220 1510 c 2,6,-1
 380 1510 l 2,7,8
 460 1510 460 1510 460 1431 c 2,9,-1
 460 1267 l 1,10,-1
 623 1267 l 2,11,12
 872 1267 872 1267 1029 1108 c 0,13,14
 1168 967 1168 967 1168 755 c 0,15,16
 1168 542 1168 542 1029 401 c 0,17,18
 872 242 872 242 623 242 c 2,19,-1
 460 242 l 1,20,-1
 460 79 l 2,21,22
 460 0 460 0 380 0 c 2,0,-1
460 543 m 1,23,-1
 623 543 l 2,24,25
 727 543 727 543 781 601 c 0,26,27
 838 662 838 662 838 756 c 0,28,29
 838 851 838 851 781 909 c 128,-1,30
 724 967 724 967 623 967 c 2,31,-1
 460 967 l 1,32,-1
 460 543 l 1,23,-1
EndSplineSet
Validated: 1
EndChar

StartChar: thorn
Encoding: 254 254 170
Width: 1216
Flags: W
HStem: -410 21G<180 400> -20 280<482.092 731.43> 840 280<482.067 728.965> 1490 20G<180 400>
VStem: 140 300<-405.062 49 283.925 815.624 1051 1505.06> 833 313<368.905 730.429>
LayerCount: 2
Fore
SplineSet
220 -410 m 2,0,1
 140 -410 140 -410 140 -331 c 2,2,-1
 140 1431 l 2,3,4
 140 1510 140 1510 220 1510 c 2,5,-1
 360 1510 l 2,6,7
 440 1510 440 1510 440 1431 c 2,8,-1
 440 1051 l 1,9,10
 543 1120 543 1120 662 1120 c 0,11,12
 834 1120 834 1120 959 1009 c 24,13,14
 1146 843 1146 843 1146 550 c 128,-1,15
 1146 257 1146 257 959 91 c 24,16,17
 834 -20 834 -20 662 -20 c 0,18,19
 543 -20 543 -20 440 49 c 1,20,-1
 440 -331 l 2,21,22
 440 -410 440 -410 360 -410 c 2,23,-1
 220 -410 l 2,0,1
440 313 m 1,24,25
 502 260 502 260 594 260 c 128,-1,26
 686 260 686 260 752 321 c 0,27,28
 833 396 833 396 833 550 c 0,29,30
 833 700 833 700 755 774 c 0,31,32
 685 840 685 840 593.5 840 c 128,-1,33
 502 840 502 840 440 786 c 1,34,-1
 440 313 l 1,24,25
EndSplineSet
Validated: 1
EndChar

StartChar: uni203D
Encoding: 8253 8253 171
Width: 1200
Flags: W
HStem: -20 365<407.131 641.878> 1080 20G<445 600> 1121 21G<286 313> 1230 300<401.312 707.981>
VStem: 345 360<42.5657 282.578> 413 220<814 1097.68> 789 321<919.144 1156.31>
LayerCount: 2
Fore
SplineSet
525 -20 m 0,0,1
 449 -20 449 -20 397 34 c 128,-1,2
 345 88 345 88 345 162 c 0,3,4
 345 238 345 238 397 291 c 0,5,6
 450 345 450 345 525 345 c 128,-1,7
 600 345 600 345 652.5 291.5 c 128,-1,8
 705 238 705 238 705 163 c 128,-1,9
 705 88 705 88 652 34 c 128,-1,10
 599 -20 599 -20 525 -20 c 0,0,1
555 1530 m 0,11,12
 812 1530 812 1530 969 1366 c 0,13,14
 1110 1219 1110 1219 1110 1034 c 0,15,16
 1110 765 1110 765 833 609 c 0,17,18
 691 529 691 529 691 479 c 0,19,20
 691 400 691 400 611 400 c 2,21,-1
 451 400 l 2,22,23
 371 400 371 400 371 479 c 0,24,25
 371 567 371 567 413 636 c 1,26,-1
 413 1034 l 2,27,28
 413 1100 413 1100 477 1100 c 2,29,-1
 567 1100 l 2,30,31
 633 1100 633 1100 633 1034 c 2,32,-1
 633 814 l 1,33,34
 789 922 789 922 789 1036 c 0,35,36
 789 1110 789 1110 742 1159 c 0,37,38
 675 1230 675 1230 554 1230 c 0,39,40
 436 1230 436 1230 356 1150 c 0,41,42
 327 1121 327 1121 299 1121 c 0,43,44
 273 1121 273 1121 246 1141 c 2,45,-1
 126 1231 l 2,46,47
 90 1258 90 1258 90 1290 c 0,48,49
 90 1317 90 1317 111 1342 c 0,50,51
 269 1530 269 1530 555 1530 c 0,11,12
EndSplineSet
Validated: 1
EndChar

StartChar: uni1E02
Encoding: 7682 7682 172
Width: 1300
Flags: W
HStem: 0 300<460 833.62> 676 281<460 773.714> 1230 280<460 773.653> 1590 364<495.131 729.338>
VStem: 140 320<300 676 957 1230> 433 360<1654.3 1891.73> 830 309<996.257 1190.55> 910 320<368.529 606.596>
LayerCount: 2
Fore
SplineSet
613 1954 m 0,0,1
 689 1954 689 1954 741 1901 c 128,-1,2
 793 1848 793 1848 793 1773 c 0,3,4
 793 1699 793 1699 740 1644 c 0,5,6
 688 1590 688 1590 613 1590 c 0,7,8
 536 1590 536 1590 484.5 1644 c 128,-1,9
 433 1698 433 1698 433 1772 c 0,10,11
 433 1848 433 1848 485 1900 c 0,12,13
 538 1954 538 1954 613 1954 c 0,0,1
460 957 m 1,14,-1
 675 957 l 2,15,16
 734 957 734 957 775 987 c 0,17,18
 830 1029 830 1029 830 1093 c 0,19,20
 830 1161 830 1161 775 1200 c 0,21,22
 732 1230 732 1230 675 1230 c 2,23,-1
 460 1230 l 1,24,-1
 460 957 l 1,14,-1
460 300 m 1,25,-1
 665 300 l 2,26,27
 793 300 793 300 860 363 c 0,28,29
 910 411 910 411 910 488 c 0,30,31
 910 564 910 564 859 614 c 0,32,33
 795 676 795 676 665 676 c 2,34,-1
 460 676 l 1,35,-1
 460 300 l 1,25,-1
220 0 m 2,36,37
 140 0 140 0 140 79 c 2,38,-1
 140 1431 l 2,39,40
 140 1510 140 1510 220 1510 c 2,41,-1
 665 1510 l 2,42,43
 852 1510 852 1510 983 1413 c 0,44,45
 1139 1298 1139 1298 1139 1112 c 0,46,47
 1139 967 1139 967 1030 858 c 1,48,49
 1050 845 1050 845 1066 831 c 0,50,51
 1230 688 1230 688 1230 484 c 0,52,53
 1230 278 1230 278 1084 143 c 0,54,55
 929 0 929 0 665 0 c 2,56,-1
 220 0 l 2,36,37
EndSplineSet
Validated: 1
EndChar

StartChar: uni1E03
Encoding: 7683 7683 173
Width: 1216
Flags: W
HStem: -20 280<480.338 728.965> 0 21G<180 398.5> 840 280<482.092 731.43> 1180 364<580.131 814.338> 1490 20G<180 400>
VStem: 140 300<4.98047 51 284.376 816.075 1051 1505.06> 518 360<1244.3 1481.73> 833 313<369.571 731.095>
LayerCount: 2
Fore
SplineSet
698 1544 m 0,0,1
 774 1544 774 1544 826 1491 c 128,-1,2
 878 1438 878 1438 878 1363 c 0,3,4
 878 1289 878 1289 825 1234 c 0,5,6
 773 1180 773 1180 698 1180 c 0,7,8
 621 1180 621 1180 569.5 1234 c 128,-1,9
 518 1288 518 1288 518 1362 c 0,10,11
 518 1438 518 1438 570 1490 c 0,12,13
 623 1544 623 1544 698 1544 c 0,0,1
220 0 m 2,14,15
 140 0 140 0 140 79 c 2,16,-1
 140 1431 l 2,17,18
 140 1510 140 1510 220 1510 c 2,19,-1
 360 1510 l 2,20,21
 440 1510 440 1510 440 1431 c 2,22,-1
 440 1051 l 1,23,24
 543 1120 543 1120 662 1120 c 0,25,26
 834 1120 834 1120 959 1009 c 24,27,28
 1146 843 1146 843 1146 550 c 128,-1,29
 1146 257 1146 257 959 91 c 24,30,31
 834 -20 834 -20 662 -20 c 0,32,33
 535 -20 535 -20 437 51 c 1,34,35
 437 0 437 0 360 0 c 2,36,-1
 220 0 l 2,14,15
440 787 m 1,37,-1
 440 314 l 1,38,39
 502 260 502 260 593.5 260 c 128,-1,40
 685 260 685 260 755 326 c 0,41,42
 833 400 833 400 833 550 c 0,43,44
 833 704 833 704 752 779 c 0,45,46
 686 840 686 840 594 840 c 128,-1,47
 502 840 502 840 440 787 c 1,37,-1
EndSplineSet
Validated: 1
EndChar

StartChar: uni1E0A
Encoding: 7690 7690 174
Width: 1474
Flags: W
HStem: 0 300<460 868.242> 1210 300<460 862.025> 1590 364<536.131 770.338>
VStem: 140 320<300 1210> 474 360<1654.3 1891.73> 1075 329<531.805 978.192>
LayerCount: 2
Fore
SplineSet
654 1954 m 0,0,1
 730 1954 730 1954 782 1901 c 128,-1,2
 834 1848 834 1848 834 1773 c 0,3,4
 834 1699 834 1699 781 1644 c 0,5,6
 729 1590 729 1590 654 1590 c 0,7,8
 577 1590 577 1590 525.5 1644 c 128,-1,9
 474 1698 474 1698 474 1772 c 0,10,11
 474 1848 474 1848 526 1900 c 0,12,13
 579 1954 579 1954 654 1954 c 0,0,1
220 0 m 2,14,15
 140 0 140 0 140 79 c 2,16,-1
 140 1431 l 2,17,18
 140 1510 140 1510 220 1510 c 2,19,-1
 687 1510 l 2,20,21
 1017 1510 1017 1510 1213 1280 c 0,22,23
 1404 1057 1404 1057 1404 755 c 0,24,25
 1404 452 1404 452 1213 230 c 0,26,27
 1015 0 1015 0 687 0 c 2,28,-1
 220 0 l 2,14,15
460 300 m 1,29,-1
 687 300 l 2,30,31
 861 300 861 300 963 423 c 24,32,33
 1075 558 1075 558 1075 755 c 0,34,35
 1075 953 1075 953 963 1087 c 0,36,37
 860 1210 860 1210 687 1210 c 2,38,-1
 460 1210 l 1,39,-1
 460 300 l 1,29,-1
EndSplineSet
Validated: 1
EndChar

StartChar: uni1E0B
Encoding: 7691 7691 175
Width: 1216
Flags: W
HStem: -20 280<487.035 735.662> 0 21G<817.5 1036> 840 280<484.57 733.908> 1180 364<400.131 634.338> 1490 20G<816 1036>
VStem: 70 313<369.571 731.095> 338 360<1244.3 1481.73> 776 300<4.98047 51 284.376 816.075 1051 1505.06>
LayerCount: 2
Fore
SplineSet
518 1544 m 0,0,1
 594 1544 594 1544 646 1491 c 128,-1,2
 698 1438 698 1438 698 1363 c 0,3,4
 698 1289 698 1289 645 1234 c 0,5,6
 593 1180 593 1180 518 1180 c 0,7,8
 441 1180 441 1180 389.5 1234 c 128,-1,9
 338 1288 338 1288 338 1362 c 0,10,11
 338 1438 338 1438 390 1490 c 0,12,13
 443 1544 443 1544 518 1544 c 0,0,1
996 0 m 2,14,-1
 856 0 l 2,15,16
 779 0 779 0 779 51 c 1,17,18
 681 -20 681 -20 554 -20 c 0,19,20
 382 -20 382 -20 257 91 c 24,21,22
 70 257 70 257 70 550 c 128,-1,23
 70 843 70 843 257 1009 c 24,24,25
 382 1120 382 1120 554 1120 c 0,26,27
 673 1120 673 1120 776 1051 c 1,28,-1
 776 1431 l 2,29,30
 776 1510 776 1510 856 1510 c 2,31,-1
 996 1510 l 2,32,33
 1076 1510 1076 1510 1076 1431 c 2,34,-1
 1076 79 l 2,35,36
 1076 0 1076 0 996 0 c 2,14,-1
776 787 m 1,37,38
 714 840 714 840 622 840 c 128,-1,39
 530 840 530 840 464 779 c 0,40,41
 383 704 383 704 383 550 c 0,42,43
 383 400 383 400 461 326 c 0,44,45
 531 260 531 260 622.5 260 c 128,-1,46
 714 260 714 260 776 314 c 1,47,-1
 776 787 l 1,37,38
EndSplineSet
Validated: 1
EndChar

StartChar: uni1E1E
Encoding: 7710 7710 176
Width: 1078
Flags: W
HStem: 0 21G<180 420> 605 300<460 887> 1210 300<460 1053> 1590 364<478.131 712.338>
VStem: 140 320<4.9375 605 905 1210> 416 360<1654.3 1891.73>
LayerCount: 2
Fore
SplineSet
596 1954 m 0,0,1
 672 1954 672 1954 724 1901 c 128,-1,2
 776 1848 776 1848 776 1773 c 0,3,4
 776 1699 776 1699 723 1644 c 0,5,6
 671 1590 671 1590 596 1590 c 0,7,8
 519 1590 519 1590 467.5 1644 c 128,-1,9
 416 1698 416 1698 416 1772 c 0,10,11
 416 1848 416 1848 468 1900 c 0,12,13
 521 1954 521 1954 596 1954 c 0,0,1
380 0 m 2,14,-1
 220 0 l 2,15,16
 140 0 140 0 140 79 c 2,17,-1
 140 1431 l 2,18,19
 140 1510 140 1510 220 1510 c 2,20,-1
 978 1510 l 2,21,22
 1058 1510 1058 1510 1058 1431 c 2,23,-1
 1058 1289 l 2,24,25
 1058 1210 1058 1210 978 1210 c 2,26,-1
 460 1210 l 1,27,-1
 460 905 l 1,28,-1
 812 905 l 2,29,30
 892 905 892 905 892 826 c 2,31,-1
 892 684 l 2,32,33
 892 605 892 605 812 605 c 2,34,-1
 460 605 l 1,35,-1
 460 79 l 2,36,37
 460 0 460 0 380 0 c 2,14,-1
EndSplineSet
Validated: 1
EndChar

StartChar: uni1E1F
Encoding: 7711 7711 177
Width: 850
Flags: W
HStem: 0 21G<180 400> 660 280<440 785> 1230 280<487.416 825> 1590 364<331.131 565.338>
VStem: 140 300<4.9375 660 940 1188.53> 269 360<1654.3 1891.73>
LayerCount: 2
Fore
SplineSet
449 1954 m 0,0,1
 525 1954 525 1954 577 1901 c 128,-1,2
 629 1848 629 1848 629 1773 c 0,3,4
 629 1699 629 1699 576 1644 c 0,5,6
 524 1590 524 1590 449 1590 c 0,7,8
 372 1590 372 1590 320.5 1644 c 128,-1,9
 269 1698 269 1698 269 1772 c 0,10,11
 269 1848 269 1848 321 1900 c 0,12,13
 374 1954 374 1954 449 1954 c 0,0,1
360 0 m 2,14,-1
 220 0 l 2,15,16
 140 0 140 0 140 79 c 2,17,-1
 140 1076 l 2,18,19
 140 1278 140 1278 271 1396 c 0,20,21
 397 1510 397 1510 615 1510 c 2,22,-1
 750 1510 l 2,23,24
 830 1510 830 1510 830 1431 c 2,25,-1
 830 1309 l 2,26,27
 830 1230 830 1230 750 1230 c 2,28,-1
 615 1230 l 2,29,30
 531 1230 531 1230 486 1192 c 0,31,32
 440 1153 440 1153 440 1085 c 2,33,-1
 440 940 l 1,34,-1
 710 940 l 2,35,36
 790 940 790 940 790 861 c 2,37,-1
 790 739 l 2,38,39
 790 660 790 660 710 660 c 2,40,-1
 440 660 l 1,41,-1
 440 79 l 2,42,43
 440 0 440 0 360 0 c 2,14,-1
EndSplineSet
Validated: 1
EndChar

StartChar: uni1E40
Encoding: 7744 7744 178
Width: 1942
Flags: W
HStem: 0 281<825 1107> 1490 20G<233.5 634 1308 1708.5> 1590 364<849.131 1083.34>
VStem: 100 300<6.52197 294.359> 787 360<1654.3 1891.73>
DStem2: 686 1446 467 1138 0.237628 -0.971356<247.137 1199.35> 971 281 1194 64 0.237628 0.971356<0 950.078> 1752 1431 1466 1138 0.066421 -0.997792<273.357 1359.98>
LayerCount: 2
Fore
SplineSet
318 0 m 2,0,1
 178 0 l 2,2,3
 100 0 100 0 100 74 c 0,4,5
 100 76 100 76 100 79 c 2,6,-1
 190 1431 l 2,7,8
 195 1510 195 1510 272 1510 c 2,9,-1
 598 1510 l 2,10,11
 670 1510 670 1510 686 1446 c 2,12,-1
 971 281 l 1,13,-1
 1256 1446 l 2,14,15
 1272 1510 1272 1510 1344 1510 c 2,16,-1
 1670 1510 l 2,17,18
 1747 1510 1747 1510 1752 1431 c 2,19,20
 1842 79 l 2,21,22
 1842 76 1842 76 1842 74 c 0,23,24
 1842 0 1842 0 1764 0 c 2,25,-1
 1614 0 l 2,26,27
 1537 0 1537 0 1532 79 c 2,28,-1
 1466 1138 l 1,29,-1
 1194 64 l 2,30,31
 1178 0 1178 0 1107 0 c 2,32,-1
 825 0 l 2,33,34
 753 0 753 0 737 64 c 2,35,-1
 467 1138 l 1,36,-1
 400 79 l 2,37,38
 395 0 395 0 318 0 c 2,0,1
967 1954 m 0,39,40
 1043 1954 1043 1954 1095 1901 c 128,-1,41
 1147 1848 1147 1848 1147 1773 c 0,42,43
 1147 1699 1147 1699 1094 1644 c 0,44,45
 1042 1590 1042 1590 967 1590 c 0,46,47
 890 1590 890 1590 838.5 1644 c 128,-1,48
 787 1698 787 1698 787 1772 c 0,49,50
 787 1848 787 1848 839 1900 c 0,51,52
 892 1954 892 1954 967 1954 c 0,39,40
EndSplineSet
Validated: 1
EndChar

StartChar: uni1E41
Encoding: 7745 7745 179
Width: 1880
Flags: W
HStem: 0 21G<180 400 830 1050 1480 1700> 840 280<480.916 741.244 1108.32 1390.59> 1080 20G<180 398.5> 1180 364<807.131 1041.34>
VStem: 140 300<4.9375 814.721 1049 1095.02> 745 360<1244.3 1481.73> 790 300<4.9375 770.408> 1440 300<4.9375 790>
LayerCount: 2
Fore
SplineSet
925 1544 m 0,0,1
 1001 1544 1001 1544 1053 1491 c 128,-1,2
 1105 1438 1105 1438 1105 1363 c 0,3,4
 1105 1289 1105 1289 1052 1234 c 0,5,6
 1000 1180 1000 1180 925 1180 c 0,7,8
 848 1180 848 1180 796.5 1234 c 128,-1,9
 745 1288 745 1288 745 1362 c 0,10,11
 745 1438 745 1438 797 1490 c 0,12,13
 850 1544 850 1544 925 1544 c 0,0,1
437 1049 m 1,14,15
 536 1120 536 1120 662 1120 c 0,16,17
 827 1120 827 1120 952 1003 c 1,18,19
 1088 1120 1088 1120 1273 1120 c 0,20,21
 1484 1120 1484 1120 1609 1009 c 0,22,23
 1740 893 1740 893 1740 697 c 2,24,-1
 1740 79 l 2,25,26
 1740 0 1740 0 1660 0 c 2,27,-1
 1520 0 l 2,28,29
 1440 0 1440 0 1440 79 c 2,30,-1
 1440 676 l 2,31,32
 1440 754 1440 754 1392 797 c 128,-1,33
 1344 840 1344 840 1248 840 c 0,34,35
 1147 840 1147 840 1080 772 c 1,36,37
 1090 721 1090 721 1090 676 c 2,38,-1
 1090 79 l 2,39,40
 1090 0 1090 0 1010 0 c 2,41,-1
 870 0 l 2,42,43
 790 0 790 0 790 79 c 2,44,-1
 790 676 l 2,45,46
 790 754 790 754 742 797 c 128,-1,47
 694 840 694 840 598 840 c 0,48,49
 503 840 503 840 440 784 c 1,50,-1
 440 79 l 2,51,52
 440 0 440 0 360 0 c 2,53,-1
 220 0 l 2,54,55
 140 0 140 0 140 79 c 2,56,-1
 140 1021 l 2,57,58
 140 1100 140 1100 220 1100 c 2,59,-1
 360 1100 l 2,60,61
 437 1100 437 1100 437 1049 c 1,14,15
EndSplineSet
Validated: 1
EndChar

StartChar: uni1E56
Encoding: 7766 7766 180
Width: 1238
Flags: W
HStem: 0 21G<180 420> 485 301<460 762.735> 1210 300<460 762.735> 1590 364<494.131 728.338>
VStem: 140 320<4.9375 485 786 1210> 432 360<1654.3 1891.73> 838 330<859.918 1136.14>
LayerCount: 2
Fore
SplineSet
612 1954 m 0,0,1
 688 1954 688 1954 740 1901 c 128,-1,2
 792 1848 792 1848 792 1773 c 0,3,4
 792 1699 792 1699 739 1644 c 0,5,6
 687 1590 687 1590 612 1590 c 0,7,8
 535 1590 535 1590 483.5 1644 c 128,-1,9
 432 1698 432 1698 432 1772 c 0,10,11
 432 1848 432 1848 484 1900 c 0,12,13
 537 1954 537 1954 612 1954 c 0,0,1
380 0 m 2,14,-1
 220 0 l 2,15,16
 140 0 140 0 140 79 c 2,17,-1
 140 1431 l 2,18,19
 140 1510 140 1510 220 1510 c 2,20,-1
 623 1510 l 2,21,22
 872 1510 872 1510 1029 1351 c 0,23,24
 1168 1210 1168 1210 1168 998 c 0,25,26
 1168 785 1168 785 1029 644 c 0,27,28
 872 485 872 485 623 485 c 2,29,-1
 460 485 l 1,30,-1
 460 79 l 2,31,32
 460 0 460 0 380 0 c 2,14,-1
460 1210 m 1,33,-1
 460 786 l 1,34,-1
 623 786 l 2,35,36
 727 786 727 786 781 844 c 0,37,38
 838 905 838 905 838 999 c 0,39,40
 838 1094 838 1094 781 1152 c 128,-1,41
 724 1210 724 1210 623 1210 c 2,42,-1
 460 1210 l 1,33,-1
EndSplineSet
Validated: 1
EndChar

StartChar: uni1E57
Encoding: 7767 7767 181
Width: 1216
Flags: W
HStem: -410 21G<180 400> -20 280<482.092 731.43> 840 280<480.338 728.965> 1080 20G<180 398.5> 1180 364<484.131 718.338>
VStem: 140 300<-405.062 49 283.925 815.624 1049 1095.02> 422 360<1244.3 1481.73> 833 313<368.905 730.429>
LayerCount: 2
Fore
SplineSet
602 1544 m 0,0,1
 678 1544 678 1544 730 1491 c 128,-1,2
 782 1438 782 1438 782 1363 c 0,3,4
 782 1289 782 1289 729 1234 c 0,5,6
 677 1180 677 1180 602 1180 c 0,7,8
 525 1180 525 1180 473.5 1234 c 128,-1,9
 422 1288 422 1288 422 1362 c 0,10,11
 422 1438 422 1438 474 1490 c 0,12,13
 527 1544 527 1544 602 1544 c 0,0,1
220 1100 m 2,14,-1
 360 1100 l 2,15,16
 437 1100 437 1100 437 1049 c 1,17,18
 535 1120 535 1120 662 1120 c 0,19,20
 834 1120 834 1120 959 1009 c 24,21,22
 1146 843 1146 843 1146 550 c 128,-1,23
 1146 257 1146 257 959 91 c 24,24,25
 834 -20 834 -20 662 -20 c 0,26,27
 543 -20 543 -20 440 49 c 1,28,-1
 440 -331 l 2,29,30
 440 -410 440 -410 360 -410 c 2,31,-1
 220 -410 l 2,32,33
 140 -410 140 -410 140 -331 c 2,34,-1
 140 1021 l 2,35,36
 140 1100 140 1100 220 1100 c 2,14,-1
440 313 m 1,37,38
 502 260 502 260 594 260 c 128,-1,39
 686 260 686 260 752 321 c 0,40,41
 833 396 833 396 833 550 c 0,42,43
 833 700 833 700 755 774 c 0,44,45
 685 840 685 840 593.5 840 c 128,-1,46
 502 840 502 840 440 786 c 1,47,-1
 440 313 l 1,37,38
EndSplineSet
Validated: 1
EndChar

StartChar: uni1E60
Encoding: 7776 7776 182
Width: 1251
Flags: W
HStem: -20 300<408.084 751.972> 1252 278<532.376 738.795> 1590 364<490.131 724.338>
VStem: 190 319<1075.39 1224.8> 428 360<1654.3 1891.73> 846 325<366.797 588.692>
DStem2: 663 1011 484 740 0.924017 -0.382352<-173.478 331.215>
LayerCount: 2
Fore
SplineSet
608 1954 m 0,0,1
 684 1954 684 1954 736 1901 c 128,-1,2
 788 1848 788 1848 788 1773 c 0,3,4
 788 1699 788 1699 735 1644 c 0,5,6
 683 1590 683 1590 608 1590 c 0,7,8
 531 1590 531 1590 479.5 1644 c 128,-1,9
 428 1698 428 1698 428 1772 c 0,10,11
 428 1848 428 1848 480 1900 c 0,12,13
 533 1954 533 1954 608 1954 c 0,0,1
570 -20 m 0,14,15
 287 -20 287 -20 91 203 c 0,16,17
 70 228 70 228 70 255 c 0,18,19
 70 287 70 287 106 314 c 2,20,-1
 231 408 l 2,21,22
 258 428 258 428 284 428 c 0,23,24
 320 428 320 428 341 393 c 0,25,26
 410 280 410 280 577 280 c 0,27,28
 704 280 704 280 780 344 c 0,29,30
 846 399 846 399 846 482 c 0,31,32
 846 590 846 590 716 644 c 2,33,-1
 484 740 l 2,34,35
 190 862 190 862 190 1124 c 0,36,37
 190 1324 190 1324 351 1447 c 0,38,39
 460 1530 460 1530 636 1530 c 0,40,41
 877 1530 877 1530 1012 1371 c 0,42,43
 1033 1346 1033 1346 1033 1319 c 0,44,45
 1033 1287 1033 1287 997 1260 c 2,46,-1
 872 1166 l 2,47,48
 845 1146 845 1146 819 1146 c 0,49,50
 783 1146 783 1146 762 1181 c 24,51,52
 719 1252 719 1252 635 1252 c 0,53,54
 569 1252 569 1252 536 1220 c 0,55,56
 509 1194 509 1194 509 1158 c 0,57,58
 509 1074 509 1074 663 1011 c 2,59,-1
 874 924 l 2,60,61
 1171 802 1171 802 1171 498 c 0,62,63
 1171 311 1171 311 1032 158 c 0,64,65
 869 -20 869 -20 570 -20 c 0,14,15
EndSplineSet
Validated: 1
EndChar

StartChar: uni1E61
Encoding: 7777 7777 183
Width: 985
Flags: W
HStem: -20 249<328.541 599.976> 876 244<398.578 603.507> 1180 364<361.131 595.338>
VStem: 119 277<757.245 871.429> 299 360<1244.3 1481.73> 638 287<268.065 413.555>
DStem2: 472 743 418 475 0.948152 -0.317816<-92.1997 273.862>
LayerCount: 2
Fore
SplineSet
479 1544 m 0,0,1
 555 1544 555 1544 607 1491 c 128,-1,2
 659 1438 659 1438 659 1363 c 0,3,4
 659 1289 659 1289 606 1234 c 0,5,6
 554 1180 554 1180 479 1180 c 0,7,8
 402 1180 402 1180 350.5 1234 c 128,-1,9
 299 1288 299 1288 299 1362 c 0,10,11
 299 1438 299 1438 351 1490 c 0,12,13
 404 1544 404 1544 479 1544 c 0,0,1
436 -20 m 0,14,15
 215 -20 215 -20 75 126 c 0,16,17
 50 152 50 152 50 177 c 0,18,19
 50 209 50 209 81 238 c 2,20,-1
 169 319 l 2,21,22
 197 345 197 345 220 345 c 0,23,24
 254 345 254 345 281 314 c 0,25,26
 357 229 357 229 468 229 c 0,27,28
 550 229 550 229 597 267 c 0,29,30
 638 300 638 300 638 339 c 0,31,32
 638 403 638 403 561 428 c 10,33,-1
 418 475 l 2,34,35
 119 573 119 573 119 808 c 0,36,37
 119 947 119 947 238 1042 c 0,38,39
 336 1120 336 1120 492 1120 c 0,40,41
 704 1120 704 1120 818 983 c 0,42,43
 843 953 843 953 843 932 c 0,44,45
 843 899 843 899 812 871 c 2,46,-1
 739 804 l 2,47,48
 711 778 711 778 688 778 c 0,49,50
 654 778 654 778 627 809 c 0,51,52
 567 876 567 876 479 876 c 0,53,54
 396 876 396 876 396 821 c 0,55,56
 396 768 396 768 472 743 c 2,57,-1
 651 683 l 2,58,59
 925 591 925 591 925 358 c 0,60,61
 925 209 925 209 793 93 c 0,62,63
 663 -20 663 -20 436 -20 c 0,14,15
EndSplineSet
Validated: 1
EndChar

StartChar: uni1E6A
Encoding: 7786 7786 184
Width: 1226
Flags: W
HStem: 0 21G<493 733> 1210 300<25 453 773 1201> 1590 364<491.131 725.338>
VStem: 429 360<1654.3 1891.73> 453 320<4.9375 1210>
LayerCount: 2
Fore
SplineSet
609 1954 m 0,0,1
 685 1954 685 1954 737 1901 c 128,-1,2
 789 1848 789 1848 789 1773 c 0,3,4
 789 1699 789 1699 736 1644 c 0,5,6
 684 1590 684 1590 609 1590 c 0,7,8
 532 1590 532 1590 480.5 1644 c 128,-1,9
 429 1698 429 1698 429 1772 c 0,10,11
 429 1848 429 1848 481 1900 c 0,12,13
 534 1954 534 1954 609 1954 c 0,0,1
533 0 m 2,14,15
 453 0 453 0 453 79 c 2,16,-1
 453 1210 l 1,17,-1
 100 1210 l 2,18,19
 20 1210 20 1210 20 1289 c 2,20,-1
 20 1431 l 2,21,22
 20 1510 20 1510 100 1510 c 2,23,-1
 1126 1510 l 2,24,25
 1206 1510 1206 1510 1206 1431 c 2,26,-1
 1206 1289 l 2,27,28
 1206 1210 1206 1210 1126 1210 c 2,29,-1
 773 1210 l 1,30,-1
 773 79 l 2,31,32
 773 0 773 0 693 0 c 2,33,-1
 533 0 l 2,14,15
EndSplineSet
Validated: 1
EndChar

StartChar: uni1E6B
Encoding: 7787 7787 185
Width: 894
Flags: W
HStem: 0 21G<342 552> 820 280<25 302 592 869> 1490 20G<342 552> 1590 364<338.131 572.338>
VStem: 276 360<1654.3 1891.73> 302 290<4.9375 820 1100 1505.06>
LayerCount: 2
Fore
SplineSet
456 1954 m 0,0,1
 532 1954 532 1954 584 1901 c 128,-1,2
 636 1848 636 1848 636 1773 c 0,3,4
 636 1699 636 1699 583 1644 c 0,5,6
 531 1590 531 1590 456 1590 c 0,7,8
 379 1590 379 1590 327.5 1644 c 128,-1,9
 276 1698 276 1698 276 1772 c 0,10,11
 276 1848 276 1848 328 1900 c 0,12,13
 381 1954 381 1954 456 1954 c 0,0,1
382 0 m 2,14,15
 302 0 302 0 302 79 c 2,16,-1
 302 820 l 1,17,-1
 100 820 l 2,18,19
 20 820 20 820 20 899 c 2,20,-1
 20 1021 l 2,21,22
 20 1100 20 1100 100 1100 c 2,23,-1
 302 1100 l 1,24,-1
 302 1431 l 2,25,26
 302 1510 302 1510 382 1510 c 2,27,-1
 512 1510 l 2,28,29
 592 1510 592 1510 592 1431 c 2,30,-1
 592 1100 l 1,31,-1
 794 1100 l 2,32,33
 874 1100 874 1100 874 1021 c 2,34,-1
 874 899 l 2,35,36
 874 820 874 820 794 820 c 2,37,-1
 592 820 l 1,38,-1
 592 79 l 2,39,40
 592 0 592 0 512 0 c 2,41,-1
 382 0 l 2,14,15
EndSplineSet
Validated: 1
EndChar

StartChar: Wgrave
Encoding: 7808 7808 186
Width: 1965
Flags: W
HStem: 0 21G<353 723.5 1240.5 1611> 1146 364<670 1304>
DStem2: 330 1431 21 1431 0.203492 -0.979077<-73.6688 1113.47> 543 338 774 79 0.199907 0.979815<0 879.45> 1208 1431 982 1146 0.200259 -0.979743<233.968 1113.56> 1431 340 1662 79 0.204186 0.978932<0 1183.55>
LayerCount: 2
Fore
SplineSet
688 0 m 2,0,-1
 388 0 l 2,1,2
 318 0 318 0 302 79 c 2,3,-1
 21 1431 l 2,4,5
 20 1436 20 1436 20 1442 c 0,6,7
 20 1510 20 1510 94 1510 c 2,8,-1
 244 1510 l 2,9,10
 315 1510 315 1510 330 1431 c 2,11,-1
 543 338 l 1,12,-1
 766 1431 l 2,13,14
 782 1510 782 1510 852 1510 c 2,15,-1
 1122 1510 l 2,16,17
 1192 1510 1192 1510 1208 1431 c 2,18,-1
 1431 340 l 1,19,-1
 1650 1461 l 2,20,21
 1660 1510 1660 1510 1730 1510 c 2,22,-1
 1870 1510 l 2,23,24
 1945 1510 1945 1510 1945 1442 c 0,25,26
 1945 1436 1945 1436 1944 1431 c 2,27,-1
 1662 79 l 2,28,29
 1646 0 1646 0 1576 0 c 2,30,-1
 1276 0 l 2,31,32
 1205 0 1205 0 1190 79 c 2,33,-1
 982 1146 l 1,34,-1
 774 79 l 2,35,36
 759 0 759 0 688 0 c 2,0,-1
896 1980 m 0,37,38
 918 1980 918 1980 935 1954 c 2,39,-1
 1097 1699 l 2,40,41
 1107 1683 1107 1683 1107 1666 c 0,42,43
 1107 1644 1107 1644 1079 1623 c 2,44,-1
 1027 1584 l 2,45,46
 1008 1570 1008 1570 988 1570 c 0,47,48
 964 1570 964 1570 947 1591 c 2,49,-1
 756 1821 l 2,50,51
 742 1838 742 1838 742 1858 c 0,52,53
 742 1882 742 1882 771 1903 c 2,54,-1
 859 1967 l 2,55,56
 877 1980 877 1980 896 1980 c 0,37,38
EndSplineSet
Validated: 1
EndChar

StartChar: wgrave
Encoding: 7809 7809 187
Width: 1508
Flags: W
HStem: 0 21G<270 590.5 917.5 1238> 692 408<469 1049>
DStem2: 313 1021 23 1021 0.203705 -0.979032<-81.9267 717.107> 445 316 641 79 0.197453 0.980312<0 429.61> 931 1021 754 692 0.197453 -0.980312<287.574 719.159> 1073 316 1289 79 0.203705 0.979032<0 796.996>
LayerCount: 2
Fore
SplineSet
555 0 m 2,0,1
 305 0 l 2,2,3
 235 0 235 0 219 79 c 2,4,-1
 23 1021 l 2,5,6
 20 1035 20 1035 20 1044 c 0,7,8
 20 1100 20 1100 97 1100 c 2,9,-1
 227 1100 l 2,10,11
 298 1100 298 1100 313 1021 c 2,12,-1
 445 316 l 1,13,-1
 587 1021 l 2,14,15
 603 1100 603 1100 673 1100 c 2,16,-1
 845 1100 l 2,17,18
 915 1100 915 1100 931 1021 c 2,19,20
 1073 316 l 1,21,-1
 1205 1021 l 2,22,23
 1220 1100 1220 1100 1291 1100 c 2,24,-1
 1411 1100 l 2,25,26
 1488 1100 1488 1100 1488 1044 c 0,27,28
 1488 1035 1488 1035 1485 1021 c 2,29,-1
 1289 79 l 2,30,31
 1273 0 1273 0 1203 0 c 2,32,-1
 953 0 l 2,33,34
 882 0 882 0 867 79 c 2,35,-1
 754 692 l 1,36,-1
 641 79 l 2,37,38
 626 0 626 0 555 0 c 2,0,1
666 1570 m 0,39,40
 688 1570 688 1570 705 1544 c 2,41,-1
 867 1289 l 2,42,43
 877 1273 877 1273 877 1256 c 0,44,45
 877 1234 877 1234 849 1213 c 2,46,-1
 797 1174 l 2,47,48
 778 1160 778 1160 758 1160 c 0,49,50
 734 1160 734 1160 717 1181 c 2,51,-1
 526 1411 l 2,52,53
 512 1428 512 1428 512 1448 c 0,54,55
 512 1472 512 1472 541 1493 c 2,56,-1
 629 1557 l 2,57,58
 647 1570 647 1570 666 1570 c 0,39,40
EndSplineSet
Validated: 1
EndChar

StartChar: Wacute
Encoding: 7810 7810 188
Width: 1965
Flags: W
HStem: 0 21G<353 723.5 1240.5 1611> 1146 364<670 1304>
DStem2: 330 1431 21 1431 0.203492 -0.979077<-73.6688 1113.47> 543 338 774 79 0.199907 0.979815<0 879.45> 1208 1431 982 1146 0.200259 -0.979743<233.968 1113.56> 1431 340 1662 79 0.204186 0.978932<0 1183.55>
LayerCount: 2
Fore
SplineSet
688 0 m 2,0,-1
 388 0 l 2,1,2
 318 0 318 0 302 79 c 2,3,-1
 21 1431 l 2,4,5
 20 1436 20 1436 20 1442 c 0,6,7
 20 1510 20 1510 94 1510 c 2,8,-1
 244 1510 l 2,9,10
 315 1510 315 1510 330 1431 c 2,11,-1
 543 338 l 1,12,-1
 766 1431 l 2,13,14
 782 1510 782 1510 852 1510 c 2,15,-1
 1122 1510 l 2,16,17
 1192 1510 1192 1510 1208 1431 c 2,18,-1
 1431 340 l 1,19,-1
 1650 1461 l 2,20,21
 1660 1510 1660 1510 1730 1510 c 2,22,-1
 1870 1510 l 2,23,24
 1945 1510 1945 1510 1945 1442 c 0,25,26
 1945 1436 1945 1436 1944 1431 c 2,27,-1
 1662 79 l 2,28,29
 1646 0 1646 0 1576 0 c 2,30,-1
 1276 0 l 2,31,32
 1205 0 1205 0 1190 79 c 2,33,-1
 982 1146 l 1,34,-1
 774 79 l 2,35,36
 759 0 759 0 688 0 c 2,0,-1
1079 1980 m 0,37,38
 1098 1980 1098 1980 1116 1967 c 2,39,-1
 1204 1903 l 2,40,41
 1233 1882 1233 1882 1233 1858 c 0,42,43
 1233 1838 1233 1838 1219 1821 c 2,44,-1
 1028 1591 l 2,45,46
 1011 1570 1011 1570 987 1570 c 0,47,48
 967 1570 967 1570 948 1584 c 2,49,-1
 896 1623 l 2,50,51
 868 1644 868 1644 868 1666 c 0,52,53
 868 1683 868 1683 878 1699 c 2,54,-1
 1040 1954 l 2,55,56
 1057 1980 1057 1980 1079 1980 c 0,37,38
EndSplineSet
Validated: 1
EndChar

StartChar: wacute
Encoding: 7811 7811 189
Width: 1508
Flags: W
HStem: 0 21G<270 590.5 917.5 1238> 692 408<469 1049>
DStem2: 313 1021 23 1021 0.203705 -0.979032<-81.9267 717.107> 445 316 641 79 0.197453 0.980312<0 429.61> 931 1021 754 692 0.197453 -0.980312<287.574 719.159> 1073 316 1289 79 0.203705 0.979032<0 796.996>
LayerCount: 2
Fore
SplineSet
555 0 m 2,0,1
 305 0 l 2,2,3
 235 0 235 0 219 79 c 2,4,-1
 23 1021 l 2,5,6
 20 1035 20 1035 20 1044 c 0,7,8
 20 1100 20 1100 97 1100 c 2,9,-1
 227 1100 l 2,10,11
 298 1100 298 1100 313 1021 c 2,12,-1
 445 316 l 1,13,-1
 587 1021 l 2,14,15
 603 1100 603 1100 673 1100 c 2,16,-1
 845 1100 l 2,17,18
 915 1100 915 1100 931 1021 c 2,19,20
 1073 316 l 1,21,-1
 1205 1021 l 2,22,23
 1220 1100 1220 1100 1291 1100 c 2,24,-1
 1411 1100 l 2,25,26
 1488 1100 1488 1100 1488 1044 c 0,27,28
 1488 1035 1488 1035 1485 1021 c 2,29,-1
 1289 79 l 2,30,31
 1273 0 1273 0 1203 0 c 2,32,-1
 953 0 l 2,33,34
 882 0 882 0 867 79 c 2,35,-1
 754 692 l 1,36,-1
 641 79 l 2,37,38
 626 0 626 0 555 0 c 2,0,1
847 1570 m 0,39,40
 866 1570 866 1570 884 1557 c 2,41,-1
 972 1493 l 2,42,43
 1001 1472 1001 1472 1001 1448 c 0,44,45
 1001 1428 1001 1428 987 1411 c 2,46,-1
 796 1181 l 2,47,48
 779 1160 779 1160 755 1160 c 0,49,50
 735 1160 735 1160 716 1174 c 2,51,-1
 664 1213 l 2,52,53
 636 1234 636 1234 636 1256 c 0,54,55
 636 1273 636 1273 646 1289 c 2,56,-1
 808 1544 l 2,57,58
 825 1570 825 1570 847 1570 c 0,39,40
EndSplineSet
Validated: 1
EndChar

StartChar: Wdieresis
Encoding: 7812 7812 190
Width: 1965
Flags: W
HStem: 0 21G<353 723.5 1240.5 1611> 1146 364<670 1304> 1620 297<712.833 916.652 1050.83 1255.17>
VStem: 669 292<1665.38 1871.62> 1007 292<1665.38 1871.62>
DStem2: 330 1431 21 1431 0.203492 -0.979077<-73.6688 1113.47> 543 338 774 79 0.199907 0.979815<0 879.45> 1208 1431 982 1146 0.200259 -0.979743<233.968 1113.56> 1431 340 1662 79 0.204186 0.978932<0 1183.55>
LayerCount: 2
Fore
SplineSet
688 0 m 2,0,-1
 388 0 l 2,1,2
 318 0 318 0 302 79 c 2,3,-1
 21 1431 l 2,4,5
 20 1436 20 1436 20 1442 c 0,6,7
 20 1510 20 1510 94 1510 c 2,8,-1
 244 1510 l 2,9,10
 315 1510 315 1510 330 1431 c 2,11,-1
 543 338 l 1,12,-1
 766 1431 l 2,13,14
 782 1510 782 1510 852 1510 c 2,15,-1
 1122 1510 l 2,16,17
 1192 1510 1192 1510 1208 1431 c 2,18,-1
 1431 340 l 1,19,-1
 1650 1461 l 2,20,21
 1660 1510 1660 1510 1730 1510 c 2,22,-1
 1870 1510 l 2,23,24
 1945 1510 1945 1510 1945 1442 c 0,25,26
 1945 1436 1945 1436 1944 1431 c 2,27,-1
 1662 79 l 2,28,29
 1646 0 1646 0 1576 0 c 2,30,-1
 1276 0 l 2,31,32
 1205 0 1205 0 1190 79 c 2,33,-1
 982 1146 l 1,34,-1
 774 79 l 2,35,36
 759 0 759 0 688 0 c 2,0,-1
1153.5 1917 m 128,-1,38
 1214 1917 1214 1917 1256.5 1873 c 128,-1,39
 1299 1829 1299 1829 1299 1768.5 c 128,-1,40
 1299 1708 1299 1708 1256.5 1664 c 128,-1,41
 1214 1620 1214 1620 1153 1620 c 128,-1,42
 1092 1620 1092 1620 1049.5 1664 c 128,-1,43
 1007 1708 1007 1708 1007 1768 c 0,44,45
 1007 1829 1007 1829 1050 1872 c 0,46,37
 1093 1917 1093 1917 1153.5 1917 c 128,-1,38
814.5 1917 m 128,-1,48
 875 1917 875 1917 918 1873 c 128,-1,49
 961 1829 961 1829 961 1768.5 c 128,-1,50
 961 1708 961 1708 918 1664 c 128,-1,51
 875 1620 875 1620 815 1620 c 0,52,53
 754 1620 754 1620 711.5 1664 c 128,-1,54
 669 1708 669 1708 669 1768 c 0,55,56
 669 1829 669 1829 711 1872 c 0,57,47
 754 1917 754 1917 814.5 1917 c 128,-1,48
EndSplineSet
Validated: 1
EndChar

StartChar: wdieresis
Encoding: 7813 7813 191
Width: 1508
Flags: W
HStem: 0 21G<270 590.5 917.5 1238> 692 408<469 1049> 1210 297<487.833 691.652 825.833 1030.17>
VStem: 444 292<1255.38 1461.62> 782 292<1255.38 1461.62>
DStem2: 313 1021 23 1021 0.203705 -0.979032<-81.9267 717.107> 445 316 641 79 0.197453 0.980312<0 429.61> 931 1021 754 692 0.197453 -0.980312<287.574 719.159> 1073 316 1289 79 0.203705 0.979032<0 796.996>
LayerCount: 2
Fore
SplineSet
555 0 m 2,0,1
 305 0 l 2,2,3
 235 0 235 0 219 79 c 2,4,-1
 23 1021 l 2,5,6
 20 1035 20 1035 20 1044 c 0,7,8
 20 1100 20 1100 97 1100 c 2,9,-1
 227 1100 l 2,10,11
 298 1100 298 1100 313 1021 c 2,12,-1
 445 316 l 1,13,-1
 587 1021 l 2,14,15
 603 1100 603 1100 673 1100 c 2,16,-1
 845 1100 l 2,17,18
 915 1100 915 1100 931 1021 c 2,19,20
 1073 316 l 1,21,-1
 1205 1021 l 2,22,23
 1220 1100 1220 1100 1291 1100 c 2,24,-1
 1411 1100 l 2,25,26
 1488 1100 1488 1100 1488 1044 c 0,27,28
 1488 1035 1488 1035 1485 1021 c 2,29,-1
 1289 79 l 2,30,31
 1273 0 1273 0 1203 0 c 2,32,-1
 953 0 l 2,33,34
 882 0 882 0 867 79 c 2,35,-1
 754 692 l 1,36,-1
 641 79 l 2,37,38
 626 0 626 0 555 0 c 2,0,1
928.5 1507 m 128,-1,40
 989 1507 989 1507 1031.5 1463 c 128,-1,41
 1074 1419 1074 1419 1074 1358.5 c 128,-1,42
 1074 1298 1074 1298 1031.5 1254 c 128,-1,43
 989 1210 989 1210 928 1210 c 128,-1,44
 867 1210 867 1210 824.5 1254 c 128,-1,45
 782 1298 782 1298 782 1358 c 0,46,47
 782 1419 782 1419 825 1462 c 0,48,39
 868 1507 868 1507 928.5 1507 c 128,-1,40
589.5 1507 m 128,-1,50
 650 1507 650 1507 693 1463 c 128,-1,51
 736 1419 736 1419 736 1358.5 c 128,-1,52
 736 1298 736 1298 693 1254 c 128,-1,53
 650 1210 650 1210 590 1210 c 0,54,55
 529 1210 529 1210 486.5 1254 c 128,-1,56
 444 1298 444 1298 444 1358 c 0,57,58
 444 1419 444 1419 486 1462 c 0,59,49
 529 1507 529 1507 589.5 1507 c 128,-1,50
EndSplineSet
Validated: 1
EndChar

StartChar: uni1E9E
Encoding: 7838 7838 192
Width: 1300
Flags: W
HStem: -20 300<590 833.169> 0 21G<180 420> 1210 300<460 747.209>
VStem: 140 320<4.9375 1210> 910 320<353.484 619.162>
LayerCount: 2
Fore
SplineSet
380 0 m 2,0,-1
 220 0 l 2,1,2
 140 0 140 0 140 79 c 2,3,-1
 140 1431 l 2,4,5
 140 1510 140 1510 220 1510 c 2,6,-1
 665 1510 l 2,7,8
 861 1510 861 1510 983 1411 c 0,9,10
 1090 1326 1090 1326 1090 1262 c 24,11,12
 1090 1230 1090 1230 1072 1198 c 2,13,-1
 912 910 l 1,14,15
 1008 875 1008 875 1066 825 c 0,16,17
 1230 684 1230 684 1230 479 c 0,18,19
 1230 256 1230 256 1084 122 c 0,20,21
 928 -20 928 -20 665 -20 c 8,22,23
 585 -20 585 -20 585 59 c 2,24,-1
 585 201 l 2,25,26
 585 280 585 280 665 280 c 16,27,28
 795 280 795 280 860 346 c 0,29,30
 910 397 910 397 910 488 c 0,31,32
 910 574 910 574 859 627 c 0,33,34
 794 693 794 693 665 693 c 2,35,-1
 617 693 l 2,36,37
 534 693 534 693 534 755 c 0,38,39
 534 775 534 775 547 800 c 2,40,-1
 750 1192 l 1,41,42
 710 1210 710 1210 665 1210 c 2,43,-1
 460 1210 l 1,44,-1
 460 79 l 2,45,46
 460 0 460 0 380 0 c 2,0,-1
EndSplineSet
Validated: 1
EndChar

StartChar: Ygrave
Encoding: 7922 7922 193
Width: 1260
Flags: W
HStem: 0 21G<510 750> 1490 20G<37.5 276.5 992.5 1222.5>
VStem: 470 320<4.9375 656>
DStem2: 635 953 20 1431 0.502136 -0.864789<-668.745 0> 635 953 790 656 0.502136 0.864789<0 668.243>
LayerCount: 2
Fore
SplineSet
540 1980 m 0,0,1
 562 1980 562 1980 579 1954 c 2,2,-1
 741 1699 l 2,3,4
 751 1683 751 1683 751 1666 c 0,5,6
 751 1644 751 1644 723 1623 c 2,7,-1
 671 1584 l 2,8,9
 652 1570 652 1570 632 1570 c 0,10,11
 608 1570 608 1570 591 1591 c 2,12,-1
 400 1821 l 2,13,14
 386 1838 386 1838 386 1858 c 0,15,16
 386 1882 386 1882 415 1903 c 2,17,-1
 503 1967 l 2,18,19
 521 1980 521 1980 540 1980 c 0,0,1
550 0 m 2,20,21
 470 0 470 0 470 79 c 2,22,-1
 470 656 l 1,23,-1
 20 1431 l 2,24,25
 10 1448 10 1448 10 1466 c 0,26,27
 10 1510 10 1510 65 1510 c 2,28,-1
 241 1510 l 2,29,30
 312 1510 312 1510 349 1446 c 2,31,-1
 635 953 l 1,32,-1
 920 1446 l 2,33,34
 957 1510 957 1510 1028 1510 c 2,35,-1
 1195 1510 l 2,36,37
 1250 1510 1250 1510 1250 1466 c 0,38,39
 1250 1448 1250 1448 1240 1431 c 2,40,-1
 790 656 l 1,41,-1
 790 79 l 2,42,43
 790 0 790 0 710 0 c 2,44,-1
 550 0 l 2,20,21
EndSplineSet
Validated: 1
EndChar

StartChar: ygrave
Encoding: 7923 7923 194
Width: 1146
Flags: W
HStem: -410 280<199 407.598> 1080 20G<39.5 277 879 1106.5>
DStem2: 333 1036 16 1023 0.324545 -0.94587<-80.8112 753.919> 578 323 746 -95 0.324843 0.945768<0 834.744>
LayerCount: 2
Fore
SplineSet
484 1570 m 0,0,1
 506 1570 506 1570 523 1544 c 2,2,-1
 685 1289 l 2,3,4
 695 1273 695 1273 695 1256 c 0,5,6
 695 1234 695 1234 667 1213 c 2,7,-1
 615 1174 l 2,8,9
 596 1160 596 1160 576 1160 c 0,10,11
 552 1160 552 1160 535 1181 c 2,12,-1
 344 1411 l 2,13,14
 330 1428 330 1428 330 1448 c 0,15,16
 330 1472 330 1472 359 1493 c 2,17,-1
 447 1557 l 2,18,19
 465 1570 465 1570 484 1570 c 0,0,1
274 -410 m 0,20,21
 194 -410 194 -410 194 -331 c 2,22,-1
 194 -209 l 2,23,24
 194 -130 194 -130 272 -130 c 0,25,26
 354 -130 354 -130 403 -92 c 0,27,28
 444 -61 444 -61 467 0 c 1,29,-1
 405 0 l 2,30,31
 367 0 367 0 355 35 c 2,32,-1
 16 1023 l 2,33,34
 10 1040 10 1040 10 1055 c 0,35,36
 10 1100 10 1100 69 1100 c 2,37,-1
 243 1100 l 2,38,39
 311 1100 311 1100 333 1036 c 2,40,-1
 578 323 l 1,41,-1
 823 1036 l 2,42,43
 845 1100 845 1100 913 1100 c 2,44,-1
 1077 1100 l 2,45,46
 1136 1100 1136 1100 1136 1055 c 0,47,48
 1136 1040 1136 1040 1130 1023 c 2,49,-1
 746 -95 l 2,50,51
 703 -220 703 -220 618 -296 c 0,52,53
 493 -410 493 -410 274 -410 c 0,20,21
EndSplineSet
Validated: 1
EndChar

StartChar: afii61352
Encoding: 8470 8470 195
Width: 2163
Flags: W
HStem: 0 180<1490 2083> 237 181<1714.57 1859.39> 665 182<1713.35 1860.88> 1490 20G<180 585.5 1120 1350>
VStem: 140 310<4.9375 1168> 1080 310<318 1505.06> 1490 198<442.546 641.787> 1888 195<442.08 640.729>
DStem2: 644 1445 450 1168 0.360808 -0.93264<188.344 1208.4>
LayerCount: 2
Fore
SplineSet
370 0 m 2,0,1
 220 0 l 2,2,3
 140 0 140 0 140 79 c 2,4,-1
 140 1431 l 2,5,6
 140 1510 140 1510 220 1510 c 2,7,-1
 552 1510 l 2,8,9
 619 1510 619 1510 644 1445 c 2,10,-1
 1080 318 l 1,11,-1
 1080 1431 l 2,12,13
 1080 1510 1080 1510 1160 1510 c 2,14,-1
 1310 1510 l 2,15,16
 1390 1510 1390 1510 1390 1431 c 2,17,-1
 1390 79 l 2,18,19
 1390 0 1390 0 1310 0 c 2,20,-1
 969 0 l 2,21,22
 902 0 902 0 877 65 c 2,23,-1
 450 1168 l 1,24,-1
 450 79 l 2,25,26
 450 0 450 0 370 0 c 2,0,1
1535 180 m 2,27,-1
 2038 180 l 2,28,29
 2083 180 2083 180 2083 135 c 2,30,-1
 2083 45 l 2,31,32
 2083 0 2083 0 2038 0 c 2,33,-1
 1535 0 l 2,34,35
 1490 0 1490 0 1490 45 c 2,36,-1
 1490 135 l 2,37,38
 1490 180 1490 180 1535 180 c 2,27,-1
1786 665 m 128,-1,40
 1748 665 1748 665 1718 637 c 128,-1,41
 1688 609 1688 609 1688 542.5 c 128,-1,42
 1688 476 1688 476 1719 447 c 128,-1,43
 1750 418 1750 418 1787 418 c 128,-1,44
 1824 418 1824 418 1854 445 c 0,45,46
 1888 477 1888 477 1888 542 c 128,-1,47
 1888 607 1888 607 1856 636 c 128,-1,39
 1824 665 1824 665 1786 665 c 128,-1,40
1786 847 m 0,48,49
 1910 847 1910 847 1996 767 c 0,50,51
 2083 686 2083 686 2083 546 c 0,52,53
 2083 407 2083 407 1998 321 c 0,54,55
 1914 237 1914 237 1787 237 c 0,56,57
 1662 237 1662 237 1576 321 c 128,-1,58
 1490 405 1490 405 1490 546 c 128,-1,59
 1490 687 1490 687 1582 771 c 0,60,61
 1666 847 1666 847 1786 847 c 0,48,49
EndSplineSet
Validated: 1
EndChar

StartChar: uni2117
Encoding: 8471 8471 196
Width: 1401
Flags: W
HStem: 386 48<545.181 850.676> 775 191<667 792.277> 1137 191<667 806.34> 1478 52<544.168 856.773>
VStem: 150 50<794.694 1125.05> 467 200<534.167 775 966 1137> 816 204<983.623 1129.4> 1200 51<785.868 1126.58>
LayerCount: 2
Fore
SplineSet
728 1328 m 2,0,1
 861 1328 861 1328 945 1243 c 0,2,3
 1020 1167 1020 1167 1020 1051 c 128,-1,4
 1020 935 1020 935 945 859 c 0,5,6
 861 775 861 775 728 775 c 2,7,-1
 667 775 l 1,8,-1
 667 592 l 2,9,10
 667 533 667 533 607 533 c 2,11,-1
 527 533 l 2,12,13
 467 533 467 533 467 592 c 2,14,-1
 467 1269 l 2,15,16
 467 1328 467 1328 527 1328 c 2,17,-1
 728 1328 l 2,0,1
816 1053 m 0,18,19
 816 1137 816 1137 728 1137 c 2,20,-1
 667 1137 l 1,21,-1
 667 966 l 1,22,-1
 728 966 l 2,23,24
 770 966 770 966 793 990.5 c 128,-1,25
 816 1015 816 1015 816 1053 c 0,18,19
701 1530 m 0,26,27
 943 1530 943 1530 1099 1357 c 0,28,29
 1251 1188 1251 1188 1251 953 c 0,30,31
 1251 701 1251 701 1090 549 c 0,32,33
 919 386 919 386 699 386 c 0,34,35
 476 386 476 386 311 549 c 0,36,37
 150 708 150 708 150 953 c 0,38,39
 150 1197 150 1197 308 1362 c 0,40,41
 469 1530 469 1530 701 1530 c 0,26,27
699 1478 m 0,42,43
 499 1478 499 1478 350 1330 c 0,44,45
 200 1181 200 1181 200 953 c 0,46,47
 200 750 200 750 347 587 c 0,48,49
 485 434 485 434 701 434 c 0,50,51
 902 434 902 434 1054 587 c 0,52,53
 1200 734 1200 734 1200 953 c 0,54,55
 1200 1185 1200 1185 1056 1327 c 0,56,57
 903 1478 903 1478 699 1478 c 0,42,43
EndSplineSet
Validated: 1
EndChar

StartChar: integral
Encoding: 8747 8747 197
Width: 1120
Flags: W
HStem: -410 280<25 362.584> 1230 280<757.416 1095>
VStem: 410 300<-88.5342 1188.53>
LayerCount: 2
Fore
SplineSet
235 -410 m 2,0,1
 100 -410 l 2,2,3
 20 -410 20 -410 20 -331 c 2,4,-1
 20 -209 l 2,5,6
 20 -130 20 -130 100 -130 c 2,7,-1
 235 -130 l 2,8,9
 319 -130 319 -130 364 -92 c 0,10,11
 410 -53 410 -53 410 15 c 2,12,-1
 410 1076 l 2,13,14
 410 1278 410 1278 541 1396 c 0,15,16
 667 1510 667 1510 885 1510 c 2,17,-1
 1020 1510 l 2,18,19
 1100 1510 1100 1510 1100 1431 c 2,20,-1
 1100 1309 l 2,21,22
 1100 1230 1100 1230 1020 1230 c 2,23,-1
 885 1230 l 2,24,25
 801 1230 801 1230 756 1192 c 0,26,27
 710 1153 710 1153 710 1085 c 2,28,-1
 710 24 l 2,29,30
 710 -178 710 -178 579 -296 c 0,31,32
 453 -410 453 -410 235 -410 c 2,0,1
EndSplineSet
Validated: 1
EndChar

StartChar: copyright
Encoding: 169 169 198
Width: 1401
Flags: W
HStem: 386 48<545.181 850.676> 548 191<604.223 831.064> 1171 190<605.233 830.625> 1478 52<544.168 856.773>
VStem: 150 50<794.694 1125.05> 338 205<802.636 1107.33> 1200 51<785.868 1126.58>
LayerCount: 2
Fore
SplineSet
716 1361 m 0,0,1
 897 1361 897 1361 994 1240 c 0,2,3
 1010 1220 1010 1220 1010 1198 c 128,-1,4
 1010 1176 1010 1176 985 1155 c 2,5,-1
 926 1106 l 2,6,7
 907 1090 907 1090 884 1090 c 128,-1,8
 861 1090 861 1090 841 1115 c 0,9,10
 796 1171 796 1171 716 1171 c 0,11,12
 639 1171 639 1171 591 1112 c 128,-1,13
 543 1053 543 1053 543 952.5 c 128,-1,14
 543 852 543 852 592 795.5 c 128,-1,15
 641 739 641 739 718 739 c 128,-1,16
 795 739 795 739 841 794 c 0,17,18
 862 819 862 819 884 819 c 0,19,20
 907 819 907 819 926 803 c 2,21,-1
 985 754 l 2,22,23
 1010 733 1010 733 1010 711 c 0,24,25
 1010 688 1010 688 994 669 c 0,26,27
 889 548 889 548 716 548 c 128,-1,28
 543 548 543 548 440.5 668 c 128,-1,29
 338 788 338 788 338 955.5 c 128,-1,30
 338 1123 338 1123 440.5 1242 c 128,-1,31
 543 1361 543 1361 716 1361 c 0,0,1
701 1530 m 0,32,33
 943 1530 943 1530 1099 1357 c 0,34,35
 1251 1188 1251 1188 1251 953 c 0,36,37
 1251 701 1251 701 1090 549 c 0,38,39
 919 386 919 386 699 386 c 0,40,41
 476 386 476 386 311 549 c 0,42,43
 150 708 150 708 150 953 c 0,44,45
 150 1197 150 1197 308 1362 c 0,46,47
 469 1530 469 1530 701 1530 c 0,32,33
699 1478 m 0,48,49
 499 1478 499 1478 350 1330 c 0,50,51
 200 1181 200 1181 200 953 c 0,52,53
 200 750 200 750 347 587 c 0,54,55
 485 434 485 434 701 434 c 0,56,57
 902 434 902 434 1054 587 c 0,58,59
 1200 734 1200 734 1200 953 c 0,60,61
 1200 1185 1200 1185 1056 1327 c 0,62,63
 903 1478 903 1478 699 1478 c 0,48,49
EndSplineSet
Validated: 1
EndChar

StartChar: registered
Encoding: 174 174 199
Width: 1401
Flags: W
HStem: 386 48<545.181 849.699> 794 191<638 719.626> 1156 191<638 777.34> 1478 52<544.168 856.773>
VStem: 150 50<794.694 1125.05> 438 200<553.167 794 985 1156> 787 204<1003.45 1148.81> 1200 51<786.191 1126.58>
DStem2: 903 868 720 795 0.503654 -0.863906<-12.0645 277.826>
LayerCount: 2
Fore
SplineSet
699 1347 m 2,0,1
 832 1347 832 1347 916 1262 c 0,2,3
 991 1186 991 1186 991 1064 c 0,4,5
 991 944 991 944 903 868 c 1,6,-1
 1047 621 l 2,7,8
 1055 607 1055 607 1055 588 c 1,9,10
 1200 735 1200 735 1200 953 c 0,11,12
 1200 1185 1200 1185 1056 1327 c 0,13,14
 903 1478 903 1478 699 1478 c 0,15,16
 499 1478 499 1478 350 1330 c 0,17,18
 200 1181 200 1181 200 953 c 0,19,20
 200 750 200 750 347 587 c 0,21,22
 485 434 485 434 701 434 c 0,23,24
 878 434 878 434 1017 553 c 1,25,26
 1012 552 1012 552 1006 552 c 2,27,-1
 908 552 l 2,28,29
 860 552 860 552 836 594 c 2,30,-1
 720 795 l 1,31,32
 708 794 708 794 699 794 c 2,33,-1
 638 794 l 1,34,-1
 638 611 l 2,35,36
 638 552 638 552 578 552 c 2,37,-1
 498 552 l 2,38,39
 438 552 438 552 438 611 c 2,40,-1
 438 1288 l 2,41,42
 438 1347 438 1347 498 1347 c 2,43,-1
 699 1347 l 2,0,1
701 1530 m 0,44,45
 943 1530 943 1530 1099 1357 c 0,46,47
 1251 1188 1251 1188 1251 953 c 0,48,49
 1251 701 1251 701 1090 549 c 0,50,51
 919 386 919 386 699 386 c 0,52,53
 476 386 476 386 311 549 c 0,54,55
 150 708 150 708 150 953 c 0,56,57
 150 1197 150 1197 308 1362 c 0,58,59
 469 1530 469 1530 701 1530 c 0,44,45
787 1072 m 0,60,61
 787 1156 787 1156 699 1156 c 2,62,-1
 638 1156 l 1,63,-1
 638 985 l 1,64,-1
 699 985 l 2,65,66
 741 985 741 985 764 1009.5 c 128,-1,67
 787 1034 787 1034 787 1072 c 0,60,61
EndSplineSet
Validated: 1
EndChar

StartChar: at
Encoding: 64 64 200
Width: 1539
Flags: W
HStem: -410 280<562.294 800> 0 237<868.456 1094.14> 820 280<625.98 1052.8>
VStem: 90 302<72.4287 540.819> 549 293<270.295 425.451> 1099 300<4.98047 51 245.461 487>
LayerCount: 2
Fore
SplineSet
1319 0 m 2,0,-1
 1179 0 l 2,1,2
 1102 0 1102 0 1102 51 c 1,3,4
 1042 -0 1042 -0 921 0 c 0,5,6
 745 0 745 0 643 99 c 0,7,8
 549 192 549 192 549 323 c 0,9,10
 549 463 549 463 666 560 c 0,11,12
 782 655 782 655 1001 693 c 2,13,-1
 1094 709 l 1,14,15
 1083 752 1083 752 1051 780 c 0,16,17
 1004 820 1004 820 932 820 c 2,18,-1
 807 820 l 2,19,20
 625 820 625 820 518 682 c 24,21,22
 392 520 392 520 392 315 c 0,23,24
 392 77 392 77 518 -52 c 0,25,26
 594 -130 594 -130 725 -130 c 0,27,28
 805 -130 805 -130 805 -209 c 2,29,-1
 805 -331 l 2,30,31
 805 -410 805 -410 725 -410 c 0,32,33
 429 -410 429 -410 281 -230 c 0,34,35
 90 2 90 2 90 315 c 128,-1,36
 90 628 90 628 281 860 c 0,37,38
 480 1100 480 1100 807 1100 c 2,39,-1
 932 1100 l 2,40,41
 1137 1100 1137 1100 1267 990 c 0,42,43
 1399 878 1399 878 1399 696 c 2,44,-1
 1399 79 l 2,45,46
 1399 0 1399 0 1319 0 c 2,0,-1
1099 487 m 1,47,-1
 1025 475 l 2,48,49
 933 460 933 460 884 426 c 0,50,51
 842 397 842 397 842 346 c 0,52,53
 842 305 842 305 868 276 c 0,54,55
 903 237 903 237 987 237 c 0,56,57
 1046 237 1046 237 1099 261 c 1,58,-1
 1099 487 l 1,47,-1
EndSplineSet
Validated: 1
EndChar

StartChar: ampersand
Encoding: 38 38 201
Width: 1652
Flags: W
HStem: -20 293<502.689 870.865> 0 21G<1293 1580> 1105 21G<851.5 882.5> 1251 279<536.583 773.681>
VStem: 90 322<359.856 614.393> 181 306<1003.38 1202.88> 1200 318<630.668 912.062>
DStem2: 1139 600 936 355 0.667354 -0.744741<-443.291 0 339.76 562.271>
LayerCount: 2
Fore
SplineSet
1551 0 m 2,0,-1
 1332 0 l 2,1,2
 1254 0 1254 0 1204 56 c 2,3,-1
 1134 134 l 1,4,5
 934 -20 934 -20 656 -20 c 0,6,7
 424 -20 424 -20 258 119 c 0,8,9
 90 261 90 261 90 473 c 0,10,11
 90 706 90 706 259 830 c 0,12,13
 274 841 274 841 289 851 c 1,14,15
 181 955 181 955 181 1109 c 0,16,17
 181 1289 181 1289 320 1410 c 0,18,19
 458 1530 458 1530 653 1530 c 0,20,21
 853 1530 853 1530 989 1407 c 0,22,23
 1053 1349 1053 1349 1088 1281 c 0,24,25
 1099 1260 1099 1260 1099 1242 c 0,26,27
 1099 1200 1099 1200 1048 1176 c 2,28,-1
 917 1116 l 2,29,30
 894 1105 894 1105 871 1105 c 0,31,32
 832 1105 832 1105 812 1155 c 0,33,34
 800 1185 800 1185 774 1208 c 0,35,36
 724 1251 724 1251 654 1251 c 0,37,38
 582 1251 582 1251 535 1208 c 0,39,40
 487 1165 487 1165 487 1102 c 0,41,42
 487 1036 487 1036 537 997 c 0,43,44
 591 955 591 955 662 955 c 2,45,-1
 754 955 l 2,46,47
 820 955 820 955 856 915 c 2,48,-1
 1139 600 l 1,49,50
 1200 703 1200 703 1200 838 c 24,51,52
 1200 917 1200 917 1280 917 c 2,53,-1
 1438 917 l 2,54,55
 1518 917 1518 917 1518 838 c 0,56,57
 1518 587 1518 587 1353 361 c 1,58,-1
 1589 97 l 2,59,60
 1609 75 1609 75 1609 46 c 0,61,62
 1609 0 1609 0 1551 0 c 2,0,-1
936 355 m 1,63,-1
 626 701 l 1,64,65
 542 693 542 693 482 641 c 0,66,67
 412 579 412 579 412 488 c 0,68,69
 412 396 412 396 481 334 c 0,70,71
 550 273 550 273 653 273 c 0,72,73
 825 273 825 273 936 355 c 1,63,-1
EndSplineSet
Validated: 1
EndChar

StartChar: ordfeminine
Encoding: 170 170 202
Width: 593
Flags: W
HStem: 703 180<50 543> 949 140<210.967 351.799> 1384 166<154.187 347.498>
VStem: 50 160<1091.08 1195.15> 353 190<1094.16 1218>
LayerCount: 2
Fore
SplineSet
95 883 m 2,0,-1
 498 883 l 2,1,2
 543 883 543 883 543 838 c 2,3,-1
 543 748 l 2,4,5
 543 703 543 703 498 703 c 2,6,-1
 95 703 l 2,7,8
 50 703 50 703 50 748 c 2,9,-1
 50 838 l 2,10,11
 50 883 50 883 95 883 c 2,0,-1
290 1550 m 2,12,13
 397 1550 397 1550 470 1488.5 c 128,-1,14
 543 1427 543 1427 543 1328 c 2,15,-1
 543 1019 l 2,16,17
 543 959 543 959 483 959 c 2,18,-1
 413 959 l 2,19,20
 383 959 383 959 366 976 c 1,21,22
 317 949 317 949 241.5 949 c 128,-1,23
 166 949 166 949 108 1002 c 128,-1,24
 50 1055 50 1055 50 1139 c 128,-1,25
 50 1223 50 1223 114 1275 c 0,26,27
 175 1325 175 1325 268 1341 c 2,28,-1
 348 1355 l 1,29,30
 333 1384 333 1384 290 1384 c 2,31,-1
 213 1384 l 2,32,33
 153 1384 153 1384 153 1444 c 2,34,-1
 153 1490 l 2,35,36
 153 1550 153 1550 213 1550 c 2,37,-1
 290 1550 l 2,12,13
353 1218 m 1,38,-1
 289 1205 l 2,39,40
 210 1189 210 1189 210 1142 c 0,41,42
 210 1089 210 1089 273 1089 c 0,43,44
 318 1089 318 1089 353 1118 c 1,45,-1
 353 1218 l 1,38,-1
EndSplineSet
Validated: 1
EndChar

StartChar: ordmasculine
Encoding: 186 186 203
Width: 693
Flags: W
HStem: 703 180<50 643> 940 181<274.569 419.387> 1368 182<273.347 420.879>
VStem: 50 198<1145.55 1344.79> 448 195<1145.08 1343.73>
LayerCount: 2
Fore
SplineSet
95 883 m 2,0,-1
 598 883 l 2,1,2
 643 883 643 883 643 838 c 2,3,-1
 643 748 l 2,4,5
 643 703 643 703 598 703 c 2,6,-1
 95 703 l 2,7,8
 50 703 50 703 50 748 c 2,9,-1
 50 838 l 2,10,11
 50 883 50 883 95 883 c 2,0,-1
346 1368 m 128,-1,13
 308 1368 308 1368 278 1340 c 128,-1,14
 248 1312 248 1312 248 1245.5 c 128,-1,15
 248 1179 248 1179 279 1150 c 128,-1,16
 310 1121 310 1121 347 1121 c 128,-1,17
 384 1121 384 1121 414 1148 c 0,18,19
 448 1180 448 1180 448 1245 c 128,-1,20
 448 1310 448 1310 416 1339 c 128,-1,12
 384 1368 384 1368 346 1368 c 128,-1,13
346 1550 m 0,21,22
 470 1550 470 1550 556 1470 c 0,23,24
 643 1389 643 1389 643 1249 c 0,25,26
 643 1110 643 1110 558 1024 c 0,27,28
 474 940 474 940 347 940 c 0,29,30
 222 940 222 940 136 1024 c 128,-1,31
 50 1108 50 1108 50 1249 c 128,-1,32
 50 1390 50 1390 142 1474 c 0,33,34
 226 1550 226 1550 346 1550 c 0,21,22
EndSplineSet
Validated: 1
EndChar

